SplineFontDB: 3.2
FontName: MScoreText
FullName: MScore Text
FamilyName: MScore Text
Weight: Book
Copyright: 
Version: 1.0
ItalicAngle: 0
UnderlinePosition: -48
UnderlineWidth: 48
Ascent: 800
Descent: 200
InvalidEm: 0
sfntRevision: 0x00010000
LayerCount: 2
Layer: 0 1 "Arri+AOgA-re" 1
Layer: 1 1 "Avant" 0
XUID: [1021 569 10812 21223]
FSType: 0
OS2Version: 3
OS2_WeightWidthSlopeOnly: 0
OS2_UseTypoMetrics: 1
CreationTime: 1403170689
ModificationTime: 1750672429
PfmFamily: 81
TTFWeight: 400
TTFWidth: 5
LineGap: 0
VLineGap: 0
Panose: 5 6 0 0 0 0 0 0 0 0
OS2TypoAscent: 800
OS2TypoAOffset: 0
OS2TypoDescent: -200
OS2TypoDOffset: 0
OS2TypoLinegap: 200
OS2WinAscent: 1130
OS2WinAOffset: 0
OS2WinDescent: 330
OS2WinDOffset: 0
HheadAscent: 1130
HheadAOffset: 0
HheadDescent: -330
HheadDOffset: 0
OS2SubXSize: 650
OS2SubYSize: 600
OS2SubXOff: 0
OS2SubYOff: 75
OS2SupXSize: 650
OS2SupYSize: 600
OS2SupXOff: 0
OS2SupYOff: 350
OS2StrikeYSize: 50
OS2StrikeYPos: 282
OS2Vendor: 'PfEd'
OS2CodePages: 00000001.00000000
OS2UnicodeRanges: 00000000.12004000.01000000.00000000
Lookup: 258 0 0 "'kern' Horizontal Kerning lookup 0" { "'kern' Horizontal kerning lookup 0 subtable" [150,15,0] } ['kern' ('DFLT' <'dflt' > ) ]
MarkAttachClasses: 1
DEI: 91125
ShortTable: maxp 16
  1
  0
  271
  276
  7
  0
  0
  2
  0
  1
  1
  0
  64
  0
  0
  0
EndShort

StartChar: .notdef
Encoding: 65536 -1 0
Width: 362
Flags: W
LayerCount: 2
Fore
SplineSet
33 0 m 1,0,-1
 33 666 l 1,1,-1
 298 666 l 1,2,-1
 298 0 l 1,3,-1
 33 0 l 1,0,-1
66 33 m 1,4,-1
 265 33 l 1,5,-1
 265 633 l 1,6,-1
 66 633 l 1,7,-1
 66 33 l 1,4,-1
EndSplineSet
Validated: 1
EndChar

StartChar: plus
Encoding: 43 43 4
Width: 250
GlyphClass: 2
Flags: W
LayerCount: 2
Fore
SplineSet
125 125 m 128,-1,1
 115 125 115 125 107.5 133 c 128,-1,2
 100 141 100 141 100 150 c 2,3,-1
 100 225 l 1,4,-1
 25 225 l 2,5,6
 15 225 15 225 7.5 232.5 c 128,-1,7
 0 240 0 240 0 250 c 0,8,9
 0 261 0 261 7 268 c 0,10,11
 15 276 15 276 25 275 c 2,12,-1
 100 275 l 1,13,-1
 100 350 l 2,14,15
 100 360 100 360 107.5 367.5 c 128,-1,16
 115 375 115 375 125 375 c 128,-1,17
 135 375 135 375 142.5 367 c 128,-1,18
 150 359 150 359 150 350 c 2,19,-1
 150 275 l 1,20,-1
 225 275 l 2,21,22
 235 275 235 275 242.5 267.5 c 128,-1,23
 250 260 250 260 250 250 c 0,24,25
 250 239 250 239 243 232 c 0,26,27
 235 224 235 224 225 225 c 2,28,-1
 150 225 l 1,29,-1
 150 150 l 2,30,31
 150 140 150 140 142.5 132.5 c 128,-1,0
 135 125 135 125 125 125 c 128,-1,1
EndSplineSet
Validated: 1
EndChar

StartChar: comma
Encoding: 44 44 5
Width: 115
GlyphClass: 2
Flags: W
LayerCount: 2
Fore
SplineSet
66 -36 m 0,0,1
 66 -19 66 -19 56 -9 c 128,-1,2
 46 1 46 1 33.5 6 c 128,-1,3
 21 11 21 11 11 23 c 0,4,5
 0 37 0 37 0 57 c 0,6,7
 0 81 0 81 17 98 c 128,-1,8
 34 115 34 115 57 115 c 128,-1,9
 80 115 80 115 98 98 c 24,10,11
 115 82 115 82 115 57 c 0,12,13
 115 -27 115 -27 57 -149 c 1,14,15
 52 -157 52 -157 45 -157 c 128,-1,16
 38 -157 38 -157 34 -153 c 0,17,18
 29 -148 29 -148 29 -143 c 128,-1,19
 29 -138 29 -138 47.5 -99.5 c 128,-1,20
 66 -61 66 -61 66 -36 c 0,0,1
EndSplineSet
Validated: 1
EndChar

StartChar: hyphen
Encoding: 45 45 6
Width: 165
GlyphClass: 2
Flags: W
LayerCount: 2
Fore
SplineSet
152 152 m 2,0,-1
 15 152 l 2,1,2
 0 152 0 152 0 166 c 0,3,4
 0 181 0 181 15 181 c 2,5,-1
 152 181 l 2,6,7
 167 181 167 181 167 166 c 0,8,9
 167 152 167 152 152 152 c 2,0,-1
EndSplineSet
Validated: 1
EndChar

StartChar: period
Encoding: 46 46 7
Width: 114
GlyphClass: 2
Flags: W
LayerCount: 2
Fore
SplineSet
0 57 m 128,-1,1
 0 81 0 81 16.5 97.5 c 128,-1,2
 33 114 33 114 57 114 c 128,-1,3
 81 114 81 114 97.5 97.5 c 128,-1,4
 114 81 114 81 114 57 c 128,-1,5
 114 33 114 33 97.5 16.5 c 128,-1,6
 81 0 81 0 57 0 c 128,-1,7
 33 0 33 0 16.5 16.5 c 128,-1,0
 0 33 0 33 0 57 c 128,-1,1
EndSplineSet
Validated: 1
EndChar

StartChar: f
Encoding: 102 102 8
Width: 1000
GlyphClass: 2
LayerCount: 2
Back
SplineSet
248.047 245.117 m 1,0,-1
 198.242 83.9844 l 2,1,2
 171.875 -2.92969 171.875 -2.92969 111.328 -83.9844 c 0,3,4
 49.8047 -166.016 49.8047 -166.016 -14.6484 -166.016 c 0,5,6
 -48.8281 -166.016 -48.8281 -166.016 -74.2188 -148.438 c 128,-1,7
 -99.6094 -130.859 -99.6094 -130.859 -99.6094 -102.539 c 0,8,9
 -99.6094 -70.3125 -99.6094 -70.3125 -85.9375 -48.8281 c 0,10,11
 -73.2422 -27.3438 -73.2422 -27.3438 -48.8281 -27.3438 c 0,12,13
 -31.25 -27.3438 -31.25 -27.3438 -18.5547 -40.0391 c 128,-1,14
 -5.85938 -52.7344 -5.85938 -52.7344 -5.85938 -70.3125 c 0,15,16
 -5.85938 -84.9609 -5.85938 -84.9609 -24.4141 -97.6562 c 0,17,18
 -42.9688 -109.375 -42.9688 -109.375 -42.9688 -124.023 c 0,19,20
 -42.9688 -133.789 -42.9688 -133.789 -20.5078 -133.789 c 2,21,-1
 -14.6484 -133.789 l 2,22,23
 -9.76562 -133.789 -9.76562 -133.789 0 -131.836 c 0,24,25
 4.88281 -130.859 4.88281 -130.859 12.6953 -125 c 0,26,27
 22.4609 -117.188 22.4609 -117.188 23.4375 -117.188 c 0,28,29
 29.2969 -108.398 29.2969 -108.398 31.25 -104.492 c 0,30,31
 35.1562 -96.6797 35.1562 -96.6797 37.1094 -90.8203 c 1,32,33
 40.0391 -86.9141 40.0391 -86.9141 42.9688 -74.2188 c 0,34,35
 43.9453 -71.2891 43.9453 -71.2891 44.9219 -67.3828 c 128,-1,36
 45.8984 -63.4766 45.8984 -63.4766 46.875 -61.5234 c 128,-1,37
 47.8516 -59.5703 47.8516 -59.5703 47.8516 -58.5938 c 0,38,39
 51.7578 -42.9688 51.7578 -42.9688 52.7344 -40.0391 c 0,40,41
 56.6406 -24.4141 56.6406 -24.4141 56.6406 -23.4375 c 2,42,-1
 124.023 245.117 l 1,43,-1
 72.2656 245.117 l 2,44,45
 65.4297 245.117 65.4297 245.117 60.5469 250 c 1,46,47
 56.6406 255.859 56.6406 255.859 56.6406 261.719 c 128,-1,48
 56.6406 267.578 56.6406 267.578 60.5469 273.438 c 1,49,50
 67.3828 278.32 67.3828 278.32 72.2656 278.32 c 2,51,-1
 132.812 278.32 l 1,52,53
 158.203 354.492 158.203 354.492 216.797 410.156 c 1,54,55
 274.414 466.797 274.414 466.797 341.797 466.797 c 0,56,57
 376.953 466.797 376.953 466.797 401.367 449.219 c 1,58,59
 426.758 432.617 426.758 432.617 426.758 404.297 c 0,60,61
 426.758 374.023 426.758 374.023 414.062 350.586 c 1,62,63
 399.414 328.125 399.414 328.125 375.977 328.125 c 0,64,65
 358.398 328.125 358.398 328.125 345.703 340.82 c 128,-1,66
 333.008 353.516 333.008 353.516 333.008 371.094 c 0,67,68
 333.008 385.742 333.008 385.742 351.562 398.438 c 0,69,70
 370.117 410.156 370.117 410.156 370.117 424.805 c 0,71,72
 370.117 435.547 370.117 435.547 348.633 435.547 c 2,73,-1
 345.703 435.547 l 1,74,75
 343.75 434.57 343.75 434.57 341.797 434.57 c 0,76,77
 324.219 434.57 324.219 434.57 310.547 425.781 c 0,78,79
 298.828 417.969 298.828 417.969 289.062 397.461 c 0,80,81
 286.133 391.602 286.133 391.602 283.691 385.742 c 128,-1,82
 281.25 379.883 281.25 379.883 278.809 373.047 c 128,-1,83
 276.367 366.211 276.367 366.211 275.391 363.281 c 0,84,85
 274.414 358.398 274.414 358.398 270.996 343.262 c 128,-1,86
 267.578 328.125 267.578 328.125 265.625 318.359 c 0,87,88
 258.789 287.109 258.789 287.109 256.836 278.32 c 1,89,-1
 313.477 278.32 l 2,90,91
 320.312 278.32 320.312 278.32 325.195 273.438 c 128,-1,92
 330.078 268.555 330.078 268.555 330.078 261.719 c 128,-1,93
 330.078 254.883 330.078 254.883 325.195 250 c 128,-1,94
 320.312 245.117 320.312 245.117 313.477 245.117 c 2,95,-1
 248.047 245.117 l 1,0,-1
EndSplineSet
Fore
Validated: 1
EndChar

StartChar: uniE128
Encoding: 57640 57640 9
Width: 573
GlyphClass: 2
Flags: W
LayerCount: 2
Fore
SplineSet
287 138 m 128,-1,1
 385 138 385 138 445 106 c 0,2,3
 506 76 506 76 524 39 c 1,4,-1
 524 862 l 2,5,6
 524 887 524 887 548.5 887 c 128,-1,7
 573 887 573 887 573 862 c 2,8,-1
 573 -112 l 2,9,10
 573 -137 573 -137 548.5 -137 c 128,-1,11
 524 -137 524 -137 524 -112 c 2,12,-1
 524 -39 l 1,13,14
 504 -75 504 -75 445 -106 c 0,15,16
 384 -138 384 -138 286.5 -138 c 128,-1,17
 189 -138 189 -138 129 -106 c 0,18,19
 67 -75 67 -75 49 -39 c 1,20,-1
 49 -112 l 2,21,22
 49 -137 49 -137 24.5 -137 c 128,-1,23
 0 -137 0 -137 0 -112 c 2,24,-1
 0 112 l 2,25,26
 0 137 0 137 24.5 137 c 128,-1,27
 49 137 49 137 49 112 c 2,28,-1
 49 39 l 1,29,30
 68 75 68 75 129 106 c 0,31,0
 189 138 189 138 287 138 c 128,-1,1
254 112 m 0,32,33
 221 112 221 112 203.5 87.5 c 128,-1,34
 186 63 186 63 186 24 c 0,35,36
 186 -22 186 -22 210 -55 c 0,37,38
 233 -87 233 -87 264 -100 c 0,39,40
 292 -112 292 -112 319 -112 c 0,41,42
 355 -112 355 -112 371 -88 c 0,43,44
 388 -62 388 -62 388 -24 c 0,45,46
 388 22 388 22 363.5 55 c 128,-1,47
 339 88 339 88 311 100 c 0,48,49
 282 112 282 112 254 112 c 0,32,33
EndSplineSet
Validated: 1
EndChar

StartChar: uniE129
Encoding: 57641 57641 10
Width: 573
GlyphClass: 2
Flags: W
LayerCount: 2
Fore
SplineSet
287 138 m 128,-1,1
 385 138 385 138 445 106 c 0,2,3
 506 76 506 76 524 39 c 1,4,-1
 524 112 l 2,5,6
 524 137 524 137 548.5 137 c 128,-1,7
 573 137 573 137 573 112 c 2,8,-1
 573 -113 l 2,9,10
 573 -138 573 -138 548.5 -138 c 128,-1,11
 524 -138 524 -138 524 -113 c 2,12,-1
 524 -39 l 1,13,14
 504 -75 504 -75 445 -106 c 0,15,16
 384 -138 384 -138 286.5 -138 c 128,-1,17
 189 -138 189 -138 129 -106 c 0,18,19
 67 -75 67 -75 49 -39 c 1,20,-1
 49 -863 l 2,21,22
 49 -888 49 -888 24.5 -888 c 128,-1,23
 0 -888 0 -888 0 -863 c 2,24,-1
 0 112 l 2,25,26
 0 137 0 137 24.5 137 c 128,-1,27
 49 137 49 137 49 112 c 2,28,-1
 49 39 l 1,29,30
 68 75 68 75 129 106 c 0,31,0
 189 138 189 138 287 138 c 128,-1,1
254 112 m 0,32,33
 221 112 221 112 203.5 87.5 c 128,-1,34
 186 63 186 63 186 24 c 0,35,36
 186 -22 186 -22 210 -55 c 0,37,38
 233 -87 233 -87 264 -100 c 0,39,40
 292 -112 292 -112 319 -112 c 0,41,42
 355 -112 355 -112 371 -88 c 0,43,44
 388 -62 388 -62 388 -24 c 0,45,46
 388 22 388 22 363 55 c 1,47,48
 342 86 342 86 311 100 c 0,49,50
 282 112 282 112 254 112 c 0,32,33
EndSplineSet
Validated: 1
EndChar

StartChar: uniE133
Encoding: 57651 57651 11
Width: 417
GlyphClass: 2
Flags: W
LayerCount: 2
Fore
SplineSet
102 69 m 1,0,1
 133 -5 133 -5 133 -87 c 1,2,3
 193 -27 193 -27 278 16 c 1,4,5
 185 31 185 31 102 69 c 1,0,1
0 142 m 0,6,7
 0 152 0 152 10 158 c 1,8,9
 18 165 18 165 32 165 c 0,10,11
 36 165 36 165 66 148 c 1,12,13
 101 127 101 127 135 111 c 1,14,15
 177 90 177 90 244 74 c 1,16,17
 312 57 312 57 389 57 c 0,18,19
 402 57 402 57 409 50 c 0,20,21
 418 41 418 41 418 33 c 0,22,23
 418 19 418 19 391 7 c 0,24,25
 362 -7 362 -7 322 -20 c 1,26,27
 281 -36 281 -36 224.5 -78.5 c 128,-1,28
 168 -121 168 -121 119 -188 c 0,29,30
 113 -197 113 -197 98 -197 c 0,31,32
 84 -197 84 -197 76 -190 c 1,33,34
 66 -183 66 -183 66 -173 c 2,35,-1
 66 -172 l 2,36,37
 66 -171 66 -171 66.5 -169.5 c 128,-1,38
 67 -168 67 -168 67.5 -165.5 c 128,-1,39
 68 -163 68 -163 68 -161 c 0,40,41
 72 -135 72 -135 72 -133 c 0,42,43
 74 -110 74 -110 74 -94 c 0,44,45
 74 -30 74 -30 56 25 c 1,46,47
 35 84 35 84 19 108 c 0,48,49
 0 137 0 137 0 142 c 0,6,7
EndSplineSet
Validated: 1
EndChar

StartChar: uniE135
Encoding: 57653 57653 12
Width: 347
GlyphClass: 2
Flags: W
LayerCount: 2
Fore
SplineSet
55 -173 m 0,0,1
 55 -168 55 -168 57 -160 c 0,2,3
 57 -157 57 -157 58.5 -147.5 c 128,-1,4
 60 -138 60 -138 60 -133 c 0,5,6
 62 -108 62 -108 62 -93 c 0,7,8
 62 -32 62 -32 47 22 c 1,9,10
 30 79 30 79 16 105 c 0,11,12
 0 135 0 135 0 140 c 0,13,14
 0 151 0 151 7 157 c 0,15,16
 15 165 15 165 25 165 c 0,17,18
 30 165 30 165 55 148 c 0,19,20
 95 121 95 121 112 111 c 1,21,22
 145 90 145 90 203 74 c 1,23,24
 260 57 260 57 324 57 c 4,25,26
 334 57 334 57 341 49 c 1,27,28
 348 43 348 43 348 32 c 0,29,30
 348 18 348 18 334 10 c 1,31,32
 329 8 329 8 311 -1 c 128,-1,33
 293 -10 293 -10 279 -16 c 0,34,35
 242 -34 242 -34 200 -69 c 0,36,37
 166 -98 166 -98 146 -122 c 0,38,39
 122 -151 122 -151 116 -163 c 0,40,41
 110 -176 110 -176 100 -188 c 1,42,43
 90 -198 90 -198 80 -197 c 0,44,45
 66 -197 66 -197 62 -189 c 1,46,47
 54 -185 54 -185 55 -173 c 0,0,1
EndSplineSet
Validated: 1
EndChar

StartChar: uniE13D
Encoding: 57661 57661 13
Width: 494
GlyphClass: 2
Flags: W
LayerCount: 2
Fore
SplineSet
84 -69 m 1,0,-1
 411 -69 l 1,1,-1
 248 63 l 1,2,-1
 84 -69 l 1,0,-1
22 -112 m 2,3,4
 13 -112 13 -112 7 -105 c 0,5,6
 0 -99 0 -99 0 -91 c 0,7,8
 0 -80 0 -80 8 -74 c 2,9,-1
 234 108 l 2,10,11
 238 112 238 112 248 112 c 0,12,13
 257 112 257 112 261 108 c 2,14,-1
 487 -74 l 2,15,16
 495 -80 495 -80 495 -91 c 0,17,18
 495 -100 495 -100 488 -105 c 1,19,20
 482 -112 482 -112 473 -112 c 2,21,-1
 22 -112 l 2,3,4
EndSplineSet
Validated: 1
EndChar

StartChar: uniE13F
Encoding: 57663 57663 14
Width: 346
GlyphClass: 2
Flags: W
LayerCount: 2
Fore
SplineSet
69 -69 m 1,0,-1
 279 -69 l 1,1,-1
 174 57 l 1,2,-1
 69 -69 l 1,0,-1
22 -112 m 2,3,4
 13 -112 13 -112 7 -105 c 0,5,6
 0 -99 0 -99 0 -91 c 0,7,8
 0 -85 0 -85 5 -77 c 1,9,-1
 157 105 l 2,10,11
 163 113 163 113 174 113 c 0,12,13
 184 113 184 113 191 105 c 1,14,-1
 342 -77 l 1,15,16
 347 -85 347 -85 347 -91 c 0,17,18
 347 -100 347 -100 341 -105 c 0,19,20
 335 -112 335 -112 326 -112 c 2,21,-1
 22 -112 l 2,3,4
EndSplineSet
Validated: 1
EndChar

StartChar: uniE141
Encoding: 57665 57665 15
Width: 328
GlyphClass: 2
Flags: W
LayerCount: 2
Fore
SplineSet
22 -112 m 2,0,1
 13 -112 13 -112 7 -105 c 0,2,3
 0 -99 0 -99 0 -91 c 0,4,5
 0 -84 0 -84 5 -77 c 2,6,-1
 147 104 l 2,7,8
 154 114 154 114 165 113.5 c 128,-1,9
 176 113 176 113 183 104 c 2,10,-1
 324 -77 l 2,11,12
 329 -84 329 -84 329 -91 c 0,13,14
 329 -100 329 -100 322 -105 c 1,15,16
 316 -112 316 -112 307 -112 c 2,17,-1
 22 -112 l 2,0,1
EndSplineSet
Validated: 1
EndChar

StartChar: uniE142
Encoding: 57666 57666 16
Width: 494
GlyphClass: 2
Flags: W
LayerCount: 2
Fore
SplineSet
44 69 m 1,0,-1
 44 36 l 2,1,2
 44 -69 44 -69 248 -69 c 0,3,4
 451 -69 451 -69 451 36 c 2,5,-1
 451 69 l 1,6,-1
 44 69 l 1,0,-1
0 91 m 2,7,8
 0 100 0 100 6 105 c 0,9,10
 13 112 13 112 22 112 c 2,11,-1
 473 112 l 2,12,13
 482 112 482 112 488 105 c 0,14,15
 495 99 495 99 495 91 c 2,16,-1
 495 36 l 2,17,18
 495 -39 495 -39 422 -75 c 1,19,20
 350 -112 350 -112 248 -112 c 0,21,22
 147 -112 147 -112 73 -75 c 0,23,24
 0 -39 0 -39 0 36 c 2,25,-1
 0 91 l 2,7,8
EndSplineSet
Validated: 1
EndChar

StartChar: uniE144
Encoding: 57668 57668 17
Width: 346
GlyphClass: 2
Flags: W
LayerCount: 2
Fore
SplineSet
44 69 m 1,0,-1
 44 36 l 2,1,2
 44 -10 44 -10 82 -39 c 0,3,4
 121 -69 121 -69 174 -69 c 128,-1,5
 227 -69 227 -69 266 -39 c 0,6,7
 304 -10 304 -10 304 36 c 2,8,-1
 304 69 l 1,9,-1
 44 69 l 1,0,-1
0 91 m 2,10,11
 0 100 0 100 6 105 c 0,12,13
 13 112 13 112 22 112 c 2,14,-1
 326 112 l 2,15,16
 335 112 335 112 341 105 c 0,17,18
 347 99 347 99 347 91 c 2,19,-1
 347 36 l 2,20,21
 347 -28 347 -28 296 -70 c 128,-1,22
 245 -112 245 -112 174 -112 c 128,-1,23
 103 -112 103 -112 51 -70 c 1,24,25
 0 -27 0 -27 0 36 c 2,26,-1
 0 91 l 2,10,11
EndSplineSet
Validated: 1
EndChar

StartChar: uniE146
Encoding: 57670 57670 18
Width: 328
GlyphClass: 2
Flags: W
LayerCount: 2
Fore
SplineSet
0 91 m 2,0,1
 0 100 0 100 6 105 c 0,2,3
 13 112 13 112 22 112 c 2,4,-1
 307 112 l 2,5,6
 316 112 316 112 322 105 c 0,7,8
 329 99 329 99 329 91 c 2,9,-1
 329 36 l 2,10,11
 329 -26 329 -26 281 -70 c 1,12,13
 230 -112 230 -112 165 -112 c 0,14,15
 99 -112 99 -112 49 -70 c 1,16,17
 0 -26 0 -26 0 36 c 2,18,-1
 0 91 l 2,0,1
EndSplineSet
Validated: 1
EndChar

StartChar: uniE147
Encoding: 57671 57671 19
Width: 494
GlyphClass: 2
Flags: W
LayerCount: 2
Fore
SplineSet
95 6 m 1,0,-1
 262 -61 l 1,1,-1
 400 -6 l 1,2,-1
 233 61 l 1,3,-1
 95 6 l 1,0,-1
14 -20 m 2,4,5
 0 -15 0 -15 0 0 c 128,-1,6
 0 15 0 15 14 20 c 2,7,-1
 239 111 l 2,8,9
 241 112 241 112 248 112 c 0,10,11
 254 112 254 112 256 111 c 2,12,-1
 481 20 l 2,13,14
 495 15 495 15 495 0 c 128,-1,15
 495 -15 495 -15 481 -20 c 2,16,-1
 256 -111 l 2,17,18
 254 -112 254 -112 248 -112 c 0,19,20
 241 -112 241 -112 239 -111 c 2,21,-1
 14 -20 l 2,4,5
EndSplineSet
Validated: 1
EndChar

StartChar: uniE14A
Encoding: 57674 57674 20
Width: 494
GlyphClass: 2
Flags: W
LayerCount: 2
Fore
SplineSet
135 69 m 1,0,-1
 451 -58 l 1,1,-1
 451 69 l 1,2,-1
 135 69 l 1,0,-1
0 91 m 0,3,4
 0 100 0 100 6 105 c 0,5,6
 13 112 13 112 22 112 c 2,7,-1
 473 112 l 2,8,9
 482 112 482 112 488 105 c 0,10,11
 495 99 495 99 495 91 c 2,12,-1
 495 -91 l 2,13,14
 495 -100 495 -100 488 -105 c 1,15,16
 482 -112 482 -112 473 -112 c 0,17,18
 467 -112 467 -112 465 -111 c 2,19,-1
 14 70 l 2,20,21
 0 75 0 75 0 91 c 0,3,4
EndSplineSet
Validated: 1
EndChar

StartChar: uniE14B
Encoding: 57675 57675 21
Width: 494
GlyphClass: 2
Flags: W
LayerCount: 2
Fore
SplineSet
360 -69 m 1,0,-1
 44 58 l 1,1,-1
 44 -69 l 1,2,-1
 360 -69 l 1,0,-1
495 -91 m 0,3,4
 495 -100 495 -100 488 -105 c 1,5,6
 482 -112 482 -112 473 -112 c 2,7,-1
 22 -112 l 2,8,9
 13 -112 13 -112 7 -105 c 0,10,11
 0 -99 0 -99 0 -91 c 2,12,-1
 0 91 l 2,13,14
 0 100 0 100 6 105 c 0,15,16
 13 112 13 112 22 112 c 0,17,18
 28 112 28 112 30 111 c 2,19,-1
 481 -70 l 2,20,21
 495 -75 495 -75 495 -91 c 0,3,4
EndSplineSet
Validated: 1
EndChar

StartChar: uniE150
Encoding: 57680 57680 22
Width: 494
GlyphClass: 2
Flags: W
LayerCount: 2
Fore
SplineSet
44 69 m 1,0,-1
 44 -69 l 1,1,-1
 451 -69 l 1,2,-1
 451 69 l 1,3,-1
 44 69 l 1,0,-1
22 112 m 2,4,-1
 473 112 l 2,5,6
 482 112 482 112 488 105 c 0,7,8
 495 99 495 99 495 91 c 2,9,-1
 495 -91 l 2,10,11
 495 -100 495 -100 488 -105 c 1,12,13
 482 -112 482 -112 473 -112 c 2,14,-1
 22 -112 l 2,15,16
 13 -112 13 -112 7 -105 c 0,17,18
 0 -99 0 -99 0 -91 c 2,19,-1
 0 91 l 2,20,21
 0 100 0 100 7 105 c 0,22,23
 13 112 13 112 22 112 c 2,4,-1
EndSplineSet
Validated: 1
EndChar

StartChar: uniE153
Encoding: 57683 57683 23
Width: 494
GlyphClass: 2
Flags: W
LayerCount: 2
Fore
SplineSet
248 -66 m 1,0,-1
 427 26 l 1,1,2
 339 69 339 69 248 69 c 0,3,4
 156 69 156 69 68 26 c 1,5,-1
 248 -66 l 1,0,-1
0 25 m 0,6,7
 0 49 0 49 82 82 c 0,8,9
 164 113 164 113 248 113 c 0,10,11
 374 113 374 113 483 45 c 0,12,13
 495 37 495 37 495 25 c 0,14,15
 495 11 495 11 483 6 c 2,16,-1
 258 -110 l 2,17,18
 254 -112 254 -112 248 -112 c 128,-1,19
 242 -112 242 -112 238 -110 c 2,20,-1
 12 6 l 2,21,22
 0 11 0 11 0 25 c 0,6,7
EndSplineSet
Validated: 1
EndChar

StartChar: uniE155
Encoding: 57685 57685 24
Width: 346
GlyphClass: 2
Flags: W
LayerCount: 2
Fore
SplineSet
174 -63 m 1,0,-1
 292 27 l 1,1,2
 241 69 241 69 173.5 69 c 128,-1,3
 106 69 106 69 56 27 c 1,4,-1
 174 -63 l 1,0,-1
174 112 m 128,-1,6
 222 112 222 112 262 94 c 1,7,8
 303 77 303 77 326 56 c 0,9,10
 347 35 347 35 348 24 c 0,11,12
 348 15 348 15 339 8 c 2,13,-1
 187 -108 l 2,14,15
 183 -112 183 -112 174 -112 c 0,16,17
 164 -112 164 -112 160 -108 c 2,18,-1
 9 8 l 2,19,20
 0 16 0 16 0 24 c 0,21,22
 0 36 0 36 21 57 c 1,23,24
 44 77 44 77 86 94 c 1,25,5
 126 112 126 112 174 112 c 128,-1,6
EndSplineSet
Validated: 1
EndChar

StartChar: uniE157
Encoding: 57687 57687 25
Width: 328
GlyphClass: 2
Flags: W
LayerCount: 2
Fore
SplineSet
165 112 m 0,0,1
 198 112 198 112 232 102 c 1,2,3
 265 90 265 90 285 74 c 0,4,5
 306 56 306 56 316 45 c 1,6,7
 329 32 329 32 329 24 c 0,8,9
 329 15 329 15 321 8 c 1,10,-1
 178 -108 l 2,11,12
 174 -112 174 -112 165 -112 c 0,13,14
 155 -112 155 -112 151 -108 c 2,15,-1
 8 8 l 2,16,17
 0 14 0 14 0 24 c 0,18,19
 0 34 0 34 20 56 c 1,20,21
 41 77 41 77 80 94 c 0,22,23
 120 112 120 112 165 112 c 0,0,1
EndSplineSet
Validated: 1
EndChar

StartChar: uniE161
Encoding: 57697 57697 26
Width: 450
GlyphClass: 2
Flags: W
LayerCount: 2
Fore
SplineSet
451 128.5 m 128,-1,1
 451 110 451 110 433 110 c 1,2,-1
 21 4 l 2,3,4
 19 3 19 3 15 3 c 0,5,6
 2 3 2 3 2 22 c 0,7,8
 2 38 2 38 16 41 c 2,9,-1
 267 105 l 1,10,-1
 406 129 l 1,11,-1
 267 152 l 1,12,-1
 16 217 l 2,13,14
 2 220 2 220 2 235 c 0,15,16
 2 255 2 255 15 255 c 0,17,18
 19 255 19 255 21 254 c 2,19,-1
 433 147 l 1,20,0
 451 147 451 147 451 128.5 c 128,-1,1
EndSplineSet
Validated: 1
EndChar

StartChar: uniE162
Encoding: 57698 57698 27
Width: 474
GlyphClass: 2
Flags: W
LayerCount: 2
Fore
SplineSet
-475 0 m 128,-1,1
 -475 19 -475 19 -456 19 c 1,2,-1
 -53 124 l 2,3,4
 -50 125 -50 125 -45 125 c 0,5,6
 -30 125 -30 125 -30 104 c 0,7,8
 -30 93 -30 93 -44 88 c 1,9,-1
 -292 23 l 1,10,-1
 -434 0 l 1,11,-1
 -292 -23 l 1,12,-1
 -44 -88 l 1,13,14
 -30 -93 -30 -93 -30 -103 c 0,15,16
 -30 -125 -30 -125 -45 -125 c 2,17,-1
 -49 -125 l 1,18,-1
 -456 -19 l 1,19,0
 -475 -19 -475 -19 -475 0 c 128,-1,1
475 0 m 128,-1,21
 475 -19 475 -19 456 -19 c 1,22,-1
 49 -125 l 1,23,-1
 45 -125 l 2,24,25
 30 -125 30 -125 30 -103 c 0,26,27
 30 -93 30 -93 44 -88 c 1,28,-1
 292 -23 l 1,29,-1
 434 0 l 1,30,-1
 292 23 l 1,31,-1
 44 88 l 1,32,33
 30 93 30 93 30 104 c 0,34,35
 30 125 30 125 45 125 c 0,36,37
 50 125 50 125 53 124 c 2,38,-1
 456 19 l 1,39,20
 475 19 475 19 475 0 c 128,-1,21
EndSplineSet
Validated: 1
EndChar

StartChar: uniE163
Encoding: 57699 57699 28
Width: 97
GlyphClass: 2
Flags: W
LayerCount: 2
Fore
SplineSet
-1 48.5 m 128,-1,1
 -1 69 -1 69 13.5 84 c 128,-1,2
 28 99 28 99 48.5 99 c 128,-1,3
 69 99 69 99 84 84 c 128,-1,4
 99 69 99 69 99 48.5 c 128,-1,5
 99 28 99 28 84 13.5 c 128,-1,6
 69 -1 69 -1 48.5 -1 c 128,-1,7
 28 -1 28 -1 13.5 13.5 c 128,-1,0
 -1 28 -1 28 -1 48.5 c 128,-1,1
EndSplineSet
Validated: 1
EndChar

StartChar: uniE166
Encoding: 57702 57702 29
Width: 298
GlyphClass: 2
Flags: W
LayerCount: 2
Fore
SplineSet
280 0 m 2,0,-1
 21 0 l 2,1,2
 14 0 14 0 6 6 c 1,3,4
 0 12 0 12 0 19.5 c 128,-1,5
 0 27 0 27 6 33 c 1,6,7
 14 39 14 39 21 39 c 2,8,-1
 280 39 l 2,9,10
 287 39 287 39 295 33 c 1,11,12
 301 27 301 27 301 19.5 c 128,-1,13
 301 12 301 12 295 6 c 1,14,15
 287 0 287 0 280 0 c 2,0,-1
EndSplineSet
Validated: 1
EndChar

StartChar: uniE17B
Encoding: 57723 57723 30
Width: 0
GlyphClass: 2
Flags: W
LayerCount: 2
Fore
SplineSet
-50 -13 m 128,-1,1
 -50 -50 -50 -50 -33 -82 c 8,2,3
 -18 -110 -18 -110 -18 -119 c 0,4,5
 -18 -135 -18 -135 -28 -146 c 152,-1,6
 -38 -157 -38 -157 -55 -157 c 0,7,8
 -83 -157 -83 -157 -97.5 -124.5 c 128,-1,9
 -112 -92 -112 -92 -112 -59 c 4,10,11
 -112 21 -112 21 -25 146 c 0,12,13
 -20 153 -20 153 -12 153 c 0,14,15
 3 153 3 153 3 138 c 0,16,17
 3 136 3 136 -11 113 c 0,18,19
 -24 93 -24 93 -37 59 c 0,20,0
 -50 24 -50 24 -50 -13 c 128,-1,1
EndSplineSet
Validated: 1
EndChar

StartChar: uniE17C
Encoding: 57724 57724 31
Width: 60
GlyphClass: 2
Flags: W
LayerCount: 2
Fore
SplineSet
-63 -165 m 0,0,1
 -77 -165 -77 -165 -77 -150 c 0,2,3
 -77 -145 -77 -145 -76 -144 c 2,4,-1
 28 164 l 1,5,6
 35 188 35 188 62 188 c 0,7,8
 79 188 79 188 90 177 c 1,9,10
 101 164 101 164 101 150 c 0,11,12
 101 144 101 144 97 136 c 2,13,-1
 -49 -156 l 1,14,15
 -54 -165 -54 -165 -63 -165 c 0,0,1
EndSplineSet
Validated: 1
EndChar

StartChar: uniE17D
Encoding: 57725 57725 32
Width: 60
GlyphClass: 2
Flags: W
LayerCount: 2
Fore
SplineSet
63 165 m 0,0,1
 77 165 77 165 77 150 c 0,2,3
 77 145 77 145 76 144 c 2,4,-1
 -28 -164 l 1,5,6
 -35 -188 -35 -188 -62 -188 c 0,7,8
 -79 -188 -79 -188 -90 -177 c 1,9,10
 -101 -164 -101 -164 -101 -150 c 0,11,12
 -101 -144 -101 -144 -97 -136 c 2,13,-1
 49 156 l 1,14,15
 54 165 54 165 63 165 c 0,0,1
EndSplineSet
Validated: 1
EndChar

StartChar: uniE180
Encoding: 57728 57728 33
Width: 250
GlyphClass: 2
Flags: W
LayerCount: 2
Fore
SplineSet
-28 158 m 1,0,1
 -28 158 -28 158 -2 127 c 1,2,3
 8 113 8 113 25 113 c 0,4,5
 32 113 32 113 41 117 c 0,6,7
 49 121 49 121 55 127 c 0,8,9
 56 128 56 128 62 132.5 c 128,-1,10
 68 137 68 137 72 141 c 0,11,12
 84 152 84 152 88 154 c 1,13,-1
 45 246 l 2,14,15
 43 250 43 250 43 256 c 1,16,17
 46 259 46 259 51 260 c 1,18,19
 57 260 57 260 88 229 c 0,20,21
 111 204 111 204 162 158 c 1,22,23
 211 118 211 118 248 105 c 1,24,25
 250 104 250 104 251 102 c 1,26,27
 251 94 251 94 247 94 c 1,28,29
 213 80 213 80 163 39 c 0,30,31
 108 -7 108 -7 87 -29 c 0,32,33
 57 -61 57 -61 50 -61 c 128,-1,34
 43 -61 43 -61 43 -55 c 0,35,36
 43 -51 43 -51 46 -47 c 2,37,-1
 83 31 l 1,38,39
 59 37 59 37 40 51 c 1,40,-1
 -52 139 l 2,41,42
 -56 143 -56 143 -56 148 c 0,43,44
 -56 154 -56 154 -52 158 c 0,45,46
 -45 165 -45 165 -37 164 c 0,47,48
 -32 164 -32 164 -28 158 c 1,0,1
EndSplineSet
Validated: 1
EndChar

StartChar: uniE186
Encoding: 57734 57734 34
Width: 667
GlyphClass: 2
Flags: W
LayerCount: 2
Fore
SplineSet
480 -25 m 2,0,1
 480 -33 480 -33 474.5 -39 c 128,-1,2
 469 -45 469 -45 461 -45 c 0,3,4
 452 -45 452 -45 446 -39 c 128,-1,5
 440 -33 440 -33 440 -25 c 2,6,-1
 440 56 l 1,7,-1
 407 6 l 2,8,9
 401 -3 401 -3 391 -3 c 0,10,11
 382 -3 382 -3 375 4 c 2,12,-1
 276 123 l 1,13,-1
 198 6 l 2,14,15
 192 -3 192 -3 182.5 -3 c 128,-1,16
 173 -3 173 -3 166 4 c 2,17,-1
 68 123 l 1,18,-1
 37 76 l 2,19,20
 31 67 31 67 21 67 c 0,21,22
 14 67 14 67 6 73 c 1,23,24
 0 79 0 79 0 87 c 0,25,26
 0 91 0 91 5 98 c 2,27,-1
 98 238 l 2,28,29
 104 247 104 247 114 247 c 0,30,31
 123 247 123 247 130 240 c 2,32,-1
 228 121 l 1,33,-1
 306 238 l 2,34,35
 312 247 312 247 322 247 c 0,36,37
 331 247 331 247 338 240 c 2,38,-1
 437 121 l 1,39,-1
 440 128 l 1,40,-1
 440 270 l 2,41,42
 440 278 440 278 446 283.5 c 128,-1,43
 452 289 452 289 461 289 c 0,44,45
 469 289 469 289 474.5 283 c 128,-1,46
 480 277 480 277 480 270 c 2,47,-1
 480 188 l 1,48,-1
 515 238 l 2,49,50
 521 247 521 247 530.5 247 c 128,-1,51
 540 247 540 247 547 240 c 2,52,-1
 645 121 l 1,53,-1
 676 168 l 2,54,55
 682 177 682 177 692 177 c 0,56,57
 699 177 699 177 707 171 c 1,58,59
 713 165 713 165 713 157 c 0,60,61
 713 153 713 153 708 146 c 2,62,-1
 615 6 l 2,63,64
 609 -3 609 -3 599.5 -3 c 128,-1,65
 590 -3 590 -3 583 4 c 2,66,-1
 485 123 l 1,67,-1
 480 116 l 1,68,-1
 480 -25 l 2,0,1
EndSplineSet
Validated: 1
EndChar

StartChar: uniE187
Encoding: 57735 57735 35
Width: 704
GlyphClass: 2
Flags: W
LayerCount: 2
Fore
SplineSet
57 -180 m 0,0,1
 37 -180 37 -180 20 -131 c 1,2,3
 0 -85 0 -85 0 -35 c 0,4,5
 0 39 0 39 41 101 c 2,6,-1
 134 241 l 2,7,8
 140 250 140 250 150 250 c 0,9,10
 159 250 159 250 166 243 c 2,11,-1
 264 124 l 1,12,-1
 342 241 l 2,13,14
 348 250 348 250 358 250 c 0,15,16
 367 250 367 250 374 243 c 2,17,-1
 473 124 l 1,18,-1
 551 241 l 2,19,20
 557 250 557 250 566.5 250 c 128,-1,21
 576 250 576 250 583 243 c 2,22,-1
 681 124 l 1,23,-1
 712 171 l 2,24,25
 718 180 718 180 729 180 c 0,26,27
 737 180 737 180 742 174 c 0,28,29
 749 168 749 168 749 160 c 0,30,31
 749 156 749 156 744 149 c 2,32,-1
 651 9 l 2,33,34
 645 0 645 0 635.5 0 c 128,-1,35
 626 0 626 0 619 7 c 2,36,-1
 521 126 l 1,37,-1
 443 9 l 2,38,39
 437 0 437 0 427 0 c 0,40,41
 418 0 418 0 411 7 c 2,42,-1
 312 126 l 1,43,-1
 234 9 l 2,44,45
 228 0 228 0 218.5 0 c 128,-1,46
 209 0 209 0 202 7 c 2,47,-1
 104 126 l 1,48,-1
 73 79 l 2,49,50
 40 30 40 30 40 -35 c 0,51,52
 40 -69 40 -69 49 -95.5 c 128,-1,53
 58 -122 58 -122 67 -141 c 0,54,55
 76 -156 76 -156 76 -160 c 0,56,57
 76 -168 76 -168 70.5 -174 c 128,-1,58
 65 -180 65 -180 57 -180 c 0,0,1
EndSplineSet
Validated: 1
EndChar

StartChar: uniE188
Encoding: 57736 57736 36
Width: 704
GlyphClass: 2
Flags: W
LayerCount: 2
Fore
SplineSet
57 -180 m 0,0,1
 37 -180 37 -180 20 -131 c 1,2,3
 0 -85 0 -85 0 -35 c 0,4,5
 0 39 0 39 41 101 c 2,6,-1
 134 241 l 2,7,8
 140 250 140 250 150 250 c 0,9,10
 159 250 159 250 166 243 c 2,11,-1
 264 124 l 1,12,-1
 342 241 l 2,13,14
 348 250 348 250 358 250 c 0,15,16
 367 250 367 250 374 243 c 2,17,-1
 473 124 l 1,18,-1
 477 131 l 1,19,-1
 477 272 l 2,20,21
 477 280 477 280 482.5 286 c 128,-1,22
 488 292 488 292 496 292 c 0,23,24
 505 292 505 292 511 286 c 128,-1,25
 517 280 517 280 517 272 c 2,26,-1
 517 191 l 1,27,-1
 551 241 l 2,28,29
 557 250 557 250 566.5 250 c 128,-1,30
 576 250 576 250 583 243 c 2,31,-1
 681 124 l 1,32,-1
 712 171 l 2,33,34
 718 180 718 180 729 180 c 0,35,36
 737 180 737 180 742 174 c 0,37,38
 749 168 749 168 749 160 c 0,39,40
 749 156 749 156 744 149 c 2,41,-1
 651 9 l 2,42,43
 645 0 645 0 635.5 0 c 128,-1,44
 626 0 626 0 619 7 c 2,45,-1
 521 126 l 1,46,-1
 517 119 l 1,47,-1
 517 -22 l 2,48,49
 517 -30 517 -30 511 -36 c 128,-1,50
 505 -42 505 -42 496 -42 c 0,51,52
 488 -42 488 -42 482.5 -36 c 128,-1,53
 477 -30 477 -30 477 -22 c 2,54,-1
 477 59 l 1,55,-1
 443 9 l 2,56,57
 437 0 437 0 427 0 c 0,58,59
 418 0 418 0 411 7 c 2,60,-1
 312 126 l 1,61,-1
 234 9 l 2,62,63
 228 0 228 0 218.5 0 c 128,-1,64
 209 0 209 0 202 7 c 2,65,-1
 104 126 l 1,66,-1
 73 79 l 2,67,68
 40 30 40 30 40 -35 c 0,69,70
 40 -69 40 -69 49 -95.5 c 128,-1,71
 58 -122 58 -122 67 -141 c 0,72,73
 76 -156 76 -156 76 -160 c 0,74,75
 76 -168 76 -168 70.5 -174 c 128,-1,76
 65 -180 65 -180 57 -180 c 0,0,1
EndSplineSet
Validated: 1
EndChar

StartChar: uniE189
Encoding: 57737 57737 37
Width: 667
GlyphClass: 2
Flags: W
LayerCount: 2
Fore
SplineSet
692 -180 m 0,0,1
 684 -180 684 -180 678.5 -174 c 128,-1,2
 673 -168 673 -168 673 -160 c 0,3,4
 673 -156 673 -156 682 -141 c 1,5,6
 692 -120 692 -120 699 -96 c 1,7,8
 709 -71 709 -71 709 -35 c 0,9,10
 709 30 709 30 676 79 c 2,11,-1
 645 126 l 1,12,-1
 547 7 l 2,13,14
 541 0 541 0 531 0 c 0,15,16
 520 0 520 0 515 9 c 2,17,-1
 437 126 l 1,18,-1
 338 7 l 2,19,20
 332 0 332 0 322 0 c 0,21,22
 311 0 311 0 306 9 c 2,23,-1
 228 126 l 1,24,-1
 130 7 l 2,25,26
 124 0 124 0 113 0 c 0,27,28
 103 0 103 0 98 9 c 2,29,-1
 5 149 l 2,30,31
 3 152 3 152 0 160 c 1,32,33
 0 168 0 168 6 174 c 1,34,35
 14 180 14 180 21 180 c 0,36,37
 32 180 32 180 37 171 c 2,38,-1
 68 124 l 1,39,-1
 166 243 l 2,40,41
 172 250 172 250 182 250 c 0,42,43
 193 250 193 250 198 241 c 2,44,-1
 276 124 l 1,45,-1
 375 243 l 2,46,47
 381 250 381 250 391 250 c 0,48,49
 402 250 402 250 407 241 c 2,50,-1
 485 124 l 1,51,-1
 583 243 l 2,52,53
 589 250 589 250 599 250 c 0,54,55
 610 250 610 250 615 241 c 2,56,-1
 708 101 l 2,57,58
 749 39 749 39 749 -35 c 0,59,60
 749 -80 749 -80 730 -131 c 1,61,62
 710 -180 710 -180 692 -180 c 0,0,1
EndSplineSet
Validated: 1
EndChar

StartChar: uniE18A
Encoding: 57738 57738 38
Width: 704
GlyphClass: 2
Flags: W
LayerCount: 2
Fore
SplineSet
0 215 m 0,0,1
 0 262 0 262 20 312 c 0,2,3
 39 360 39 360 57 360 c 0,4,5
 69 360 69 360 74 350 c 0,6,7
 76 346 76 346 76 340 c 128,-1,8
 76 334 76 334 73 329 c 0,9,10
 40 280 40 280 40 215 c 0,11,12
 40 167 40 167 59 129 c 1,13,-1
 134 241 l 2,14,15
 140 250 140 250 150 250 c 0,16,17
 159 250 159 250 166 243 c 2,18,-1
 264 124 l 1,19,-1
 342 241 l 2,20,21
 348 250 348 250 358 250 c 0,22,23
 367 250 367 250 374 243 c 2,24,-1
 473 124 l 1,25,-1
 551 241 l 2,26,27
 557 250 557 250 566.5 250 c 128,-1,28
 576 250 576 250 583 243 c 2,29,-1
 681 124 l 1,30,-1
 712 171 l 2,31,32
 718 180 718 180 729 180 c 0,33,34
 737 180 737 180 742 174 c 0,35,36
 749 168 749 168 749 160 c 0,37,38
 749 156 749 156 744 149 c 2,39,-1
 651 9 l 2,40,41
 645 0 645 0 635.5 0 c 128,-1,42
 626 0 626 0 619 7 c 2,43,-1
 521 126 l 1,44,-1
 443 9 l 2,45,46
 437 0 437 0 427 0 c 0,47,48
 418 0 418 0 411 7 c 2,49,-1
 312 126 l 1,50,-1
 234 9 l 2,51,52
 228 0 228 0 218.5 0 c 128,-1,53
 209 0 209 0 202 7 c 2,54,-1
 104 126 l 1,55,-1
 73 79 l 2,56,57
 67 70 67 70 57 70 c 0,58,59
 38 70 38 70 19 119 c 0,60,61
 0 168 0 168 0 215 c 0,0,1
EndSplineSet
Validated: 1
EndChar

StartChar: uniE18B
Encoding: 57739 57739 39
Width: 704
GlyphClass: 2
Flags: W
LayerCount: 2
Fore
SplineSet
0 215 m 0,0,1
 0 262 0 262 20 312 c 0,2,3
 39 360 39 360 57 360 c 0,4,5
 69 360 69 360 74 350 c 0,6,7
 76 346 76 346 76 340 c 128,-1,8
 76 334 76 334 73 329 c 0,9,10
 40 280 40 280 40 215 c 0,11,12
 40 167 40 167 59 129 c 1,13,-1
 134 241 l 2,14,15
 140 250 140 250 150 250 c 0,16,17
 159 250 159 250 166 243 c 2,18,-1
 264 124 l 1,19,-1
 342 241 l 2,20,21
 348 250 348 250 358 250 c 0,22,23
 367 250 367 250 374 243 c 2,24,-1
 473 124 l 1,25,-1
 477 131 l 1,26,-1
 477 272 l 2,27,28
 477 280 477 280 482.5 286 c 128,-1,29
 488 292 488 292 496 292 c 0,30,31
 505 292 505 292 511 286 c 128,-1,32
 517 280 517 280 517 272 c 2,33,-1
 517 191 l 1,34,-1
 551 241 l 2,35,36
 557 250 557 250 566.5 250 c 128,-1,37
 576 250 576 250 583 243 c 2,38,-1
 681 124 l 1,39,-1
 712 171 l 2,40,41
 718 180 718 180 729 180 c 0,42,43
 737 180 737 180 742 174 c 0,44,45
 749 168 749 168 749 160 c 0,46,47
 749 156 749 156 744 149 c 2,48,-1
 651 9 l 2,49,50
 645 0 645 0 635.5 0 c 128,-1,51
 626 0 626 0 619 7 c 2,52,-1
 521 126 l 1,53,-1
 517 119 l 1,54,-1
 517 -22 l 2,55,56
 517 -30 517 -30 511 -36 c 128,-1,57
 505 -42 505 -42 496 -42 c 0,58,59
 488 -42 488 -42 482.5 -36 c 128,-1,60
 477 -30 477 -30 477 -22 c 2,61,-1
 477 59 l 1,62,-1
 443 9 l 2,63,64
 437 0 437 0 427 0 c 0,65,66
 418 0 418 0 411 7 c 2,67,-1
 312 126 l 1,68,-1
 234 9 l 2,69,70
 228 0 228 0 218.5 0 c 128,-1,71
 209 0 209 0 202 7 c 2,72,-1
 104 126 l 1,73,-1
 73 79 l 2,74,75
 67 70 67 70 57 70 c 0,76,77
 38 70 38 70 19 119 c 0,78,79
 0 168 0 168 0 215 c 0,0,1
EndSplineSet
Validated: 1
EndChar

StartChar: uniE18C
Encoding: 57740 57740 40
Width: 667
GlyphClass: 2
Flags: W
LayerCount: 2
Fore
SplineSet
749 215 m 0,0,1
 749 168 749 168 730 119 c 0,2,3
 712 70 712 70 692 70 c 0,4,5
 681 70 681 70 676 79 c 2,6,-1
 645 126 l 1,7,-1
 547 7 l 2,8,9
 541 0 541 0 531 0 c 0,10,11
 520 0 520 0 515 9 c 2,12,-1
 437 126 l 1,13,-1
 338 7 l 2,14,15
 332 0 332 0 322 0 c 0,16,17
 311 0 311 0 306 9 c 2,18,-1
 228 126 l 1,19,-1
 130 7 l 2,20,21
 124 0 124 0 113 0 c 0,22,23
 103 0 103 0 98 9 c 2,24,-1
 5 149 l 2,25,26
 3 152 3 152 0 160 c 1,27,28
 0 168 0 168 6 174 c 1,29,30
 14 180 14 180 21 180 c 0,31,32
 32 180 32 180 37 171 c 2,33,-1
 68 124 l 1,34,-1
 166 243 l 2,35,36
 172 250 172 250 182 250 c 0,37,38
 193 250 193 250 198 241 c 2,39,-1
 276 124 l 1,40,-1
 375 243 l 2,41,42
 381 250 381 250 391 250 c 0,43,44
 402 250 402 250 407 241 c 2,45,-1
 485 124 l 1,46,-1
 583 243 l 2,47,48
 589 250 589 250 599 250 c 0,49,50
 610 250 610 250 615 241 c 2,51,-1
 690 129 l 1,52,53
 709 167 709 167 709 215 c 0,54,55
 709 280 709 280 676 329 c 0,56,57
 673 334 673 334 673 340 c 128,-1,58
 673 346 673 346 676 350 c 1,59,60
 681 361 681 361 692 360 c 0,61,62
 711 360 711 360 729 312 c 0,63,64
 749 262 749 262 749 215 c 0,0,1
EndSplineSet
Validated: 1
EndChar

StartChar: uniE18D
Encoding: 57741 57741 41
Width: 667
GlyphClass: 2
Flags: W
LayerCount: 2
Fore
SplineSet
676 171 m 2,0,1
 682 180 682 180 692 180 c 0,2,3
 699 180 699 180 707 174 c 1,4,5
 713 168 713 168 713 160 c 0,6,7
 713 156 713 156 708 149 c 2,8,-1
 615 9 l 2,9,10
 609 0 609 0 599 0 c 0,11,12
 590 0 590 0 583 7 c 2,13,-1
 485 126 l 1,14,-1
 407 9 l 2,15,16
 401 0 401 0 391 0 c 0,17,18
 382 0 382 0 375 7 c 2,19,-1
 276 126 l 1,20,-1
 198 9 l 2,21,22
 192 0 192 0 182.5 0 c 128,-1,23
 173 0 173 0 166 7 c 2,24,-1
 68 126 l 1,25,-1
 37 79 l 2,26,27
 31 70 31 70 21 70 c 0,28,29
 14 70 14 70 6 76 c 1,30,31
 0 82 0 82 0 90 c 2,32,-1
 0 590 l 2,33,34
 0 598 0 598 6 604 c 0,35,36
 13 611 13 611 20.5 610.5 c 128,-1,37
 28 610 28 610 34 604 c 0,38,39
 40 598 40 598 40 590 c 2,40,-1
 40 156 l 1,41,-1
 98 241 l 2,42,43
 104 250 104 250 114 250 c 0,44,45
 123 250 123 250 130 243 c 2,46,-1
 228 124 l 1,47,-1
 306 241 l 2,48,49
 312 250 312 250 322 250 c 0,50,51
 331 250 331 250 338 243 c 2,52,-1
 437 124 l 1,53,-1
 515 241 l 2,54,55
 521 250 521 250 530.5 250 c 128,-1,56
 540 250 540 250 547 243 c 2,57,-1
 645 124 l 1,58,-1
 676 171 l 2,0,1
EndSplineSet
Validated: 1
EndChar

StartChar: uniE1B0
Encoding: 57776 57776 42
Width: 458
GlyphClass: 2
Flags: W
HStem: 0 21G<178 188 386 396> 524 22<667.216 760.997>
LayerCount: 2
Fore
SplineSet
562 349 m 0,0,1
 536 212 536 212 486 126 c 1,2,-1
 407 9 l 2,3,4
 401 0 401 0 391 0 c 128,-1,5
 381 0 381 0 375 7 c 2,6,-1
 277 126 l 1,7,-1
 199 9 l 2,8,9
 193 0 193 0 183 0 c 128,-1,10
 173 0 173 0 167 7 c 2,11,-1
 68 126 l 1,12,-1
 37 79 l 2,13,14
 31 70 31 70 21 70 c 0,15,16
 12 70 12 70 6.5 76 c 128,-1,17
 1 82 1 82 1 89 c 256,18,19
 1 96 1 96 4 101 c 2,20,-1
 97 241 l 2,21,22
 103 250 103 250 113 250 c 128,-1,23
 123 250 123 250 129 243 c 2,24,-1
 227 124 l 1,25,-1
 305 241 l 2,26,27
 311 250 311 250 321 250 c 128,-1,28
 331 250 331 250 337 243 c 2,29,-1
 436 124 l 1,30,31
 496 217 496 217 530 383 c 0,32,33
 547 457 547 457 598 508 c 0,34,35
 636 546 636 546 748 546 c 0,36,37
 761 546 761 546 761 535 c 128,-1,38
 761 524 761 524 748 524 c 0,39,40
 656 524 656 524 617 485 c 0,41,42
 581 449 581 449 562 349 c 0,0,1
EndSplineSet
Validated: 1
EndChar

StartChar: uniE1B1
Encoding: 57777 57777 43
Width: 266
GlyphClass: 2
Flags: W
LayerCount: 2
Fore
SplineSet
266 260 m 0,0,1
 266 154 266 154 188 76 c 24,2,3
 112 0 112 0 0 0 c 128,-1,4
 -112 0 -112 0 -188 76 c 0,5,6
 -266 154 -266 154 -266 261 c 0,7,8
 -266 369 -266 369 -188 447 c 0,9,10
 -112 523 -112 523 0 523 c 128,-1,11
 112 523 112 523 188 447 c 0,12,13
 266 369 266 369 266 260 c 0,0,1
233 250 m 1,14,-1
 -233 250 l 1,15,16
 -228 156 -228 156 -161 90 c 152,-1,17
 -94 24 -94 24 0 24 c 0,18,19
 91 24 91 24 161 90 c 8,20,21
 229 155 229 155 233 250 c 1,14,-1
-233 273 m 1,22,-1
 233 273 l 1,23,24
 228 367 228 367 161 434 c 24,25,26
 95 500 95 500 0 500 c 128,-1,27
 -95 500 -95 500 -161 434 c 24,28,29
 -229 367 -229 367 -233 273 c 1,22,-1
EndSplineSet
Validated: 1
EndChar

StartChar: uniE1B2
Encoding: 57778 57778 44
Width: 346
GlyphClass: 2
Flags: W
HStem: -112 43<44 304> 69 43<44 304>
VStem: 0 44<-69 69> 304 43<-69 69>
LayerCount: 2
Fore
SplineSet
44 69 m 1,0,-1
 44 -69 l 1,1,-1
 304 -69 l 1,2,-1
 304 69 l 1,3,-1
 44 69 l 1,0,-1
22 112 m 2,4,-1
 326 112 l 2,5,6
 335 112 335 112 341 105 c 0,7,8
 347 99 347 99 347 91 c 2,9,-1
 347 -91 l 2,10,11
 347 -100 347 -100 341 -105 c 0,12,13
 335 -112 335 -112 326 -112 c 2,14,-1
 22 -112 l 2,15,16
 13 -112 13 -112 7 -105 c 0,17,18
 0 -99 0 -99 0 -91 c 2,19,-1
 0 91 l 2,20,21
 0 100 0 100 7 105 c 0,22,23
 13 112 13 112 22 112 c 2,4,-1
EndSplineSet
Validated: 1
EndChar

StartChar: uniE1B3
Encoding: 57779 57779 45
Width: 328
GlyphClass: 2
Flags: W
HStem: -112 224<7e-08 329>
VStem: 0 329<-112 112>
LayerCount: 2
Fore
SplineSet
22 112 m 2,0,-1
 307 112 l 2,1,2
 316 112 316 112 322 105 c 0,3,4
 329 99 329 99 329 91 c 2,5,-1
 329 -91 l 2,6,7
 329 -100 329 -100 322 -105 c 1,8,9
 316 -112 316 -112 307 -112 c 2,10,-1
 22 -112 l 2,11,12
 13 -112 13 -112 7 -105 c 0,13,14
 0 -99 0 -99 0 -91 c 2,15,-1
 0 91 l 2,16,17
 0 100 0 100 7 105 c 0,18,19
 13 112 13 112 22 112 c 2,0,-1
EndSplineSet
Validated: 1
EndChar

StartChar: uniE1B4
Encoding: 57780 57780 46
Width: 346
GlyphClass: 2
Flags: W
HStem: -112 43<44 246>
VStem: 0 44<-69 52>
LayerCount: 2
Fore
SplineSet
246 -69 m 1,0,-1
 44 52 l 1,1,-1
 44 -69 l 1,2,-1
 246 -69 l 1,0,-1
347 -89 m 128,-1,4
 347 -100 347 -100 341 -105 c 0,5,6
 335 -112 335 -112 326 -112 c 2,7,-1
 22 -112 l 2,8,9
 13 -112 13 -112 7 -105 c 0,10,11
 0 -99 0 -99 0 -91 c 2,12,-1
 0 91 l 2,13,14
 0 100 0 100 6 105 c 0,15,16
 13 112 13 112 22 112 c 0,17,18
 28 112 28 112 39 105 c 2,19,-1
 332 -69 l 2,20,3
 347 -78 347 -78 347 -89 c 128,-1,4
EndSplineSet
Validated: 1
EndChar

StartChar: uniE1B5
Encoding: 57781 57781 47
Width: 328
GlyphClass: 2
Flags: W
HStem: -112 224<7e-08 60.7188>
VStem: 0 329<-112 -66.3438>
LayerCount: 2
Fore
SplineSet
329 -91 m 0,0,1
 329 -100 329 -100 322 -105 c 1,2,3
 316 -112 316 -112 307 -112 c 2,4,-1
 22 -112 l 2,5,6
 13 -112 13 -112 7 -105 c 0,7,8
 0 -99 0 -99 0 -91 c 2,9,-1
 0 91 l 2,10,11
 0 100 0 100 6 105 c 0,12,13
 13 112 13 112 22 112 c 0,14,15
 28 112 28 112 34 109 c 2,16,-1
 319 -72 l 2,17,18
 329 -79 329 -79 329 -91 c 0,0,1
EndSplineSet
Validated: 1
EndChar

StartChar: uniE1B6
Encoding: 57782 57782 48
Width: 346
GlyphClass: 2
Flags: W
HStem: 69 43<101 304>
VStem: 304 43<-52 69>
LayerCount: 2
Fore
SplineSet
101 69 m 1,0,-1
 304 -52 l 1,1,-1
 304 69 l 1,2,-1
 101 69 l 1,0,-1
0 91 m 0,3,4
 0 100 0 100 6 105 c 0,5,6
 13 112 13 112 22 112 c 2,7,-1
 326 112 l 2,8,9
 335 112 335 112 341 105 c 0,10,11
 347 99 347 99 347 91 c 2,12,-1
 347 -91 l 2,13,14
 347 -100 347 -100 341 -105 c 0,15,16
 335 -112 335 -112 326 -112 c 0,17,18
 318 -112 318 -112 314 -109 c 2,19,-1
 11 72 l 2,20,21
 0 78 0 78 0 91 c 0,3,4
EndSplineSet
Validated: 1
EndChar

StartChar: uniE1B7
Encoding: 57783 57783 49
Width: 328
GlyphClass: 2
Flags: W
HStem: -112 224<268.281 329>
VStem: 0 329<66.3438 112>
LayerCount: 2
Fore
SplineSet
0 91 m 0,0,1
 0 100 0 100 6 105 c 0,2,3
 13 112 13 112 22 112 c 2,4,-1
 307 112 l 2,5,6
 316 112 316 112 322 105 c 0,7,8
 329 99 329 99 329 91 c 2,9,-1
 329 -91 l 2,10,11
 329 -100 329 -100 322 -105 c 1,12,13
 316 -112 316 -112 307 -112 c 0,14,15
 301 -112 301 -112 295 -109 c 2,16,-1
 10 72 l 2,17,18
 0 79 0 79 0 91 c 0,0,1
EndSplineSet
Validated: 1
EndChar

StartChar: uniE1B8
Encoding: 57784 57784 50
Width: 328
GlyphClass: 2
Flags: W
HStem: -112 224<159 170>
VStem: 0 329<-11 11>
LayerCount: 2
Fore
SplineSet
73 6 m 1,0,-1
 175 -58 l 1,1,-1
 256 -6 l 1,2,-1
 154 58 l 1,3,-1
 73 6 l 1,0,-1
10 -18 m 2,4,5
 0 -11 0 -11 0 0 c 128,-1,6
 0 11 0 11 10 18 c 2,7,-1
 153 109 l 2,8,9
 159 112 159 112 165 112 c 0,10,11
 170 112 170 112 176 109 c 2,12,-1
 319 18 l 2,13,14
 329 11 329 11 329 0 c 128,-1,15
 329 -11 329 -11 319 -18 c 2,16,-1
 176 -109 l 2,17,18
 170 -112 170 -112 165 -112 c 0,19,20
 159 -112 159 -112 153 -109 c 2,21,-1
 10 -18 l 2,4,5
EndSplineSet
Validated: 1
EndChar

StartChar: uniE1B9
Encoding: 57785 57785 51
Width: 328
GlyphClass: 2
Flags: W
HStem: -112 224<123.953 205.047>
VStem: 0 329<-25.1094 25.1094>
LayerCount: 2
Fore
SplineSet
10 -18 m 2,0,1
 0 -11 0 -11 0 0 c 128,-1,2
 0 11 0 11 10 18 c 2,3,-1
 153 109 l 2,4,5
 159 112 159 112 165 112 c 0,6,7
 170 112 170 112 176 109 c 2,8,-1
 319 18 l 2,9,10
 329 11 329 11 329 0 c 128,-1,11
 329 -11 329 -11 319 -18 c 2,12,-1
 176 -109 l 2,13,14
 170 -112 170 -112 165 -112 c 0,15,16
 159 -112 159 -112 153 -109 c 2,17,-1
 10 -18 l 2,0,1
EndSplineSet
Validated: 1
EndChar

StartChar: uniE1BA
Encoding: 57786 57786 52
Width: 346
GlyphClass: 2
Flags: W
HStem: -112 43<69 279>
LayerCount: 2
Fore
SplineSet
69 -69 m 1,0,-1
 279 -69 l 1,1,-1
 174 57 l 1,2,-1
 69 -69 l 1,0,-1
22 -112 m 2,3,4
 13 -112 13 -112 7 -105 c 0,5,6
 0 -99 0 -99 0 -91 c 0,7,8
 0 -85 0 -85 5 -77 c 1,9,-1
 157 105 l 2,10,11
 163 113 163 113 174 113 c 0,12,13
 184 113 184 113 191 105 c 1,14,-1
 342 -77 l 1,15,16
 347 -85 347 -85 347 -91 c 0,17,18
 347 -100 347 -100 341 -105 c 0,19,20
 335 -112 335 -112 326 -112 c 2,21,-1
 22 -112 l 2,3,4
EndSplineSet
Validated: 1
EndChar

StartChar: uniE1C4
Encoding: 57796 57796 53
Width: 444
GlyphClass: 2
Flags: W
LayerCount: 2
Fore
SplineSet
396 128 m 1,0,-1
 396 951 l 2,1,2
 396 976 396 976 420 976 c 128,-1,3
 444 976 444 976 444 951 c 2,4,-1
 444 -200 l 2,5,6
 444 -225 444 -225 420 -225 c 128,-1,7
 396 -225 396 -225 396 -200 c 2,8,-1
 396 -128 l 1,9,-1
 48 -128 l 1,10,-1
 48 -200 l 2,11,12
 48 -225 48 -225 24 -225 c 128,-1,13
 0 -225 0 -225 0 -200 c 2,14,-1
 0 200 l 2,15,16
 0 225 0 225 24 225 c 128,-1,17
 48 225 48 225 48 200 c 2,18,-1
 48 128 l 1,19,-1
 396 128 l 1,0,-1
48 50 m 1,20,-1
 48 -50 l 1,21,-1
 396 -50 l 1,22,-1
 396 50 l 1,23,-1
 48 50 l 1,20,-1
EndSplineSet
Validated: 1
EndChar

StartChar: uniE1C5
Encoding: 57797 57797 54
Width: 444
GlyphClass: 2
Flags: W
LayerCount: 2
Fore
SplineSet
396 128 m 1,0,-1
 396 200 l 2,1,2
 396 225 396 225 420 225 c 128,-1,3
 444 225 444 225 444 200 c 2,4,-1
 444 -200 l 2,5,6
 444 -225 444 -225 420 -225 c 128,-1,7
 396 -225 396 -225 396 -200 c 2,8,-1
 396 -128 l 1,9,-1
 48 -128 l 1,10,-1
 48 -951 l 2,11,12
 48 -976 48 -976 24 -976 c 128,-1,13
 0 -976 0 -976 0 -951 c 2,14,-1
 0 200 l 2,15,16
 0 225 0 225 24 225 c 128,-1,17
 48 225 48 225 48 200 c 6,18,-1
 48 128 l 1,19,-1
 396 128 l 1,0,-1
48 50 m 1,20,-1
 48 -50 l 1,21,-1
 396 -50 l 1,22,-1
 396 50 l 1,23,-1
 48 50 l 1,20,-1
EndSplineSet
Validated: 1
EndChar

StartChar: uniE1C7
Encoding: 57799 57799 55
Width: 338
GlyphClass: 2
Flags: W
LayerCount: 2
Fore
SplineSet
308 63 m 0,0,1
 308 80 308 80 295 92 c 0,2,3
 281 104 281 104 267 104 c 0,4,5
 258 104 258 104 255 103 c 0,6,7
 230 96 230 96 144 40 c 0,8,9
 59 -15 59 -15 42 -36 c 0,10,11
 31 -50 31 -50 31 -63 c 0,12,13
 31 -80 31 -80 44 -92 c 128,-1,14
 57 -104 57 -104 72 -104 c 0,15,16
 81 -104 81 -104 84 -103 c 0,17,18
 114 -94 114 -94 196 -40 c 0,19,20
 281 15 281 15 298 36 c 1,21,22
 308 45 308 45 308 63 c 0,0,1
258 134 m 0,23,24
 296 134 296 134 316 116 c 1,25,26
 338 99 338 99 339 63 c 0,27,28
 339 38 339 38 329 9 c 0,29,30
 307 -57 307 -57 266 -85 c 0,31,32
 192 -135 192 -135 82 -135 c 0,33,34
 45 -135 45 -135 23 -117 c 0,35,36
 0 -97 0 -97 0 -63 c 0,37,38
 0 -43 0 -43 11 -9 c 1,39,40
 33 57 33 57 73 85 c 0,41,42
 148 134 148 134 258 134 c 0,23,24
EndSplineSet
Validated: 1
EndChar

StartChar: uniE1C8
Encoding: 57800 57800 56
Width: 338
GlyphClass: 2
Flags: W
LayerCount: 2
Fore
SplineSet
308 63 m 0,0,1
 308 80 308 80 295 92 c 0,2,3
 281 104 281 104 267 104 c 0,4,5
 258 104 258 104 255 103 c 0,6,7
 230 96 230 96 144 40 c 0,8,9
 59 -15 59 -15 42 -36 c 0,10,11
 31 -50 31 -50 31 -63 c 0,12,13
 31 -80 31 -80 44 -92 c 128,-1,14
 57 -104 57 -104 72 -104 c 0,15,16
 81 -104 81 -104 84 -103 c 0,17,18
 114 -94 114 -94 196 -40 c 0,19,20
 281 15 281 15 298 36 c 1,21,22
 308 45 308 45 308 63 c 0,0,1
258 134 m 0,23,24
 296 134 296 134 316 116 c 1,25,26
 338 99 338 99 339 63 c 0,27,28
 339 38 339 38 329 9 c 0,29,30
 307 -57 307 -57 266 -85 c 0,31,32
 192 -135 192 -135 82 -135 c 0,33,34
 45 -135 45 -135 23 -117 c 0,35,36
 0 -97 0 -97 0 -63 c 0,37,38
 0 -43 0 -43 11 -9 c 1,39,40
 33 57 33 57 73 85 c 0,41,42
 148 134 148 134 258 134 c 0,23,24
EndSplineSet
Validated: 1
EndChar

StartChar: uniE1C9
Encoding: 57801 57801 57
Width: 338
GlyphClass: 2
Flags: W
LayerCount: 2
Fore
SplineSet
258 134 m 0,0,1
 296 134 296 134 316 116 c 1,2,3
 338 99 338 99 339 63 c 0,4,5
 339 38 339 38 329 9 c 0,6,7
 307 -57 307 -57 266 -85 c 0,8,9
 192 -135 192 -135 82 -135 c 0,10,11
 45 -135 45 -135 23 -117 c 0,12,13
 0 -97 0 -97 0 -63 c 0,14,15
 0 -43 0 -43 11 -9 c 1,16,17
 33 57 33 57 73 85 c 0,18,19
 148 134 148 134 258 134 c 0,0,1
EndSplineSet
Validated: 1
EndChar

StartChar: uniE1CA
Encoding: 57802 57802 58
Width: 0
GlyphClass: 2
Flags: W
LayerCount: 2
Fore
SplineSet
0 281 m 0,0,1
 0 275 0 275 -4 271 c 2,2,-1
 -191 8 l 2,3,4
 -197 0 -197 0 -206 0 c 128,-1,5
 -215 0 -215 0 -219 6 c 1,6,7
 -225 10 -225 10 -225 19 c 0,8,9
 -225 25 -225 25 -221 29 c 2,10,-1
 -41 281 l 1,11,-1
 -221 532 l 2,12,13
 -225 537 -225 537 -225 543 c 0,14,15
 -225 551 -225 551 -219 557 c 0,16,17
 -214 562 -214 562 -206 562 c 0,18,19
 -197 562 -197 562 -191 554 c 2,20,-1
 -4 291 l 2,21,22
 0 286 0 286 0 281 c 0,0,1
EndSplineSet
Validated: 1
EndChar

StartChar: uniE1D1
Encoding: 57809 57809 59
Width: 444
GlyphClass: 2
Flags: W
LayerCount: 2
Fore
SplineSet
396 128 m 1,0,-1
 396 200 l 2,1,2
 396 225 396 225 420 225 c 128,-1,3
 444 225 444 225 444 200 c 2,4,-1
 444 -200 l 2,5,6
 444 -225 444 -225 420 -225 c 128,-1,7
 396 -225 396 -225 396 -200 c 2,8,-1
 396 -128 l 1,9,-1
 48 -128 l 1,10,-1
 48 -200 l 2,11,12
 48 -225 48 -225 24 -225 c 128,-1,13
 0 -225 0 -225 0 -200 c 2,14,-1
 0 200 l 2,15,16
 0 225 0 225 24 225 c 128,-1,17
 48 225 48 225 48 200 c 2,18,-1
 48 128 l 1,19,-1
 396 128 l 1,0,-1
48 50 m 1,20,-1
 48 -50 l 1,21,-1
 396 -50 l 1,22,-1
 396 50 l 1,23,-1
 48 50 l 1,20,-1
EndSplineSet
Validated: 1
EndChar

StartChar: uniE1D2
Encoding: 57810 57810 60
Width: 496
GlyphClass: 2
Flags: W
HStem: 289 26<225.633 319.812> 539 26<175.014 271.685>
VStem: 0 146<376.223 485.012> 349 146<367.979 477.777>
LayerCount: 2
Fore
SplineSet
215 539 m 0,0,1
 183 539 183 539 164 515 c 24,2,3
 146 492 146 492 146 451 c 0,4,5
 146 405 146 405 171 372 c 0,6,7
 194 341 194 341 225 327 c 24,8,9
 251 315 251 315 280 315 c 0,10,11
 314 315 314 315 332 339 c 0,12,13
 349 362 349 362 349 403 c 0,14,15
 349 449 349 449 324 482 c 24,16,17
 297 516 297 516 271 527 c 0,18,19
 243 539 243 539 215 539 c 0,0,1
248 565 m 128,-1,21
 349 565 349 565 422.5 524.5 c 128,-1,22
 496 484 496 484 496 427 c 128,-1,23
 496 370 496 370 422.5 329.5 c 152,-1,24
 349 289 349 289 248 289 c 0,25,26
 146 289 146 289 72 330 c 256,27,28
 0 370 0 370 0 427 c 128,-1,29
 -0 484 -0 484 74 525 c 24,30,31
 147 565 147 565 248 565 c 128,-1,21
EndSplineSet
Validated: 1
EndChar

StartChar: uniE4A0
Encoding: 58528 58528 61
Width: 449
GlyphClass: 2
Flags: W
HStem: 0 21G<6.5 15>
LayerCount: 2
Fore
SplineSet
449 126 m 128,-1,1
 449 107 449 107 431 107 c 1,2,-1
 19 1 l 2,3,4
 17 0 17 0 13 0 c 0,5,6
 0 0 0 0 0 20 c 0,7,8
 0 36 0 36 14 38 c 2,9,-1
 265 103 l 1,10,-1
 404 126 l 1,11,-1
 265 149 l 1,12,-1
 14 214 l 2,13,14
 0 217 0 217 0 232 c 0,15,16
 0 252 0 252 13 252 c 0,17,18
 17 252 17 252 19 251 c 2,19,-1
 431 145 l 1,20,0
 449 145 449 145 449 126 c 128,-1,1
EndSplineSet
Validated: 1
EndChar

StartChar: uniE4A1
Encoding: 58529 58529 62
Width: 449
GlyphClass: 2
Flags: W
HStem: -20 20G<6.5 15>
LayerCount: 2
Fore
SplineSet
449 -126 m 128,-1,1
 449 -145 449 -145 431 -145 c 1,2,-1
 19 -251 l 2,3,4
 17 -252 17 -252 13 -252 c 0,5,6
 0 -252 0 -252 0 -232 c 0,7,8
 0 -216 0 -216 14 -214 c 2,9,-1
 265 -149 l 1,10,-1
 404 -126 l 1,11,-1
 265 -103 l 1,12,-1
 14 -38 l 2,13,14
 0 -35 0 -35 0 -20 c 0,15,16
 0 0 0 0 13 0 c 0,17,18
 17 0 17 0 19 -1 c 2,19,-1
 431 -107 l 1,20,0
 449 -107 449 -107 449 -126 c 128,-1,1
EndSplineSet
Validated: 1
EndChar

StartChar: uniE4A2
Encoding: 58530 58530 63
Width: 99
GlyphClass: 2
Flags: W
HStem: 0 100<14.9546 84.5299>
VStem: 0 100<14.9546 84.5299>
LayerCount: 2
Fore
SplineSet
0 49.5 m 128,-1,1
 0 70 0 70 14.5 85 c 128,-1,2
 29 100 29 100 49.5 100 c 128,-1,3
 70 100 70 100 85 85 c 128,-1,4
 100 70 100 70 100 49.5 c 128,-1,5
 100 29 100 29 85 14.5 c 128,-1,6
 70 0 70 0 49.5 0 c 128,-1,7
 29 0 29 0 14.5 14.5 c 128,-1,0
 0 29 0 29 0 49.5 c 128,-1,1
EndSplineSet
Validated: 1
EndChar

StartChar: uniE4A3
Encoding: 58531 58531 64
Width: 99
GlyphClass: 2
Flags: W
HStem: -100 100<14.9546 84.5299>
VStem: 0 100<-84.5299 -14.9546>
LayerCount: 2
Fore
SplineSet
0 -49.5 m 128,-1,1
 0 -29 0 -29 14.5 -14.5 c 128,-1,2
 29 0 29 0 49.5 0 c 128,-1,3
 70 0 70 0 85 -14.5 c 128,-1,4
 100 -29 100 -29 100 -49.5 c 128,-1,5
 100 -70 100 -70 85 -85 c 128,-1,6
 70 -100 70 -100 49.5 -100 c 128,-1,7
 29 -100 29 -100 14.5 -85 c 128,-1,0
 0 -70 0 -70 0 -49.5 c 128,-1,1
EndSplineSet
Validated: 1
EndChar

StartChar: uniE4A4
Encoding: 58532 58532 65
Width: 300
GlyphClass: 2
Flags: W
HStem: 0 39<6.24976 294.75>
VStem: 0 301<6.18787 32.8121>
LayerCount: 2
Fore
SplineSet
280 0 m 2,0,-1
 21 0 l 2,1,2
 14 0 14 0 6 6 c 1,3,4
 0 12 0 12 0 19.5 c 128,-1,5
 0 27 0 27 6 33 c 1,6,7
 14 39 14 39 21 39 c 2,8,-1
 280 39 l 2,9,10
 287 39 287 39 295 33 c 1,11,12
 301 27 301 27 301 19.5 c 128,-1,13
 301 12 301 12 295 6 c 1,14,15
 287 0 287 0 280 0 c 2,0,-1
EndSplineSet
Validated: 1
EndChar

StartChar: uniE4A5
Encoding: 58533 58533 66
Width: 300
GlyphClass: 2
Flags: W
HStem: -39 39<6.24976 294.75>
VStem: 0 301<-32.8121 -6.18787>
LayerCount: 2
Fore
SplineSet
280 -39 m 2,0,-1
 21 -39 l 2,1,2
 14 -39 14 -39 6 -33 c 1,3,4
 0 -27 0 -27 0 -19.5 c 128,-1,5
 0 -12 0 -12 6 -6 c 1,6,7
 14 0 14 0 21 0 c 2,8,-1
 280 0 l 2,9,10
 287 0 287 0 295 -6 c 1,11,12
 301 -12 301 -12 301 -19.5 c 128,-1,13
 301 -27 301 -27 295 -33 c 1,14,15
 287 -39 287 -39 280 -39 c 2,0,-1
EndSplineSet
Validated: 1
EndChar

StartChar: uniE843
Encoding: 59459 59459 67
Width: 353
GlyphClass: 2
Flags: W
HStem: 0 21G<333.5 340> 163 30<0.0241699 52.2183>
LayerCount: 2
Fore
SplineSet
351 332 m 0,0,1
 319 284 319 284 164 219 c 0,2,3
 142 209 142 209 104 194.5 c 128,-1,4
 66 180 66 180 62 178 c 1,5,6
 133 152 133 152 164 138 c 0,7,8
 318 73 318 73 351 24 c 0,9,10
 354 19 354 19 354 16 c 0,11,12
 354 8 354 8 347 3 c 0,13,14
 342 0 342 0 338 0 c 0,15,16
 329 0 329 0 325 7 c 0,17,18
 297 48 297 48 152 108 c 0,19,20
 119 122 119 122 84.5 135.5 c 128,-1,21
 50 149 50 149 31 156 c 128,-1,22
 12 163 12 163 11 163 c 0,23,24
 0 166 0 166 0 179 c 0,25,26
 0 191 0 191 11 193 c 0,27,28
 12 193 12 193 31 200 c 128,-1,29
 50 207 50 207 84.5 220.5 c 128,-1,30
 119 234 119 234 152 248 c 0,31,32
 297 309 297 309 325 350 c 0,33,34
 330 357 330 357 338 356 c 0,35,36
 342 356 342 356 347 354 c 0,37,38
 354 349 354 349 354 341 c 0,39,40
 354 336 354 336 351 332 c 0,0,1
EndSplineSet
Validated: 1
EndChar

StartChar: uniE844
Encoding: 59460 59460 68
Width: 353
GlyphClass: 2
Flags: W
HStem: 0 21G<14 20> 163 30<301.672 353.976>
LayerCount: 2
Fore
SplineSet
3 332 m 0,0,1
 0 336 0 336 0 341 c 0,2,3
 0 349 0 349 7 354 c 0,4,5
 12 357 12 357 16 356 c 0,6,7
 24 356 24 356 28 350 c 0,8,9
 56 309 56 309 201 248 c 0,10,11
 234 234 234 234 269 220.5 c 128,-1,12
 304 207 304 207 323 200 c 128,-1,13
 342 193 342 193 343 193 c 0,14,15
 354 190 354 190 354 179 c 0,16,17
 354 166 354 166 343 163 c 0,18,19
 342 163 342 163 323 156 c 128,-1,20
 304 149 304 149 269 135.5 c 128,-1,21
 234 122 234 122 201 108 c 0,22,23
 56 47 56 47 28 7 c 0,24,25
 24 0 24 0 16 0 c 0,26,27
 12 0 12 0 7 3 c 0,28,29
 0 8 0 8 0 16 c 0,30,31
 0 20 0 20 3 24 c 0,32,33
 35 72 35 72 189 138 c 0,34,35
 220 152 220 152 292 178 c 1,36,37
 288 180 288 180 250 194.5 c 128,-1,38
 212 209 212 209 189 219 c 0,39,40
 35 284 35 284 3 332 c 0,0,1
EndSplineSet
Validated: 1
EndChar

StartChar: uniE522
Encoding: 58658 58658 69
Width: 591
Flags: W
LayerCount: 2
Fore
SplineSet
305 423 m 1,0,-1
 225 165 l 2,1,2
 180 21 180 21 86 -104 c 0,3,4
 -13 -235 -13 -235 -116 -235 c 0,5,6
 -170 -235 -170 -235 -211 -207 c 128,-1,7
 -252 -179 -252 -179 -252 -134 c 0,8,9
 -252 -83 -252 -83 -230 -48 c 0,10,11
 -207 -12 -207 -12 -170 -12 c 0,12,13
 -141 -12 -141 -12 -121.5 -33 c 128,-1,14
 -102 -54 -102 -54 -102 -81 c 0,15,16
 -102 -107 -102 -107 -130 -126 c 0,17,18
 -161 -147 -161 -147 -161 -168 c 0,19,20
 -161 -184 -161 -184 -118 -184 c 0,21,22
 -73 -184 -73 -184 -49 -147 c 0,23,24
 -23 -107 -23 -107 -7 -33 c 0,25,26
 -3 -13 -3 -13 -1 -6 c 2,27,-1
 106 423 l 1,28,-1
 23 423 l 2,29,30
 12 423 12 423 6 431 c 0,31,32
 0 441 0 441 0 450 c 0,33,34
 0 462 0 462 6 468 c 0,35,36
 14 476 14 476 23 476 c 2,37,-1
 121 476 l 1,38,39
 160 594 160 594 255 687 c 0,40,41
 348 778 348 778 455 778 c 0,42,43
 510 778 510 778 550 749 c 128,-1,44
 590 720 590 720 591 677 c 0,45,46
 591 629 591 629 570 592 c 1,47,48
 545 556 545 556 510 556 c 0,49,50
 481 556 481 556 461 576.5 c 128,-1,51
 441 597 441 597 441 624 c 0,52,53
 441 648 441 648 470.5 666.5 c 128,-1,54
 500 685 500 685 500 711 c 0,55,56
 500 729 500 729 455 729 c 8,57,58
 431 729 431 729 406 712 c 0,59,60
 390 701 390 701 370 666 c 24,61,62
 357 644 357 644 348 612 c 24,63,64
 346 605 346 605 334 540 c 0,65,66
 327 502 327 502 319 476 c 1,67,-1
 409 476 l 2,68,69
 420 476 420 476 428 468.5 c 128,-1,70
 436 461 436 461 436 450 c 128,-1,71
 436 439 436 439 428 431 c 128,-1,72
 420 423 420 423 409 423 c 2,73,-1
 305 423 l 1,0,-1
EndSplineSet
Validated: 1
EndChar

StartChar: uniE520
Encoding: 58656 58656 70
Width: 629
Flags: W
HStem: -217 25<-122.938 14.3025 180.016 270.974> -209 20<-107.586 15.5156> 32 28<261 332> 378 77<134.25 197.594 385.656 474.317>
VStem: 480 149<216.943 374.203>
DStem2: 22 -168 174 -161 0.327111 0.944986<56.3357 266.959>
LayerCount: 2
Fore
SplineSet
441 378 m 0,0,1
 397 378 397 378 362 331 c 0,2,3
 323 279 323 279 305 222 c 0,4,5
 287 164 287 164 287 121 c 0,6,7
 287 60 287 60 332 60 c 0,8,9
 372 60 372 60 401 91 c 0,10,11
 434 125 434 125 456 208 c 0,12,13
 480 294 480 294 480 328 c 0,14,15
 478 378 478 378 441 378 c 0,0,1
198 455 m 0,16,17
 238 455 238 455 269 433.5 c 128,-1,18
 300 412 300 412 308 375 c 1,19,20
 340 411 340 411 384 433 c 128,-1,21
 428 455 428 455 467 455 c 0,22,23
 544 455 544 455 587 406 c 0,24,25
 629 356 629 356 629 279 c 0,26,27
 629 151 629 151 540 70 c 1,28,29
 457 1 457 1 391 1 c 0,30,31
 351 1 351 1 326 9 c 1,32,33
 294 17 294 17 284 24 c 0,34,35
 270 32 270 32 261 32 c 0,36,37
 240 32 240 32 233 16 c 2,38,-1
 174 -161 l 1,39,-1
 174 -169 l 2,40,41
 174 -185 174 -185 198 -187 c 0,42,43
 206 -189 206 -189 222.5 -190.5 c 128,-1,44
 239 -192 239 -192 247 -192 c 0,45,46
 271 -196 271 -196 271 -205 c 0,47,48
 271 -217 271 -217 259 -217 c 0,49,50
 117 -209 117 -209 75 -209 c 0,51,52
 30 -209 30 -209 -112 -217 c 0,53,54
 -125 -217 -125 -217 -123 -205 c 0,55,56
 -123 -195 -123 -195 -102 -191 c 0,57,58
 -92 -189 -92 -189 -18 -189 c 0,59,60
 16 -189 16 -189 22 -168 c 1,61,-1
 193 326 l 2,62,63
 198 344 198 344 198 350 c 0,64,65
 198 378 198 378 172 378 c 0,66,67
 135 378 135 378 95 331 c 128,-1,68
 55 284 55 284 32 231 c 0,69,70
 26 217 26 217 12 216 c 0,71,72
 0 216 0 216 0 226 c 0,73,74
 0 239 0 239 8 250 c 1,75,76
 40 319 40 319 75 375 c 0,77,78
 97 407 97 407 130 430 c 1,79,80
 162 455 162 455 198 455 c 0,16,17
EndSplineSet
Validated: 1
EndChar

StartChar: uniE521
Encoding: 58657 58657 71
Width: 714
Flags: W
HStem: 0 21G<49 150.5 259 361> 354 94<133.004 150.725 323.628 342.824 513.75 534.684>
VStem: 472 138<40 93>
DStem2: 48 16 163 16 0.322138 0.946693<12.8286 327.45> 256 16 373 16 0.276924 0.960892<9.50559 323.589> 474 56 611 99 0.223998 0.97459<55.8105 275.487> 669 106 610 27 0.791782 0.610803<-55.0668 46.5189>
LayerCount: 2
Fore
SplineSet
0 216 m 3,0,1
 0 221 0 221 8 242 c 0,2,3
 31 305 31 305 75 367 c 0,4,5
 133 448 133 448 203 448 c 0,6,7
 233 448 233 448 250 424 c 1,8,9
 266 402 266 402 269 367 c 1,10,11
 322 448 322 448 389 448 c 0,12,13
 416 448 416 448 437 424 c 1,14,15
 456 397 456 397 459 363 c 1,16,17
 510 448 510 448 576 448 c 0,18,19
 608 448 608 448 637.5 420.5 c 128,-1,20
 667 393 667 393 667 347 c 0,21,22
 667 338 667 338 664 325 c 2,23,-1
 611 99 l 2,24,25
 610 95 610 95 610 93 c 0,26,27
 610 80 610 80 619 80 c 0,28,29
 635 80 635 80 669 106 c 2,30,-1
 704 133 l 1,31,32
 714 133 714 133 714 125 c 0,33,34
 714 119 714 119 709 114 c 0,35,36
 638 47 638 47 610 27 c 0,37,38
 564 -6 564 -6 522 -6 c 0,39,40
 498 -6 498 -6 486 7 c 24,41,42
 473 21 473 21 472 40 c 0,43,44
 472 47 472 47 474 56 c 2,45,-1
 531 304 l 2,46,47
 534 319 534 319 535 325 c 0,48,49
 535 354 535 354 519 354 c 0,50,51
 500 354 500 354 480 339 c 24,52,53
 463 326 463 326 456 304 c 2,54,-1
 373 16 l 2,55,56
 368 0 368 0 354 0 c 2,57,-1
 267 0 l 2,58,59
 255 0 255 0 255 10 c 0,60,61
 255 13 255 13 256 16 c 2,62,-1
 338 304 l 2,63,64
 343 322 343 322 343 328 c 0,65,66
 343 354 343 354 323 354 c 0,67,68
 304 354 304 354 286 338 c 24,69,70
 267 322 267 322 261 304 c 2,71,-1
 163 16 l 2,72,73
 158 0 158 0 143 0 c 2,74,-1
 56 0 l 2,75,76
 46 0 46 0 46 8 c 0,77,78
 46 11 46 11 48 16 c 2,79,-1
 146 304 l 2,80,81
 151 319 151 319 151 327 c 0,82,83
 151 354 151 354 128 354 c 0,84,85
 96 354 96 354 72 311 c 1,86,87
 53 283 53 283 31 221 c 0,88,89
 26 207 26 207 10 207 c 1,90,91
 0 210 0 210 0 216 c 3,0,1
EndSplineSet
Validated: 1
EndChar

StartChar: uniE523
Encoding: 58659 58659 72
Width: 458
Flags: W
HStem: -0 21G<35.5 134> 389 65<277.883 387> 403 50<65.4675 155>
VStem: 0 26<326.088 361.016> 346 112<341.094 386.99>
DStem2: 31 16 146 16 0.252656 0.967556<7.09625 390.919>
LayerCount: 2
Fore
SplineSet
394 320 m 0,0,1
 370 320 370 320 360 331 c 0,2,3
 349 344 349 344 346 355 c 0,4,5
 343 369 343 369 336 377 c 0,6,7
 330 388 330 388 314 389 c 0,8,9
 290 389 290 389 258 366 c 0,10,11
 231 345 231 345 224 320 c 2,12,-1
 146 16 l 2,13,14
 141 0 141 0 127 0 c 2,15,-1
 42 0 l 2,16,17
 31 0 31 0 31 12 c 0,18,19
 31 14 31 14 31 16 c 1,20,-1
 119 353 l 2,21,22
 120 361 120 361 120 373 c 0,23,24
 120 403 120 403 98 403 c 0,25,26
 80 403 80 403 55 381 c 0,27,28
 36 363 36 363 26 336 c 0,29,30
 22 326 22 326 12 326 c 0,31,32
 0 326 0 326 0 337 c 16,33,34
 0 366 0 366 47 416 c 1,35,36
 84 453 84 453 139 453 c 0,37,38
 171 453 171 453 194 438 c 0,39,40
 218 422 218 422 229 400 c 1,41,42
 293 454 293 454 368 454 c 0,43,44
 408 454 408 454 434 437 c 0,45,46
 458 421 458 421 458 392 c 128,-1,47
 458 363 458 363 439 344 c 1,48,49
 420 320 420 320 394 320 c 0,0,1
EndSplineSet
Validated: 1
EndChar

StartChar: uniE524
Encoding: 58660 58660 73
Width: 340
Flags: W
HStem: 0 24<75.0859 172.531> 423 19<199.218 253.108>
VStem: 0 63<36.1851 101> 66 91<277 368.087> 216 90<72.1079 156.371> 263 77<314.831 407.011>
LayerCount: 2
Fore
SplineSet
157 335 m 0,0,1
 157 311 157 311 180 293 c 0,2,3
 204 272 204 272 232 255 c 0,4,5
 266 235 266 235 284 210 c 0,6,7
 306 180 306 180 306 146 c 0,8,9
 306 80 306 80 253 40 c 128,-1,10
 200 0 200 0 127 0 c 0,11,12
 76 0 76 0 38 23.5 c 128,-1,13
 0 47 0 47 0 88 c 0,14,15
 0 114 0 114 13 133 c 1,16,17
 27 151 27 151 47.5 151 c 128,-1,18
 68 151 68 151 82 136.5 c 128,-1,19
 96 122 96 122 96 101 c 0,20,21
 96 91 96 91 79 80 c 0,22,23
 63 67 63 67 63 59 c 0,24,25
 63 40 63 40 82 32 c 128,-1,26
 101 24 101 24 124 24 c 0,27,28
 158 24 158 24 188 45 c 1,29,30
 216 69 216 69 216 101 c 0,31,32
 216 131 216 131 192 159 c 0,33,34
 175 178 175 178 140 200 c 0,35,36
 109 218 109 218 90 239 c 0,37,38
 66 263 66 263 66 291 c 0,39,40
 66 355 66 355 114 399 c 1,41,42
 159 442 159 442 229 442 c 0,43,44
 287 442 287 442 311 415 c 1,45,46
 340 386 340 386 340 351 c 0,47,48
 340 322 340 322 327 307 c 0,49,50
 313 291 313 291 292 291 c 128,-1,51
 271 291 271 291 256.5 300 c 128,-1,52
 242 309 242 309 242 322 c 0,53,54
 242 325 242 325 253 346 c 0,55,56
 263 365 263 365 263 384 c 128,-1,57
 263 403 263 403 256 411 c 0,58,59
 246 422 246 422 234 423 c 0,60,61
 200 423 200 423 178.5 396 c 128,-1,62
 157 369 157 369 157 335 c 0,0,1
EndSplineSet
Validated: 1
EndChar

StartChar: uniE525
Encoding: 58661 58661 74
Width: 409
Flags: W
HStem: 1 113<170.04 369.569> 41 89<87.1506 188.94> 297 131<58.7393 156.357>
VStem: 385 24<127.528 198.797>
DStem2: -20 47 86 114 0.732794 0.680451<123.266 439.414>
LayerCount: 2
Fore
SplineSet
28 41 m 0,0,1
 15 41 15 41 1 33 c 0,2,3
 -12 25 -12 25 -13 25 c 0,4,5
 -24 25 -24 25 -24 36 c 0,6,7
 -24 42 -24 42 -20 47 c 2,8,-1
 302 346 l 1,9,10
 273 336 273 336 241 332 c 0,11,12
 236 330 236 330 168 321 c 0,13,14
 125 313 125 313 105 311 c 1,15,16
 37 297 37 297 27 297 c 0,17,18
 0 297 0 297 -0 322 c 0,19,20
 0 360 0 360 41 393 c 1,21,22
 81 427 81 427 126 428 c 0,23,24
 178 428 178 428 244 415 c 1,25,26
 305 401 305 401 337 401 c 0,27,28
 356 401 356 401 368 409 c 0,29,30
 382 418 382 418 384 418 c 0,31,32
 395 418 395 418 395 406 c 0,33,34
 395 403 395 403 392 396 c 1,35,-1
 86 114 l 1,36,37
 123 130 123 130 137 130 c 0,38,39
 172 130 172 130 232 124 c 1,40,41
 288 114 288 114 328 114 c 0,42,43
 385 114 385 114 385 159 c 0,44,45
 385 166 385 166 382 186 c 1,46,-1
 377 199 l 1,47,48
 377 210 377 210 390 210 c 0,49,50
 409 210 409 210 409 140 c 0,51,52
 409 82 409 82 384 42 c 1,53,54
 362 2 362 2 316 1 c 0,55,56
 287 1 287 1 201 17 c 0,57,58
 74 41 74 41 28 41 c 0,0,1
EndSplineSet
Validated: 1
EndChar

StartChar: uniE080
Encoding: 57472 57472 75
Width: 367
Flags: W
HStem: -250 29<148.606 218.769> 221 29<148.758 219.093>
VStem: 0 116<-120.907 120.907> 251 116<-120.907 120.907>
LayerCount: 2
Fore
SplineSet
184 221 m 131,-1,1
 141 221 141 221 127 166 c 0,2,3
 116 121 116 121 116 55 c 2,4,-1
 116 -55 l 2,5,6
 116 -121 116 -121 127 -166 c 0,7,8
 141 -221 141 -221 184 -221 c 131,-1,9
 227 -221 227 -221 240 -166 c 0,10,11
 251 -121 251 -121 251 -55 c 2,12,-1
 251 55 l 2,13,14
 251 121 251 121 240 166 c 0,15,0
 227 221 227 221 184 221 c 131,-1,1
184 250 m 131,-1,17
 267 250 267 250 316 176 c 0,18,19
 367 102 367 102 367 0 c 131,-1,20
 367 -102 367 -102 316 -176 c 0,21,22
 266 -250 266 -250 183.5 -250 c 131,-1,23
 101 -250 101 -250 51 -176 c 0,24,25
 0 -102 0 -102 0 0 c 131,-1,26
 0 102 0 102 51 176 c 0,27,16
 101 250 101 250 184 250 c 131,-1,17
EndSplineSet
Validated: 1
EndChar

StartChar: uniE081
Encoding: 57473 57473 76
Width: 317
Flags: W
HStem: -250 23<32.0029 79.2344 272.085 317.989>
VStem: 117 116<-198.123 130.999>
DStem2: 0 0 26 -12 0.423877 0.90572<-7.15818 160.943>
LayerCount: 2
Fore
SplineSet
175 237 m 3,0,1
 189 237 189 237 203.5 244 c 128,-1,2
 218 251 218 251 221 251 c 3,3,4
 232 251 232 251 233 234 c 1,5,-1
 233 -133 l 2,6,7
 233 -171 233 -171 254 -199 c 1,8,9
 275 -226 275 -226 307 -226 c 3,10,11
 318 -226 318 -226 318 -238 c 131,-1,12
 318 -250 318 -250 307 -250 c 3,13,14
 279 -250 279 -250 240 -244 c 0,15,16
 194 -237 194 -237 176 -237 c 3,17,18
 152 -237 152 -237 109 -244 c 1,19,20
 65 -250 65 -250 44 -250 c 3,21,22
 32 -250 32 -250 32 -238.5 c 131,-1,23
 32 -227 32 -227 44 -227 c 3,24,25
 75 -227 75 -227 97 -199 c 1,26,27
 117 -172 117 -172 117 -133 c 2,28,-1
 117 112 l 2,29,30
 117 117 117 117 111 125 c 0,31,32
 107 131 107 131 100 131 c 131,-1,33
 93 131 93 131 90 124 c 2,34,-1
 26 -12 l 2,35,36
 22 -21 22 -21 12 -21 c 3,37,38
 7 -21 7 -21 3 -18 c 0,39,40
 -2 -14 -2 -14 -2 -7 c 3,41,42
 -2 -6 -2 -6 0 0 c 2,43,-1
 117 250 l 2,44,45
 119 253 119 253 122 253 c 131,-1,46
 125 253 125 253 143.5 245 c 128,-1,47
 162 237 162 237 175 237 c 3,0,1
EndSplineSet
Validated: 1
EndChar

StartChar: uniE082
Encoding: 57474 57474 77
Width: 367
Flags: MW
HStem: -250 79<214.5 307.969> -184 72<65.3525 132.127> 227 23<127.283 199.052>
VStem: 235 117<20.106 175.946>
LayerCount: 2
Fore
SplineSet
229 -250 m 3,0,1
 200 -250 200 -250 176 -239.5 c 128,-1,2
 152 -229 152 -229 143 -217 c 0,3,4
 130 -202 130 -202 117 -194 c 0,5,6
 101 -184 101 -184 85 -184 c 3,7,8
 60 -184 60 -184 43 -199 c 1,9,10
 25 -214 25 -214 23 -239 c 1,11,12
 21 -250 21 -250 12 -250 c 3,13,14
 0 -250 0 -250 0 -239 c 3,15,16
 0 -201 0 -201 18 -171 c 0,17,18
 36 -140 36 -140 61 -119 c 0,19,20
 82 -100 82 -100 117 -74 c 0,21,22
 123 -69 123 -69 142 -53.5 c 128,-1,23
 161 -38 161 -38 174 -27 c 0,24,25
 202 -3 202 -3 218 29 c 0,26,27
 235 64 235 64 235 105 c 3,28,29
 235 155 235 155 219 191 c 1,30,31
 201 226 201 226 165 227 c 3,32,33
 143 227 143 227 129 217 c 0,34,35
 114 207 114 207 114 190 c 0,36,37
 114 176 114 176 131.5 156 c 128,-1,38
 149 136 149 136 149 122 c 3,39,40
 149 91 149 91 129 72 c 128,-1,41
 109 53 109 53 81 53 c 3,42,43
 52 53 52 53 31 73 c 1,44,45
 12 94 12 94 12 122 c 3,46,47
 12 178 12 178 57 214 c 128,-1,48
 102 250 102 250 165 250 c 3,49,50
 240 250 240 250 296 209 c 1,51,52
 352 170 352 170 352 105 c 3,53,54
 352 61 352 61 336 30 c 1,55,56
 321 -3 321 -3 292 -21 c 0,57,58
 259 -42 259 -42 234 -55 c 0,59,60
 200 -71 200 -71 166 -84 c 0,61,62
 125 -101 125 -101 103 -115 c 1,63,64
 116 -112 116 -112 129 -112 c 3,65,66
 174 -112 174 -112 223 -142 c 0,67,68
 273 -171 273 -171 300 -171 c 3,69,70
 317 -171 317 -171 326 -165 c 256,71,72
 336 -159 336 -159 339 -152 c 0,73,74
 343 -142 343 -142 346 -139 c 0,75,76
 350 -133 350 -133 355 -133 c 3,77,78
 367 -133 367 -133 367 -145 c 3,79,80
 367 -172 367 -172 328 -211 c 0,81,82
 291 -250 291 -250 229 -250 c 3,0,1
EndSplineSet
Validated: 1
EndChar

StartChar: uniE083
Encoding: 57475 57475 78
Width: 333
Flags: W
HStem: -250 23<107.627 187.385> 0 29<73.0137 201.373> 227 23<101.667 188.615>
VStem: 0 91<-196.905 -123.5> 12 79<134.5 205.856> 217 116<-184.993 -34.2588> 217 102<49.3157 199.784>
LayerCount: 2
Fore
SplineSet
263 15 m 3,0,1
 263 5 263 5 273 -4 c 0,2,3
 289 -16 289 -16 298 -21 c 0,4,5
 310 -28 310 -28 322 -53 c 24,6,7
 333 -76 333 -76 333 -110 c 3,8,9
 333 -177 333 -177 283 -214 c 0,10,11
 232 -250 232 -250 154 -250 c 3,12,13
 94 -250 94 -250 47 -219 c 152,-1,14
 0 -188 0 -188 0 -137 c 3,15,16
 0 -110 0 -110 20 -90 c 24,17,18
 39 -71 39 -71 66 -71 c 3,19,20
 90 -71 90 -71 111 -91 c 24,21,22
 131 -110 131 -110 131 -137 c 3,23,24
 131 -150 131 -150 111 -164 c 152,-1,25
 91 -178 91 -178 91 -190 c 0,26,27
 91 -209 91 -209 109 -218 c 128,-1,28
 127 -227 127 -227 154 -227 c 3,29,30
 190 -227 190 -227 203 -193 c 24,31,32
 217 -157 217 -157 217 -110 c 2,33,-1
 217 -94 l 2,34,35
 217 -66 217 -66 215 -44 c 0,36,37
 213 -27 213 -27 201 -14 c 0,38,39
 190 0 190 0 167 0 c 2,40,-1
 87 0 l 2,41,42
 73 0 73 0 73 15 c 3,43,44
 73 28 73 28 87 29 c 2,45,-1
 167 29 l 2,46,47
 194 29 194 29 206 47 c 0,48,49
 216 61 216 61 217 96 c 2,50,-1
 217 136 l 2,51,52
 217 227 217 227 150 227 c 3,53,54
 91 227 91 227 91 194 c 0,55,56
 91 183 91 183 109 171 c 0,57,58
 127 158 127 158 127 147 c 3,59,60
 127 122 127 122 109 105 c 0,61,62
 92 89 92 89 68 89 c 3,63,64
 45 89 45 89 28 105 c 24,65,66
 12 122 12 122 12 147 c 3,67,68
 12 195 12 195 53 223 c 24,69,70
 93 250 93 250 150 250 c 3,71,72
 223 250 223 250 271 222 c 0,73,74
 319 195 319 195 319 136 c 3,75,76
 319 94 319 94 311 72 c 0,77,78
 302 50 302 50 291 45 c 0,79,80
 279 40 279 40 271 33 c 0,81,82
 263 27 263 27 263 15 c 3,0,1
EndSplineSet
Validated: 1
EndChar

StartChar: uniE084
Encoding: 57476 57476 79
Width: 399
Flags: W
HStem: -250 23<111.003 159.345 351.651 397.997> -125 29<29 196 313 399.966>
VStem: 196 117<-198.153 -125 -96 56.7178>
LayerCount: 2
Fore
SplineSet
225 237 m 3,0,1
 254 237 254 237 274.5 244 c 128,-1,2
 295 251 295 251 301 251 c 3,3,4
 308 251 308 251 312 247 c 0,5,6
 315 245 315 245 315 240 c 3,7,8
 315 238 315 238 313 234 c 1,9,-1
 29 -96 l 1,10,-1
 196 -96 l 1,11,-1
 196 35 l 2,12,13
 196 48 196 48 203 57 c 1,14,15
 215 67 215 67 223 68 c 1,16,17
 236 74 236 74 254 96 c 0,18,19
 270 114 270 114 291 157 c 0,20,21
 294 163 294 163 300 163 c 3,22,23
 312 163 312 163 313 149 c 1,24,-1
 313 -96 l 1,25,-1
 385 -96 l 2,26,27
 399 -96 399 -96 400 -110 c 0,28,29
 400 -125 400 -125 385 -125 c 2,30,-1
 313 -125 l 1,31,-1
 313 -133 l 2,32,33
 313 -174 313 -174 333 -199 c 24,34,35
 355 -226 355 -226 386 -227 c 0,36,37
 398 -227 398 -227 398 -238.5 c 131,-1,38
 398 -250 398 -250 386 -250 c 0,39,40
 355 -250 355 -250 319 -244 c 24,41,42
 277 -237 277 -237 254 -237 c 3,43,44
 239 -237 239 -237 188 -244 c 24,45,46
 144 -250 144 -250 123 -250 c 3,47,48
 111 -250 111 -250 111 -238.5 c 131,-1,49
 111 -227 111 -227 123 -227 c 3,50,51
 155 -227 155 -227 176 -199 c 24,52,53
 196 -172 196 -172 196 -133 c 2,54,-1
 196 -125 l 1,55,-1
 29 -125 l 2,56,57
 12 -125 12 -125 6 -117 c 1,58,59
 -2 -111 -2 -111 -2 -102 c 3,60,61
 -2 -99 -2 -99 13 -81 c 0,62,63
 30 -61 30 -61 48 -33 c 0,64,65
 78 15 78 15 89 35 c 0,66,67
 106 68 106 68 123 127 c 24,68,69
 138 180 138 180 138 234 c 0,70,71
 138 250 138 250 151 250 c 3,72,73
 154 250 154 250 164 247 c 0,74,75
 166 246 166 246 176 244 c 0,76,77
 210 237 210 237 225 237 c 3,0,1
EndSplineSet
Validated: 1
EndChar

StartChar: uniE085
Encoding: 57477 57477 80
Width: 349
Flags: W
HStem: -250 23<106.085 196.975> 42 29<97.7904 200.712> 141 109<62.1877 183.028>
VStem: 0 91<-197.595 -123.5> 29 29<28 135.874> 233 116<-168.101 0.285034>
LayerCount: 2
Fore
SplineSet
45 250 m 3,0,1
 53 250 53 250 62 247 c 1,2,-1
 107 242 l 2,3,4
 153 237 153 237 184 237 c 0,5,6
 224 237 224 237 266 242 c 0,7,8
 311 248 311 248 313 248 c 0,9,10
 327 250 327 250 328 250 c 3,11,12
 341 250 341 250 341 241 c 3,13,14
 341 237 341 237 338 234 c 0,15,16
 246 142 246 142 75 141 c 0,17,18
 68 141 68 141 62 136 c 1,19,20
 58 132 58 132 58 124 c 1,21,-1
 58 28 l 1,22,23
 101 71 101 71 163 71 c 3,24,25
 252 71 252 71 301 31 c 0,26,27
 349 -9 349 -9 349 -90 c 3,28,29
 349 -161 349 -161 294 -205 c 24,30,31
 238 -250 238 -250 163 -250 c 3,32,33
 96 -250 96 -250 49 -221 c 0,34,35
 0 -191 0 -191 0 -137 c 3,36,37
 0 -110 0 -110 20 -90 c 24,38,39
 39 -71 39 -71 66 -71 c 3,40,41
 90 -71 90 -71 111 -91 c 24,42,43
 131 -110 131 -110 131 -137 c 3,44,45
 131 -150 131 -150 111 -164 c 152,-1,46
 91 -178 91 -178 91 -190 c 0,47,48
 91 -227 91 -227 163 -227 c 3,49,50
 233 -227 233 -227 233 -90 c 3,51,52
 233 42 233 42 163 42 c 3,53,54
 133 42 133 42 107 34 c 128,-1,55
 81 26 81 26 74 17 c 24,56,57
 65 6 65 6 57 -1 c 24,58,59
 49 -9 49 -9 44 -9 c 3,60,61
 29 -9 29 -9 29 6 c 2,62,-1
 29 234 l 2,63,64
 29 250 29 250 45 250 c 3,0,1
EndSplineSet
Validated: 1
EndChar

StartChar: uniE086
Encoding: 57478 57478 81
Width: 340
Flags: MW
HStem: -250 23<136.304 207.062> 6 23<134.662 209.195> 227 23<150.43 224.419>
VStem: 0 117<-127.016 -2.18457 16 119.657> 231 109<-188.125 -31.1152>
LayerCount: 2
Fore
SplineSet
170 6 m 3,0,1
 133 6 133 6 124 -23 c 0,2,3
 117 -44 117 -44 117 -96 c 2,4,-1
 117 -125 l 2,5,6
 117 -176 117 -176 124 -197 c 0,7,8
 133 -226 133 -226 170 -227 c 0,9,10
 212 -227 212 -227 222 -192 c 0,11,12
 231 -160 231 -160 231 -110 c 3,13,14
 231 -52 231 -52 221 -23 c 128,-1,15
 211 6 211 6 170 6 c 3,0,1
117 16 m 1,16,17
 146 28 146 28 170 29 c 0,18,19
 248 29 248 29 295 -6 c 1,20,21
 340 -42 340 -42 340 -109 c 3,22,23
 340 -177 340 -177 294 -215 c 1,24,25
 248 -250 248 -250 170 -250 c 3,26,27
 90 -250 90 -250 45 -176 c 128,-1,28
 0 -102 0 -102 0 0 c 3,29,30
 0 103 0 103 53 176 c 24,31,32
 107 250 107 250 190 250 c 3,33,34
 245 250 245 250 287 222 c 0,35,36
 328 194 328 194 328 147 c 3,37,38
 328 122 328 122 309 101 c 24,39,40
 291 81 291 81 263.5 81 c 131,-1,41
 236 81 236 81 216.5 100.5 c 128,-1,42
 197 120 197 120 197 147 c 3,43,44
 197 158 197 158 217 172 c 24,45,46
 236 184 236 184 236 196 c 3,47,48
 236 211 236 211 223 219 c 24,49,50
 209 227 209 227 190 227 c 3,51,52
 146 227 146 227 131 190 c 24,53,54
 115 152 115 152 115 88 c 0,55,56
 115 68 115 68 116 52 c 128,-1,57
 117 36 117 36 117 16 c 1,16,17
EndSplineSet
Validated: 1
EndChar

StartChar: uniE087
Encoding: 57479 57479 82
Width: 360
Flags: W
HStem: 0 21G<7.25 21.75> 103 91<167 269.929> 160 90<63.3518 136.23>
VStem: 0 29<0.00366211 141.949 205.004 249.985>
LayerCount: 2
Fore
SplineSet
67 160 m 0,0,1
 52 160 52 160 40.5 142.5 c 128,-1,2
 29 125 29 125 29 90 c 2,3,-1
 29 15 l 2,4,5
 29 0 29 0 14.5 0 c 131,-1,6
 0 0 0 0 0 15 c 2,7,-1
 0 235 l 2,8,9
 0 250 0 250 15 250 c 3,10,11
 28 250 28 250 29 235 c 2,12,-1
 29 221 l 2,13,14
 29 205 29 205 38 205 c 0,15,16
 43 205 43 205 44 206 c 0,17,18
 74 250 74 250 122 250 c 3,19,20
 161 250 161 250 194 222 c 152,-1,21
 227 194 227 194 249 194 c 3,22,23
 273 194 273 194 295 208 c 0,24,25
 311 218 311 218 328 236 c 0,26,27
 340 250 340 250 344 250 c 3,28,29
 351 250 351 250 355 246 c 0,30,31
 360 241 360 241 360 236 c 3,32,33
 360 233 360 233 335 194 c 0,34,35
 311 156 311 156 279 106 c 0,36,37
 250 59 250 59 225 -18 c 152,-1,38
 200 -95 200 -95 199 -160 c 0,39,40
 199 -185 199 -185 205 -221 c 24,41,42
 207 -233 207 -233 207 -241 c 3,43,44
 207 -247 207 -247 204 -250 c 128,-1,45
 201 -253 201 -253 194 -253 c 3,46,47
 191 -253 191 -253 176 -248 c 8,48,49
 142 -237 142 -237 117 -237 c 3,50,51
 95 -237 95 -237 68 -245 c 128,-1,52
 41 -253 41 -253 39 -253 c 3,53,54
 31 -253 31 -253 28 -248 c 0,55,56
 26 -245 26 -245 26 -241 c 3,57,58
 26 -238 26 -238 27 -236 c 0,59,60
 63 -151 63 -151 115 -68 c 24,61,62
 174 24 174 24 243 119 c 1,63,64
 216 104 216 104 184 103 c 0,65,66
 150 103 150 103 120 131 c 24,67,68
 89 160 89 160 67 160 c 0,0,1
EndSplineSet
Validated: 1
EndChar

StartChar: uniE088
Encoding: 57480 57480 83
Width: 372
Flags: W
HStem: -250 23<124.432 225.503> 227 23<149.698 249.668>
VStem: 0 44<-172.783 -52.0286> 15 101<110.077 182.92> 269 103<-175.901 -91.6313> 308 44<74.151 192.281>
DStem2: 146 104 106 -8 0.864874 -0.50199<15.3805 134.673 165.342 219.777>
LayerCount: 2
Fore
SplineSet
259 38 m 1,0,1
 308 92 308 92 308 140 c 3,2,3
 308 180 308 180 273 203 c 0,4,5
 240 226 240 226 191 227 c 0,6,7
 157 227 157 227 136.5 205.5 c 128,-1,8
 116 184 116 184 116 156 c 3,9,10
 116 122 116 122 146 104 c 2,11,-1
 259 38 l 1,0,1
289 21 m 1,12,13
 372 -27 372 -27 372 -106 c 3,14,15
 372 -164 372 -164 322 -207 c 152,-1,16
 272 -250 272 -250 183 -250 c 3,17,18
 110 -250 110 -250 55 -211 c 152,-1,19
 0 -172 0 -172 0 -110 c 3,20,21
 0 -88 0 -88 14 -62 c 0,22,23
 27 -40 27 -40 39 -27 c 1,24,25
 45 -19 45 -19 76 10 c 1,26,27
 15 53 15 53 15 116 c 3,28,29
 15 170 15 170 62 211 c 1,30,31
 110 250 110 250 191 250 c 3,32,33
 255 250 255 250 305 221 c 1,34,35
 352 192 352 192 352 140 c 3,36,37
 352 86 352 86 289 21 c 1,12,13
106 -8 m 1,38,39
 45 -62 45 -62 44 -110 c 0,40,41
 44 -160 44 -160 86 -193 c 24,42,43
 126 -226 126 -226 183 -227 c 0,44,45
 219 -227 219 -227 245 -201 c 24,46,47
 268 -178 268 -178 269 -144 c 0,48,49
 269 -102 269 -102 234 -82 c 2,50,-1
 106 -8 l 1,38,39
EndSplineSet
Validated: 1
EndChar

StartChar: uniE089
Encoding: 57481 57481 84
Width: 340
Flags: W
HStem: -250 23<115.576 190.342> -29 23<133.974 205.312> 227 23<132.287 203.696>
VStem: 0 109<31.266 189.33> 12 92<-205.202 -122.499> 223 117<-117.29 -16 2.18457 127.016>
LayerCount: 2
Fore
SplineSet
170 -6 m 259,0,1
 207 -6 207 -6 216 23 c 0,2,3
 223 44 223 44 223 96 c 2,4,-1
 223 125 l 2,5,6
 223 176 223 176 216 197 c 0,7,8
 207 226 207 226 170 227 c 3,9,10
 126 227 126 227 117 192 c 0,11,12
 109 161 109 161 109 110 c 3,13,14
 109 49 109 49 120 23 c 0,15,16
 133 -6 133 -6 170 -6 c 259,0,1
223 -16 m 1,17,18
 190 -29 190 -29 170 -29 c 3,19,20
 89 -29 89 -29 45 6 c 24,21,22
 0 42 0 42 0 109 c 3,23,24
 0 180 0 180 46 215 c 152,-1,25
 92 250 92 250 170 250 c 3,26,27
 250 250 250 250 295 176 c 128,-1,28
 340 102 340 102 340 0 c 3,29,30
 340 -100 340 -100 287 -176 c 0,31,32
 235 -250 235 -250 150 -250 c 3,33,34
 94 -250 94 -250 53 -222 c 152,-1,35
 12 -194 12 -194 12 -147 c 3,36,37
 12 -122 12 -122 31 -101 c 24,38,39
 49 -81 49 -81 76.5 -81 c 131,-1,40
 104 -81 104 -81 123.5 -100.5 c 128,-1,41
 143 -120 143 -120 143 -147 c 3,42,43
 143 -159 143 -159 123 -172 c 24,44,45
 104 -184 104 -184 104 -196 c 3,46,47
 104 -211 104 -211 117 -219 c 152,-1,48
 130 -227 130 -227 150 -227 c 3,49,50
 195 -227 195 -227 210 -190 c 256,51,52
 225 -154 225 -154 225 -88 c 3,53,54
 225 -68 225 -68 224 -52 c 128,-1,55
 223 -36 223 -36 223 -16 c 1,17,18
EndSplineSet
Validated: 1
EndChar

StartChar: uniE08A
Encoding: 57482 57482 85
Width: 424
Flags: W
HStem: -263 25<191.329 306.844> 27 152<306.899 369.904> 237 25<188.904 310.267>
VStem: 0 137<-126.465 120.241> 284 142<50.197 155.713>
LayerCount: 2
Fore
SplineSet
359 27 m 3,0,1
 334 27 334 27 309 47 c 0,2,3
 285 66 285 66 284 102 c 3,4,5
 284 132 284 132 305 155 c 0,6,7
 325 178 325 178 356 179 c 0,8,9
 367 179 367 179 370 178 c 1,10,11
 325 236 325 236 250 237 c 3,12,13
 214 237 214 237 197 229 c 0,14,15
 173 218 173 218 164 205 c 24,16,17
 154 191 154 191 146 164 c 0,18,19
 137 132 137 132 137 51 c 2,20,-1
 137 -51 l 2,21,22
 137 -129 137 -129 146 -165 c 0,23,24
 152 -190 152 -190 164 -205 c 0,25,26
 176 -219 176 -219 197 -228.5 c 128,-1,27
 218 -238 218 -238 250 -238 c 3,28,29
 307 -238 307 -238 350 -195 c 24,30,31
 387 -158 387 -158 408 -87 c 0,32,33
 411 -77 411 -77 420 -77 c 3,34,35
 433 -77 433 -77 433 -89 c 3,36,37
 433 -96 433 -96 427 -116 c 128,-1,38
 421 -136 421 -136 407 -162 c 24,39,40
 397 -181 397 -181 373 -208 c 0,41,42
 353 -230 353 -230 320 -247 c 0,43,44
 289 -263 289 -263 250 -263 c 3,45,46
 152 -263 152 -263 81 -207 c 0,47,48
 0 -143 0 -143 0 0 c 3,49,50
 0 117 0 117 64 189 c 152,-1,51
 128 261 128 261 250 262 c 3,52,53
 328 262 328 262 377 207 c 152,-1,54
 426 152 426 152 426 99 c 3,55,56
 426 71 426 71 406 48 c 24,57,58
 388 27 388 27 359 27 c 3,0,1
EndSplineSet
Validated: 1
EndChar

StartChar: uniE08B
Encoding: 57483 57483 86
Width: 424
Flags: W
HStem: -263 25<237 308.983> 27 152<306.899 369.904> 237 25<237 309.554>
VStem: 0 137<-119.191 119.191> 200 37<-350 -262 -230 230 262 350> 284 142<50.0725 155.713>
LayerCount: 2
Fore
SplineSet
359 27 m 3,0,1
 334 27 334 27 309 47 c 0,2,3
 285 66 285 66 284 102 c 3,4,5
 284 132 284 132 305 155 c 0,6,7
 325 178 325 178 356 179 c 0,8,9
 367 179 367 179 370 178 c 1,10,11
 325 236 325 236 250 237 c 1,12,-1
 237 237 l 1,13,14
 237 237 237 237 237 -237 c 1,15,16
 247 -238 247 -238 250 -238 c 3,17,18
 311 -238 311 -238 350 -195 c 0,19,20
 393 -147 393 -147 408 -87 c 0,21,22
 410 -77 410 -77 420 -77 c 3,23,24
 433 -77 433 -77 433 -89 c 3,25,26
 433 -99 433 -99 427 -115 c 0,27,28
 420 -136 420 -136 408 -159 c 24,29,30
 400 -175 400 -175 373 -208 c 0,31,32
 354 -231 354 -231 321 -248 c 0,33,34
 291 -263 291 -263 250 -263 c 3,35,36
 242 -263 242 -263 237 -262 c 1,37,-1
 237 -340 l 2,38,39
 237 -350 237 -350 227 -350 c 2,40,-1
 210 -350 l 2,41,42
 200 -350 200 -350 200 -340 c 2,43,-1
 200 -259 l 1,44,45
 97 -242 97 -242 49 -172 c 24,46,47
 0 -100 0 -100 0 0 c 131,-1,48
 0 100 0 100 49 172 c 24,49,50
 97 242 97 242 200 259 c 1,51,-1
 200 340 l 2,52,53
 200 350 200 350 210 350 c 2,54,-1
 227 350 l 2,55,56
 237 350 237 350 237 340 c 2,57,-1
 237 262 l 1,58,-1
 250 262 l 2,59,60
 330 262 330 262 377 207 c 1,61,62
 426 152 426 152 426 99 c 3,63,64
 426 68 426 68 406 48 c 1,65,66
 388 27 388 27 359 27 c 3,0,1
200 -230 m 1,67,-1
 200 230 l 1,68,69
 159 215 159 215 148 174 c 0,70,71
 137 132 137 132 137 51 c 2,72,-1
 137 -51 l 2,73,74
 137 -131 137 -131 148 -174 c 0,75,76
 160 -215 160 -215 200 -230 c 1,67,-1
EndSplineSet
Validated: 1
EndChar

StartChar: uniE08D
Encoding: 57485 57485 87
Width: 250
Flags: W
LayerCount: 2
Fore
SplineSet
125 -125 m 128,-1,1
 115 -125 115 -125 107.5 -117 c 128,-1,2
 100 -109 100 -109 100 -100 c 2,3,-1
 100 -25 l 1,4,-1
 25 -25 l 2,5,6
 15 -25 15 -25 7.5 -17.5 c 128,-1,7
 0 -10 0 -10 0 0 c 0,8,9
 0 11 0 11 7 18 c 0,10,11
 15 26 15 26 25 25 c 2,12,-1
 100 25 l 1,13,-1
 100 100 l 2,14,15
 100 110 100 110 107.5 117.5 c 128,-1,16
 115 125 115 125 125 125 c 128,-1,17
 135 125 135 125 142.5 117 c 128,-1,18
 150 109 150 109 150 100 c 2,19,-1
 150 25 l 1,20,-1
 225 25 l 2,21,22
 235 25 235 25 242.5 17.5 c 128,-1,23
 250 10 250 10 250 0 c 0,24,25
 250 -11 250 -11 243 -18 c 0,26,27
 235 -26 235 -26 225 -25 c 2,28,-1
 150 -25 l 1,29,-1
 150 -100 l 2,30,31
 150 -110 150 -110 142.5 -117.5 c 128,-1,0
 135 -125 135 -125 125 -125 c 128,-1,1
EndSplineSet
Validated: 1
EndChar

StartChar: uniE092
Encoding: 57490 57490 88
Width: 175
Flags: W
LayerCount: 2
Fore
SplineSet
139 -250 m 0,0,1
 139 -263 139 -263 126 -263 c 0,2,3
 117 -263 117 -263 94 -227 c 0,4,5
 69 -188 69 -188 48 -125 c 0,6,7
 26 -60 26 -60 25 0 c 0,8,9
 25 56 25 56 47 125 c 1,10,11
 71 193 71 193 94 227 c 0,12,13
 117 263 117 263 126 263 c 0,14,15
 139 263 139 263 139 250 c 0,16,17
 139 249 139 249 123 225 c 0,18,19
 108 204 108 204 92 143 c 0,20,21
 76 86 76 86 76 0 c 128,-1,22
 76 -86 76 -86 92 -143 c 0,23,24
 109 -203 109 -203 123 -225 c 0,25,26
 139 -249 139 -249 139 -250 c 0,0,1
EndSplineSet
Validated: 1
EndChar

StartChar: uniE093
Encoding: 57491 57491 89
Width: 175
Flags: W
LayerCount: 2
Fore
SplineSet
37 -250 m 0,0,1
 37 -249 37 -249 53 -225 c 0,2,3
 68 -203 68 -203 84 -143 c 0,4,5
 100 -86 100 -86 100 0 c 128,-1,6
 100 86 100 86 84 143 c 0,7,8
 67 204 67 204 53 225 c 0,9,10
 37 249 37 249 37 250 c 0,11,12
 37 263 37 263 50 263 c 0,13,14
 59 263 59 263 82 227 c 1,15,16
 107 190 107 190 129 125 c 1,17,18
 150 56 150 56 150 0 c 0,19,20
 150 -60 150 -60 128 -125 c 0,21,22
 107 -187 107 -187 82 -227 c 0,23,24
 59 -263 59 -263 50 -263 c 0,25,26
 37 -263 37 -263 37 -250 c 0,0,1
EndSplineSet
Validated: 1
EndChar

StartChar: uniE4E0
Encoding: 58592 58592 90
Width: 449
Flags: W
LayerCount: 2
Fore
SplineSet
440 -250 m 2,0,-1
 310 -250 l 2,1,2
 300 -250 300 -250 300 -240 c 2,3,-1
 300 240 l 2,4,5
 300 250 300 250 310 250 c 2,6,-1
 440 250 l 2,7,8
 450 250 450 250 450 240 c 2,9,-1
 450 -240 l 2,10,11
 450 -250 450 -250 440 -250 c 2,0,-1
140 -250 m 2,12,-1
 10 -250 l 2,13,14
 0 -250 0 -250 0 -240 c 2,15,-1
 0 240 l 2,16,17
 0 250 0 250 10 250 c 2,18,-1
 140 250 l 2,19,20
 151 250 151 250 150 240 c 2,21,-1
 150 -240 l 2,22,23
 151 -250 151 -250 140 -250 c 2,12,-1
EndSplineSet
Validated: 1
EndChar

StartChar: uniE4E1
Encoding: 58593 58593 91
Width: 148
Flags: W
LayerCount: 2
Fore
SplineSet
140 -250 m 2,0,-1
 10 -250 l 2,1,2
 0 -250 0 -250 0 -240 c 2,3,-1
 0 240 l 2,4,5
 0 250 0 250 10 250 c 2,6,-1
 140 250 l 2,7,8
 151 250 151 250 150 240 c 2,9,-1
 150 -240 l 2,10,11
 151 -250 151 -250 140 -250 c 2,0,-1
EndSplineSet
Validated: 1
EndChar

StartChar: uniE4E2
Encoding: 58594 58594 92
Width: 148
Flags: W
LayerCount: 2
Fore
SplineSet
140 0 m 2,0,-1
 10 0 l 2,1,2
 0 0 0 0 0 10 c 2,3,-1
 0 240 l 2,4,5
 0 250 0 250 10 250 c 2,6,-1
 140 250 l 2,7,8
 151 250 151 250 150 240 c 2,9,-1
 150 10 l 2,10,11
 151 0 151 0 140 0 c 2,0,-1
EndSplineSet
Validated: 1
EndChar

StartChar: uniE4E3
Encoding: 58595 58595 93
Width: 375
Flags: W
LayerCount: 2
Fore
SplineSet
365 0 m 2,0,-1
 10 0 l 2,1,2
 0 0 0 0 0 10 c 2,3,-1
 0 146 l 2,4,5
 0 156 0 156 10 156 c 2,6,-1
 365 156 l 2,7,8
 375 156 375 156 375 146 c 2,9,-1
 375 10 l 2,10,11
 375 0 375 0 365 0 c 2,0,-1
EndSplineSet
Validated: 1
EndChar

StartChar: uniE4E4
Encoding: 58596 58596 94
Width: 375
Flags: W
LayerCount: 2
Fore
SplineSet
365 -156 m 2,0,-1
 10 -156 l 2,1,2
 0 -156 0 -156 0 -146 c 2,3,-1
 0 -10 l 2,4,5
 0 0 0 0 10 0 c 2,6,-1
 365 0 l 2,7,8
 375 0 375 0 375 -10 c 2,9,-1
 375 -146 l 2,10,11
 375 -156 375 -156 365 -156 c 2,0,-1
EndSplineSet
Validated: 1
EndChar

StartChar: uniE4E5
Encoding: 58597 58597 95
Width: 236
Flags: W
LayerCount: 2
Back
SplineSet
-6 78 m 0,0,1
 -6 96 -6 96 14 117 c 0,2,3
 29 133 29 133 57 154 c 1,4,5
 78 169 78 169 99 198 c 0,6,7
 119 226 119 226 118 260 c 0,8,9
 118 299 118 299 93 329 c 2,10,-1
 58 371 l 2,11,12
 54 375 54 375 54 381 c 128,-1,13
 54 387 54 387 60 392 c 0,14,15
 67 397 67 397 71 396 c 0,16,17
 78 396 78 396 82 391 c 2,18,-1
 233 211 l 2,19,20
 243 198 243 198 243 186 c 0,21,22
 243 168 243 168 224 146 c 0,23,24
 211 132 211 132 182 109 c 1,25,26
 160 95 160 95 139 65 c 0,27,28
 119 37 119 37 119 4 c 0,29,30
 119 -38 119 -38 143 -65 c 2,31,-1
 227 -164 l 2,32,33
 230 -167 230 -167 231 -174 c 1,34,35
 231 -181 231 -181 227 -186 c 1,36,37
 220 -191 220 -191 215 -190 c 0,38,39
 213 -190 213 -190 199 -180 c 0,40,41
 184 -168 184 -168 160 -157 c 1,42,43
 133 -146 133 -146 106 -146 c 0,44,45
 82 -146 82 -146 66 -160 c 1,46,47
 52 -174 52 -174 53 -213 c 0,48,49
 53 -273 53 -273 81 -307 c 0,50,51
 84 -311 84 -311 82 -316 c 0,52,53
 80 -320 80 -320 75 -320 c 0,54,55
 68 -320 68 -320 45 -285 c 0,56,57
 21 -248 21 -248 -1 -200 c 0,58,59
 -23 -149 -23 -149 -23 -116 c 0,60,61
 -23 -74 -23 -74 17 -74 c 0,62,63
 63 -74 63 -74 136 -105 c 1,64,-1
 4 53 l 2,65,66
 -6 65 -6 65 -6 78 c 0,0,1
EndSplineSet
Fore
SplineSet
-6 78 m 0,0,1
 -6 96 -6 96 14 117 c 0,2,3
 29 133 29 133 57 154 c 1,4,5
 79 170 79 170 99 198 c 0,6,7
 118 225 118 225 118 260 c 0,8,9
 118 299 118 299 93 329 c 2,10,-1
 58 371 l 2,11,12
 54 375 54 375 54 381 c 0,13,14
 54 388 54 388 59.5 392 c 128,-1,15
 65 396 65 396 71 396 c 0,16,17
 78 396 78 396 82 391 c 2,18,-1
 233 211 l 2,19,20
 243 198 243 198 243 186 c 0,21,22
 243 168 243 168 224 146 c 0,23,24
 211 132 211 132 182 109 c 1,25,26
 160 95 160 95 139 65 c 0,27,28
 119 37 119 37 119 4 c 0,29,30
 119 -38 119 -38 143 -65 c 2,31,-1
 227 -164 l 2,32,33
 230 -167 230 -167 231 -174 c 1,34,35
 231 -181 231 -181 227 -186 c 1,36,37
 221 -190 221 -190 215 -190 c 0,38,39
 212 -190 212 -190 199 -180 c 128,-1,40
 186 -170 186 -170 160 -157 c 1,41,42
 133 -146 133 -146 106 -146 c 0,43,44
 82 -146 82 -146 66 -160 c 1,45,46
 53 -174 53 -174 53 -213 c 0,47,48
 53 -273 53 -273 81 -307 c 0,49,50
 83 -309 83 -309 83 -312 c 0,51,52
 83 -314 83 -314 82 -316 c 0,53,54
 80 -320 80 -320 75 -320 c 0,55,56
 68 -320 68 -320 45 -285 c 0,57,58
 21 -248 21 -248 -1 -200 c 0,59,60
 -23 -149 -23 -149 -23 -116 c 0,61,62
 -23 -74 -23 -74 17 -74 c 0,63,64
 63 -74 63 -74 136 -105 c 1,65,-1
 4 53 l 2,66,67
 -6 65 -6 65 -6 78 c 0,0,1
EndSplineSet
Validated: 1
EndChar

StartChar: uniE4E6
Encoding: 58598 58598 96
Width: 250
Flags: W
LayerCount: 2
Fore
SplineSet
70 205 m 0,0,1
 98 205 98 205 113 189 c 1,2,3
 128 171 128 171 129 156 c 1,4,5
 131 141 131 141 139 123 c 1,6,7
 148 107 148 107 161 107 c 0,8,9
 172 107 172 107 193 132 c 0,10,11
 213 153 213 153 222 170 c 0,12,13
 227 180 227 180 235 180 c 2,14,-1
 236 180 l 1,15,16
 246 179 246 179 250 170 c 1,17,-1
 127 -250 l 1,18,19
 117 -260 117 -260 99.5 -260 c 128,-1,20
 82 -260 82 -260 72 -250 c 1,21,-1
 189 76 l 1,22,23
 127 54 127 54 84 54 c 0,24,25
 49 54 49 54 23 76 c 1,26,27
 -3 97 -3 97 -3 133 c 0,28,29
 -3 163 -3 163 19 184 c 0,30,31
 40 205 40 205 70 205 c 0,0,1
EndSplineSet
Validated: 1
EndChar

StartChar: uniE4E7
Encoding: 58599 58599 97
Width: 299
Flags: W
LayerCount: 2
Fore
SplineSet
125 205 m 0,0,1
 154 205 154 205 167 189 c 0,2,3
 181 172 181 172 184 156 c 1,4,5
 185 139 185 139 193 123 c 1,6,7
 199 107 199 107 215 107 c 0,8,9
 225 107 225 107 244 131 c 0,10,11
 266 158 266 158 272 170 c 0,12,13
 277 180 277 180 286 180 c 2,14,-1
 287 180 l 1,15,16
 296 179 296 179 300 170 c 1,17,-1
 121 -500 l 1,18,19
 111 -510 111 -510 93.5 -510 c 128,-1,20
 76 -510 76 -510 66 -500 c 1,21,-1
 167 -173 l 1,22,23
 102 -196 102 -196 61 -196 c 0,24,25
 26 -196 26 -196 0 -174 c 1,26,27
 -26 -153 -26 -153 -26 -117 c 0,28,29
 -26 -87 -26 -87 -6 -66 c 0,30,31
 15 -45 15 -45 46 -45 c 0,32,33
 75 -45 75 -45 88 -61 c 0,34,35
 103 -78 103 -78 105 -94 c 0,36,37
 108 -114 108 -114 115 -127 c 0,38,39
 122 -143 122 -143 137 -143 c 0,40,41
 149 -143 149 -143 170 -115 c 1,42,43
 192 -90 192 -90 197 -75 c 2,44,-1
 243 76 l 1,45,46
 181 54 181 54 139 54 c 0,47,48
 104 54 104 54 78 76 c 1,49,50
 52 97 52 97 52 133 c 0,51,52
 52 163 52 163 73 184 c 0,53,54
 95 205 95 205 125 205 c 0,0,1
EndSplineSet
Validated: 1
EndChar

StartChar: uniE4E8
Encoding: 58600 58600 98
Width: 324
Flags: W
LayerCount: 2
Fore
SplineSet
154 455 m 0,0,1
 182 455 182 455 197 439 c 1,2,3
 212 421 212 421 213 406 c 1,4,5
 215 391 215 391 223 373 c 1,6,7
 232 357 232 357 245 357 c 0,8,9
 254 357 254 357 273 381 c 1,10,11
 291 406 291 406 297 420 c 0,12,13
 302 430 302 430 311 430 c 2,14,-1
 312 430 l 1,15,16
 322 429 322 429 325 420 c 1,17,-1
 109 -500 l 1,18,19
 99 -510 99 -510 81 -510 c 0,20,21
 64 -510 64 -510 54 -500 c 1,22,-1
 140 -173 l 1,23,24
 78 -196 78 -196 32 -196 c 0,25,26
 -2 -196 -2 -196 -29 -174 c 1,27,28
 -54 -152 -54 -152 -55 -117 c 0,29,30
 -55 -87 -55 -87 -33 -66 c 1,31,32
 -12 -45 -12 -45 17 -45 c 0,33,34
 45 -45 45 -45 60 -61 c 0,35,36
 76 -78 76 -78 76 -94 c 1,37,38
 79 -114 79 -114 86 -127 c 0,39,40
 93 -143 93 -143 108 -143 c 0,41,42
 119 -143 119 -143 142 -115 c 1,43,44
 163 -88 163 -88 167 -72 c 2,45,-1
 206 77 l 1,46,47
 141 54 141 54 100 54 c 0,48,49
 65 54 65 54 39 76 c 1,50,51
 13 97 13 97 13 133 c 0,52,53
 13 163 13 163 34 184 c 0,54,55
 55 205 55 205 86 205 c 0,56,57
 115 205 115 205 128 189 c 0,58,59
 142 172 142 172 145 156 c 0,60,61
 148 136 148 136 154 123 c 0,62,63
 161 107 161 107 176 107 c 0,64,65
 187 107 187 107 207 135 c 1,66,67
 228 159 228 159 232 175 c 2,68,-1
 272 326 l 1,69,70
 210 304 210 304 169 304 c 0,71,72
 135 304 135 304 107 326 c 1,73,74
 82 348 82 348 82 383 c 0,75,76
 82 413 82 413 104 434 c 1,77,78
 124 455 124 455 154 455 c 0,0,1
EndSplineSet
Validated: 1
EndChar

StartChar: uniE4E9
Encoding: 58601 58601 99
Width: 349
Flags: W
LayerCount: 2
Fore
SplineSet
184 455 m 0,0,1
 212 455 212 455 227 439 c 0,2,3
 242 422 242 422 244 406 c 1,4,5
 245 387 245 387 253 373 c 1,6,7
 260 357 260 357 275 357 c 0,8,9
 283 357 283 357 300 381 c 0,10,11
 314 402 314 402 322 420 c 0,12,13
 327 430 327 430 336 430 c 0,14,15
 346 429 346 429 350 420 c 1,16,-1
 115 -750 l 1,17,18
 105 -760 105 -760 87 -760 c 0,19,20
 70 -760 70 -760 60 -750 c 1,21,-1
 133 -422 l 1,22,23
 69 -446 69 -446 20 -446 c 0,24,25
 -15 -446 -15 -446 -41 -424 c 1,26,27
 -67 -403 -67 -403 -67 -367 c 0,28,29
 -67 -337 -67 -337 -46 -316 c 0,30,31
 -25 -295 -25 -295 6 -295 c 0,32,33
 35 -295 35 -295 48 -311 c 0,34,35
 62 -328 62 -328 64 -344 c 0,36,37
 67 -364 67 -364 74 -377 c 0,38,39
 81 -393 81 -393 96 -393 c 0,40,41
 108 -393 108 -393 131 -363 c 0,42,43
 153 -335 153 -335 156 -320 c 2,44,-1
 189 -173 l 1,45,46
 127 -196 127 -196 80 -196 c 0,47,48
 45 -196 45 -196 20 -174 c 1,49,50
 -6 -153 -6 -153 -7 -117 c 0,51,52
 -7 -87 -7 -87 14 -66 c 0,53,54
 35 -45 35 -45 65 -45 c 0,55,56
 94 -45 94 -45 107 -61 c 0,57,58
 122 -78 122 -78 125 -94 c 1,59,60
 126 -113 126 -113 134 -127 c 1,61,62
 141 -143 141 -143 156 -143 c 0,63,64
 166 -143 166 -143 188 -115 c 1,65,66
 209 -86 209 -86 211 -72 c 2,67,-1
 245 77 l 1,68,69
 180 54 180 54 139 54 c 0,70,71
 104 54 104 54 78 76 c 1,72,73
 52 97 52 97 52 133 c 0,74,75
 52 163 52 163 73 184 c 0,76,77
 94 205 94 205 125 205 c 0,78,79
 154 205 154 205 167 189 c 0,80,81
 181 172 181 172 184 156 c 1,82,83
 185 139 185 139 193 123 c 1,84,85
 199 107 199 107 215 107 c 0,86,87
 226 107 226 107 244.5 134.5 c 128,-1,88
 263 162 263 162 267 175 c 1,89,-1
 301 326 l 1,90,91
 239 304 239 304 199 304 c 0,92,93
 164 304 164 304 139 326 c 0,94,95
 113 348 113 348 112 383 c 0,96,97
 112 413 112 413 133 434 c 0,98,99
 154 455 154 455 184 455 c 0,0,1
EndSplineSet
Validated: 1
EndChar

StartChar: uniE4EA
Encoding: 58602 58602 100
Width: 375
Flags: W
LayerCount: 2
Fore
SplineSet
214 705 m 0,0,1
 242 705 242 705 257 689 c 0,2,3
 273 672 273 672 273 656 c 1,4,5
 276 636 276 636 283 623 c 0,6,7
 290 607 290 607 305 607 c 0,8,9
 318 607 318 607 347 670 c 0,10,11
 352 680 352 680 360 680 c 2,12,-1
 361 680 l 1,13,14
 371 679 371 679 375 670 c 1,15,-1
 138 -750 l 1,16,17
 128 -760 128 -760 110 -760 c 0,18,19
 93 -760 93 -760 83 -750 c 1,20,-1
 144 -421 l 1,21,22
 74 -446 74 -446 27 -446 c 0,23,24
 -8 -446 -8 -446 -33 -424 c 1,25,26
 -59 -403 -59 -403 -60 -367 c 0,27,28
 -60 -337 -60 -337 -39 -316 c 128,-1,29
 -18 -295 -18 -295 12 -295 c 0,30,31
 40 -295 40 -295 55 -311 c 0,32,33
 70 -328 70 -328 72 -344 c 1,34,35
 73 -363 73 -363 81 -377 c 1,36,37
 88 -393 88 -393 103 -393 c 0,38,39
 116 -393 116 -393 139 -363 c 1,40,41
 162 -331 162 -331 163 -317 c 1,42,-1
 190 -172 l 1,43,44
 123 -196 123 -196 77 -196 c 0,45,46
 43 -196 43 -196 16 -174 c 1,47,48
 -9 -152 -9 -152 -10 -117 c 0,49,50
 -10 -87 -10 -87 12 -66 c 1,51,52
 33 -45 33 -45 62 -45 c 0,53,54
 90 -45 90 -45 104 -61 c 0,55,56
 120 -78 120 -78 121 -94 c 1,57,58
 124 -114 124 -114 131 -127 c 0,59,60
 138 -143 138 -143 153 -143 c 0,61,62
 165 -143 165 -143 186 -113 c 1,63,64
 207 -86 207 -86 209 -70 c 2,65,-1
 236 77 l 1,66,67
 174 54 174 54 128 54 c 0,68,69
 94 54 94 54 66 76 c 1,70,71
 41 98 41 98 41 133 c 0,72,73
 41 163 41 163 62 184 c 129,-1,74
 83 205 83 205 113 205 c 0,75,76
 141 205 141 205 156 189 c 1,77,78
 171 171 171 171 172 156 c 1,79,80
 174 141 174 141 182 123 c 1,81,82
 191 107 191 107 204 107 c 0,83,84
 214 107 214 107 233 135 c 129,-1,85
 252 163 252 163 255 178 c 2,86,-1
 283 326 l 1,87,88
 221 304 221 304 178 304 c 0,89,90
 143 304 143 304 117 326 c 128,-1,91
 91 348 91 348 91 383 c 0,92,93
 91 413 91 413 111 434 c 0,94,95
 132 455 132 455 163 455 c 0,96,97
 192 455 192 455 205 439 c 0,98,99
 220 422 220 422 223 406 c 1,100,101
 224 389 224 389 232 373 c 1,102,103
 238 357 238 357 254 357 c 0,104,105
 264 357 264 357 281 385 c 0,106,107
 298 412 298 412 301 425 c 2,108,-1
 329 576 l 1,109,110
 269 554 269 554 229 554 c 0,111,112
 194 554 194 554 168 576 c 1,113,114
 142 597 142 597 142 633 c 0,115,116
 142 663 142 663 162 684 c 0,117,118
 184 705 184 705 214 705 c 0,0,1
EndSplineSet
Validated: 1
EndChar

StartChar: uniE4F4
Encoding: 58612 58612 101
Width: 375
Flags: W
LayerCount: 2
Fore
SplineSet
365 -156 m 2,0,-1
 10 -156 l 2,1,2
 0 -156 0 -156 0 -146 c 2,3,-1
 0 -25 l 1,4,-1
 -131 -25 l 2,5,6
 -141 -25 -141 -25 -148 -18 c 0,7,8
 -156 -11 -156 -11 -156 0 c 128,-1,9
 -156 11 -156 11 -148 18 c 1,10,11
 -142 26 -142 26 -131 25 c 2,12,-1
 506 25 l 2,13,14
 516 25 516 25 523.5 17.5 c 128,-1,15
 531 10 531 10 531 0 c 128,-1,16
 531 -10 531 -10 523.5 -17.5 c 128,-1,17
 516 -25 516 -25 506 -25 c 2,18,-1
 375 -25 l 1,19,-1
 375 -146 l 2,20,21
 375 -156 375 -156 365 -156 c 2,0,-1
EndSplineSet
Validated: 1
EndChar

StartChar: uniE4F5
Encoding: 58613 58613 102
Width: 375
Flags: W
LayerCount: 2
Fore
SplineSet
506 -25 m 2,0,-1
 -131 -25 l 2,1,2
 -141 -25 -141 -25 -148 -18 c 0,3,4
 -156 -11 -156 -11 -156 0 c 128,-1,5
 -156 11 -156 11 -148 18 c 1,6,7
 -142 26 -142 26 -131 25 c 2,8,-1
 0 25 l 1,9,-1
 0 146 l 2,10,11
 0 156 0 156 10 156 c 2,12,-1
 365 156 l 2,13,14
 375 156 375 156 375 146 c 2,15,-1
 375 25 l 1,16,-1
 506 25 l 2,17,18
 516 25 516 25 523.5 17.5 c 128,-1,19
 531 10 531 10 531 0 c 128,-1,20
 531 -10 531 -10 523.5 -17.5 c 128,-1,21
 516 -25 516 -25 506 -25 c 2,0,-1
EndSplineSet
Validated: 1
EndChar

StartChar: uniE4F2
Encoding: 58610 58610 103
Width: 250
Flags: W
LayerCount: 2
Fore
SplineSet
180 205 m 0,0,1
 210 205 210 205 231 184 c 0,2,3
 252 163 252 163 253 133 c 0,4,5
 253 98 253 98 227 76 c 1,6,7
 202 54 202 54 166 54 c 0,8,9
 125 54 125 54 61 76 c 1,10,-1
 178 -250 l 1,11,12
 168 -260 168 -260 150 -260 c 0,13,14
 133 -260 133 -260 123 -250 c 1,15,-1
 0 170 l 1,16,17
 5 180 5 180 14 180 c 1,18,19
 25 178 25 178 28 170 c 0,20,21
 35 156 35 156 56.5 131.5 c 128,-1,22
 78 107 78 107 89 107 c 0,23,24
 103 107 103 107 111 123 c 1,25,26
 119 142 119 142 121 156 c 1,27,28
 122 172 122 172 137 189 c 1,29,30
 152 205 152 205 180 205 c 0,0,1
EndSplineSet
Validated: 1
EndChar

StartChar: uniE047
Encoding: 57415 57415 104
Width: 400
Flags: W
HStem: 0 24<250.448 315.953> 236 48<45.2196 79.2959> 316 48<320.704 354.78> 576 24<84.0474 149.552>
VStem: 0 62<443.393 548.837> 38 48<243.219 276.781> 138 90<450.47 528.809> 172 90<71.4568 149.53> 314 48<323.219 356.781> 338 62<51.1632 156.607>
DStem2: 0 0 48 0 0.506015 0.862525<24.2887 323.125 396.796 695.632>
LayerCount: 2
Fore
SplineSet
314 340 m 128,-1,1
 314 350 314 350 320.5 357 c 128,-1,2
 327 364 327 364 337.5 364 c 128,-1,3
 348 364 348 364 355 357 c 128,-1,4
 362 350 362 350 362 340 c 128,-1,5
 362 330 362 330 355 323 c 128,-1,6
 348 316 348 316 337.5 316 c 128,-1,7
 327 316 327 316 320.5 323 c 128,-1,0
 314 330 314 330 314 340 c 128,-1,1
38 260 m 128,-1,9
 38 270 38 270 45 277 c 128,-1,10
 52 284 52 284 62.5 284 c 128,-1,11
 73 284 73 284 79.5 277 c 128,-1,12
 86 270 86 270 86 260 c 128,-1,13
 86 250 86 250 79.5 243 c 128,-1,14
 73 236 73 236 62.5 236 c 128,-1,15
 52 236 52 236 45 243 c 128,-1,8
 38 250 38 250 38 260 c 128,-1,9
172 118 m 3,16,17
 172 165 172 165 215 166 c 3,18,19
 237 166 237 166 250 150 c 0,20,21
 262 135 262 135 262 116 c 3,22,23
 262 99 262 99 253 84 c 1,24,25
 243 70 243 70 230 65 c 1,26,27
 234 47 234 47 250 36 c 0,28,29
 266 24 266 24 285 24 c 3,30,31
 307 24 307 24 322 42 c 0,32,33
 337 59 337 59 338 84 c 0,34,35
 338 180 338 180 200 259 c 1,36,-1
 48 0 l 1,37,-1
 0 0 l 1,38,-1
 163 279 l 1,39,40
 89 320 89 320 44 367 c 0,41,42
 0 413 0 413 0 475 c 3,43,44
 0 528 0 528 34 564 c 128,-1,45
 68 600 68 600 115 600 c 3,46,47
 161 600 161 600 195 566 c 1,48,49
 228 531 228 531 228 482 c 3,50,51
 228 435 228 435 185 434 c 3,52,53
 163 434 163 434 150 450 c 0,54,55
 138 465 138 465 138 484 c 3,56,57
 138 501 138 501 147 516 c 1,58,59
 157 530 157 530 170 535 c 1,60,61
 166 553 166 553 150 564 c 0,62,63
 134 576 134 576 115 576 c 3,64,65
 93 576 93 576 78 558 c 0,66,67
 63 541 63 541 62 516 c 3,68,69
 62 420 62 420 200 341 c 1,70,-1
 352 600 l 1,71,-1
 400 600 l 1,72,-1
 237 321 l 1,73,74
 311 280 311 280 356 233 c 0,75,76
 400 187 400 187 400 125 c 3,77,78
 400 72 400 72 366 36 c 128,-1,79
 332 0 332 0 285 0 c 3,80,81
 239 0 239 0 205 35 c 1,82,83
 172 69 172 69 172 118 c 3,16,17
EndSplineSet
Validated: 1
EndChar

StartChar: uniE048
Encoding: 57416 57416 105
Width: 671
Flags: W
HStem: 293 36<0.00585938 128 220 317 353 451 541 670.994> 583 39<275.125 317>
VStem: 128 92<162.927 293 329 458.226> 317 36<-128.994 2.35547 37 293 329 583 619.653 749.994> 451 90<163.403 293 329 459.92>
LayerCount: 2
Fore
SplineSet
353 -111 m 2,0,1
 353 -120 353 -120 346 -123 c 1,2,3
 343 -129 343 -129 334.5 -129 c 128,-1,4
 326 -129 326 -129 323 -123 c 1,5,6
 317 -120 317 -120 317 -111 c 2,7,-1
 317 0 l 1,8,9
 230 9 230 9 181 94 c 1,10,11
 131 175 131 175 128 293 c 1,12,-1
 19 293 l 2,13,14
 10 293 10 293 6 300 c 1,15,16
 0 303 0 303 0 311.5 c 128,-1,17
 0 320 0 320 6 323 c 1,18,19
 9 329 9 329 19 329 c 2,20,-1
 128 329 l 1,21,22
 131 446 131 446 181 527 c 1,23,24
 228 611 228 611 317 622 c 1,25,-1
 317 732 l 2,26,27
 317 741 317 741 323 744 c 1,28,29
 326 750 326 750 335.5 750 c 128,-1,30
 345 750 345 750 346 744 c 1,31,32
 352 741 352 741 353 732 c 2,33,-1
 353 622 l 1,34,35
 440 613 440 613 488 529 c 1,36,37
 538 448 538 448 541 329 c 1,38,-1
 652 329 l 2,39,40
 661 329 661 329 665 323 c 1,41,42
 671 320 671 320 671 310.5 c 128,-1,43
 671 301 671 301 665 300 c 1,44,45
 662 294 662 294 652 293 c 2,46,-1
 541 293 l 1,47,48
 538 176 538 176 488 94 c 1,49,50
 441 10 441 10 353 0 c 1,51,-1
 353 -111 l 2,0,1
353 329 m 1,52,-1
 451 329 l 1,53,54
 451 382 451 382 446 418 c 0,55,56
 441 459 441 459 435 493 c 0,57,58
 426 532 426 532 406 555 c 0,59,60
 387 577 387 577 353 583 c 1,61,-1
 353 329 l 1,52,-1
353 293 m 1,62,-1
 353 37 l 1,63,64
 387 43 387 43 406 66 c 0,65,66
 426 89 426 89 435 128 c 0,67,68
 443 162 443 162 446 204 c 0,69,70
 449 240 449 240 451 293 c 1,71,-1
 353 293 l 1,62,-1
317 329 m 1,72,-1
 317 583 l 1,73,74
 283 577 283 577 265 555 c 0,75,76
 245 532 245 532 234 493 c 0,77,78
 226 460 226 460 223 418 c 0,79,80
 220 382 220 382 220 329 c 1,81,-1
 317 329 l 1,72,-1
317 293 m 1,82,-1
 220 293 l 1,83,84
 220 240 220 240 223 204 c 0,85,86
 228 163 228 163 234 128 c 0,87,88
 243 89 243 89 265 66 c 0,89,90
 284 44 284 44 317 37 c 1,91,-1
 317 293 l 1,82,-1
EndSplineSet
Validated: 1
EndChar

StartChar: uniE04A
Encoding: 57418 57418 106
Width: 269
Flags: W
HStem: -28 22<108.635 207.194> 812 22<60.8184 161.726>
VStem: -1 18<291.808 336.183 425.929 480.234 569.56 622.94> 2 31<718.973 787.682> 11 60<47.2502 81.687> 197 60<724.313 770.686> 235 31<18.3618 88.2246> 252 17<182.719 236.153 325.483 379.653 469.539 514.295>
DStem2: 84 257 53 212 0.820398 -0.571793<-73.4852 166.233> 84 687 91 615 0.817482 -0.575954<-5.49552 234.746> 150 497 114 456 0.820398 -0.571793<-86.0148 85.7842> 84 400 119 309 0.817661 -0.5757<-5.51606 165.863>
LayerCount: 2
Fore
SplineSet
11 64 m 0,0,1
 11 76 11 76 19 83 c 1,2,3
 27 92 27 92 40 92 c 0,4,5
 55 92 55 92 63 82 c 128,-1,6
 71 72 71 72 71 60 c 0,7,8
 71 45 71 45 61 36 c 1,9,10
 105 -5 105 -5 163 -6 c 0,11,12
 192 -6 192 -6 214 9 c 0,13,14
 235 23 235 23 235 50 c 0,15,16
 235 85 235 85 185 120 c 2,17,-1
 53 212 l 2,18,19
 29 228 29 228 14 254 c 0,20,21
 -1 278 -1 278 -1 303 c 0,22,23
 -1 324 -1 324 11 341 c 0,24,25
 22 358 22 358 38 368 c 1,26,27
 -1 403 -1 403 -1 447 c 0,28,29
 -1 468 -1 468 11 485 c 0,30,31
 21 502 21 502 38 511 c 1,32,33
 -1 547 -1 547 -1 590 c 0,34,35
 -1 610 -1 610 11 628 c 1,36,37
 22 646 22 646 38 654 c 1,38,39
 2 688 2 688 2 735 c 0,40,41
 2 766 2 766 19 790 c 1,42,43
 34 812 34 812 59 823 c 128,-1,44
 84 834 84 834 113 834 c 0,45,46
 125 834 125 834 134 833 c 0,47,48
 170 829 170 829 201 809 c 0,49,50
 231 790 231 790 253 759 c 1,51,52
 257 752 257 752 257 743 c 0,53,54
 257 731 257 731 249 723 c 1,55,56
 241 714 241 714 229 714 c 0,57,58
 214 714 214 714 205.5 724 c 128,-1,59
 197 734 197 734 197 746 c 0,60,61
 197 761 197 761 208 771 c 1,62,63
 164 812 164 812 106 812 c 0,64,65
 76 812 76 812 54 797 c 0,66,67
 33 783 33 783 33 757 c 0,68,69
 33 722 33 722 84 687 c 2,70,-1
 216 594 l 2,71,72
 240 578 240 578 254 553 c 0,73,74
 269 529 269 529 269 504 c 0,75,76
 269 483 269 483 258 465 c 0,77,78
 247 448 247 448 231 438 c 1,79,80
 269 403 269 403 269 360 c 0,81,82
 269 339 269 339 258 321 c 0,83,84
 247 304 247 304 231 295 c 1,85,86
 269 259 269 259 269 217 c 0,87,88
 269 197 269 197 258 178 c 1,89,90
 247 160 247 160 231 152 c 1,91,92
 266 118 266 118 266 71 c 0,93,94
 266 40 266 40 249 16 c 1,95,96
 234 -6 234 -6 209 -17 c 128,-1,97
 184 -28 184 -28 155 -28 c 0,98,99
 143 -28 143 -28 134 -27 c 0,100,101
 98 -23 98 -23 67 -2 c 0,102,103
 37 17 37 17 15 47 c 1,104,105
 11 55 11 55 11 64 c 0,0,1
227 457 m 128,-1,107
 237 457 237 457 244 464 c 128,-1,108
 251 471 251 471 252 480 c 0,109,110
 252 491 252 491 240 504 c 0,111,112
 230 516 230 516 217 526 c 0,113,114
 206 535 206 535 185 550 c 2,115,-1
 119 596 l 2,116,117
 98 611 98 611 91 615 c 0,118,119
 83 620 83 620 66 629 c 0,120,121
 52 636 52 636 41 636 c 0,122,123
 31 636 31 636 24 629 c 128,-1,124
 17 622 17 622 17 613 c 0,125,126
 17 603 17 603 29 588 c 0,127,128
 39 576 39 576 51 566 c 0,129,130
 62 557 62 557 84 543 c 2,131,-1
 150 497 l 2,132,133
 162 488 162 488 178 478 c 0,134,135
 186 473 186 473 203 464 c 0,136,106
 217 457 217 457 227 457 c 128,-1,107
227 171 m 128,-1,138
 237 171 237 171 244 177 c 0,139,140
 251 184 251 184 252 194 c 0,141,142
 252 204 252 204 240 218 c 0,143,144
 230 230 230 230 217 240 c 0,145,146
 206 249 206 249 185 264 c 2,147,-1
 119 309 l 2,148,149
 107 318 107 318 91 328 c 0,150,151
 83 333 83 333 66 342 c 0,152,153
 52 349 52 349 41 349 c 0,154,155
 31 349 31 349 24 342 c 128,-1,156
 17 335 17 335 17 326 c 0,157,158
 17 315 17 315 29 302 c 0,159,160
 39 290 39 290 51 280 c 0,161,162
 62 271 62 271 84 257 c 2,163,-1
 150 210 l 2,164,165
 171 195 171 195 178 191 c 0,166,167
 186 186 186 186 203 177 c 0,168,137
 217 171 217 171 227 171 c 128,-1,138
41 492 m 0,169,170
 31 492 31 492 24 486 c 0,171,172
 17 479 17 479 17 469 c 128,-1,173
 17 459 17 459 29 445 c 0,174,175
 39 433 39 433 51 423 c 0,176,177
 62 414 62 414 84 400 c 2,178,-1
 154 350 l 1,179,180
 205 314 205 314 227 314 c 0,181,182
 237 314 237 314 244 320 c 0,183,184
 251 327 251 327 252 337 c 0,185,186
 252 347 252 347 240 361 c 0,187,188
 230 373 230 373 217 383 c 0,189,190
 206 392 206 392 185 407 c 2,191,-1
 114 456 l 1,192,193
 62 492 62 492 41 492 c 0,169,170
EndSplineSet
Validated: 1
EndChar

StartChar: uniE049
Encoding: 57417 57417 107
Width: 619
Flags: W
HStem: -1 35<218 293 326 401> 270 34<0.00585938 118 218 293 326 401 502 618.999> 540 35<218 293 326 401>
VStem: 118 100<34 270 304 540> 293 33<-118.999 -1 34 270 304 540 575 692.999> 401 101<34 270 304 540>
CounterMasks: 1 e0
LayerCount: 2
Fore
SplineSet
326 -102 m 2,0,1
 326 -111 326 -111 320 -113 c 1,2,3
 318 -119 318 -119 309.5 -119 c 128,-1,4
 301 -119 301 -119 299 -113 c 1,5,6
 293 -111 293 -111 293 -102 c 2,7,-1
 293 -1 l 1,8,-1
 128 -1 l 2,9,10
 116 -1 116 -1 118 10 c 2,11,-1
 118 270 l 1,12,-1
 17 270 l 2,13,14
 8 270 8 270 6 276 c 1,15,16
 0 278 0 278 0 286.5 c 128,-1,17
 0 295 0 295 6 298 c 1,18,19
 8 304 8 304 17 304 c 2,20,-1
 118 304 l 1,21,-1
 118 564 l 2,22,23
 118 576 118 576 128 575 c 2,24,-1
 293 575 l 1,25,-1
 293 676 l 2,26,27
 293 685 293 685 299 687 c 1,28,29
 301 693 301 693 309.5 693 c 128,-1,30
 318 693 318 693 320 687 c 1,31,32
 326 685 326 685 326 676 c 2,33,-1
 326 575 l 1,34,-1
 491 575 l 2,35,36
 503 575 503 575 502 564 c 2,37,-1
 502 304 l 1,38,-1
 601 304 l 2,39,40
 610 304 610 304 613 298 c 1,41,42
 619 296 619 296 619 287 c 128,-1,43
 619 278 619 278 613 276 c 1,44,45
 611 270 611 270 601 270 c 2,46,-1
 502 270 l 1,47,-1
 502 10 l 2,48,49
 502 -2 502 -2 491 -1 c 2,50,-1
 411 -1 l 1,51,-1
 326 -1 l 1,52,-1
 326 -102 l 2,0,1
326 304 m 1,53,-1
 401 304 l 1,54,-1
 401 540 l 1,55,-1
 326 540 l 1,56,-1
 326 304 l 1,53,-1
326 270 m 1,57,-1
 326 34 l 1,58,-1
 401 34 l 1,59,-1
 401 270 l 1,60,-1
 326 270 l 1,57,-1
293 304 m 1,61,-1
 293 540 l 1,62,-1
 218 540 l 1,63,-1
 218 304 l 1,64,-1
 293 304 l 1,61,-1
293 270 m 1,65,-1
 218 270 l 1,66,-1
 218 34 l 1,67,-1
 293 34 l 1,68,-1
 293 270 l 1,65,-1
EndSplineSet
Validated: 1
EndChar

StartChar: uniE044
Encoding: 57412 57412 108
Width: 113
Flags: W
HStem: -57 114<17.0173 95.9827>
VStem: 0 113<-39.4673 39.4673>
LayerCount: 2
Fore
SplineSet
0 0 m 128,-1,1
 0 23 0 23 16.5 40 c 128,-1,2
 33 57 33 57 56.5 57 c 128,-1,3
 80 57 80 57 96.5 40 c 128,-1,4
 113 23 113 23 113 0 c 128,-1,5
 113 -23 113 -23 96.5 -40 c 128,-1,6
 80 -57 80 -57 56.5 -57 c 128,-1,7
 33 -57 33 -57 16.5 -40 c 128,-1,0
 0 -23 0 -23 0 0 c 128,-1,1
EndSplineSet
EndChar

StartChar: uniE050
Encoding: 57424 57424 109
Width: 628
Flags: W
HStem: -620 42<183.488 327.392> -521 194<141.438 226.737> -256 42<228.08 407.106>
VStem: 0 70<-22.2583 147.63> 61 203<-486.362 -367.068> 167 59<-32.2285 95.5348> 191 49<656.205 920.5> 416 41<-471.881 -248> 418 68<771.781 948.172> 559 69<-102.605 48.1659>
DStem2: 116 393 215 349 0.651804 0.758388<-150.484 126.827 163.52 205.67 243.939 417.177> 275 578 242 540 0.269014 -0.963136<-179.682 0 152.019 328.821> 390 147 347 147 0.142605 -0.98978<0 202.675>
LayerCount: 2
Fore
SplineSet
365 256 m 1,0,1
 371 257 371 257 378 257 c 3,2,3
 487 257 487 257 558 180 c 0,4,5
 628 104 628 104 628 2 c 3,6,7
 628 -124 628 -124 523 -203 c 0,8,9
 496 -224 496 -224 452 -238 c 1,10,11
 457 -301 457 -301 457 -341 c 0,12,13
 457 -349 457 -349 455 -397 c 0,14,15
 451 -488 451 -488 393 -555 c 0,16,17
 336 -620 336 -620 252 -620 c 3,18,19
 173 -620 173 -620 117 -564 c 0,20,21
 61 -507 61 -507 61 -428 c 3,22,23
 61 -384 61 -384 94 -356 c 24,24,25
 128 -327 128 -327 171 -327 c 3,26,27
 207 -327 207 -327 236 -357 c 24,28,29
 263 -385 263 -385 264 -428 c 3,30,31
 264 -466 264 -466 236.5 -493.5 c 128,-1,32
 209 -521 209 -521 171 -521 c 0,33,34
 155 -521 155 -521 141 -515 c 1,35,36
 184 -578 184 -578 255 -578 c 3,37,38
 322 -578 322 -578 365 -523 c 0,39,40
 410 -466 410 -466 414 -392 c 0,41,42
 416 -345 416 -345 416 -338 c 0,43,44
 416 -283 416 -283 412 -248 c 1,45,46
 363 -256 363 -256 325 -256 c 3,47,48
 189 -256 189 -256 94 -148 c 1,49,50
 0 -40 0 -40 0 109 c 3,51,52
 0 155 0 155 20 230 c 0,53,54
 30 266 30 266 78 340 c 24,55,56
 97 369 97 369 116 393 c 24,57,58
 140 423 140 423 199 492 c 24,59,-1
 242 540 l 1,60,61
 207 656 207 656 198 726 c 0,62,63
 191 782 191 782 191 878 c 3,64,65
 191 963 191 963 230 1037 c 1,66,67
 268 1114 268 1114 337 1163 c 0,68,69
 342 1166 342 1166 347 1166 c 0,70,71
 354 1166 354 1166 356 1163 c 0,72,73
 409 1100 409 1100 447 998 c 0,74,75
 486 896 486 896 486 813 c 3,76,77
 486 719 486 719 441 638 c 1,78,79
 390 551 390 551 310 458 c 1,80,81
 330 394 330 394 365 256 c 1,0,1
448 -198 m 1,82,83
 499 -179 499 -179 527 -135 c 1,84,85
 558 -92 558 -92 559 -38 c 3,86,87
 559 31 559 31 512 85 c 0,88,89
 464 141 464 141 390 147 c 1,90,91
 431 -58 431 -58 448 -198 c 1,82,83
70 27 m 3,92,93
 70 -70 70 -70 148 -143 c 1,94,95
 228 -214 228 -214 328 -214 c 3,96,97
 369 -214 369 -214 408 -208 c 1,98,99
 392 -60 392 -60 347 147 c 1,100,101
 291 141 291 141 258 108 c 0,102,103
 226 75 226 75 226 31 c 3,104,105
 226 -43 226 -43 305 -89 c 1,106,107
 311 -95 311 -95 311 -103 c 128,-1,108
 311 -111 311 -111 305 -118 c 128,-1,109
 299 -125 299 -125 290 -125 c 0,110,111
 289 -125 289 -125 281 -123 c 1,112,113
 225 -93 225 -93 195 -45 c 1,114,115
 167 6 167 6 167 58 c 3,116,117
 167 125 167 125 209 180 c 1,118,119
 253 235 253 235 323 250 c 1,120,121
 296 359 296 359 278 421 c 1,122,123
 224 360 224 360 215 349 c 0,124,125
 133 241 133 241 112 198 c 0,126,127
 70 107 70 107 70 27 c 3,92,93
398 1021 m 1,128,129
 325 985 325 985 283 917 c 0,130,131
 240 848 240 848 240 768 c 3,132,133
 240 698 240 698 275 578 c 1,134,135
 345 663 345 663 381 735 c 0,136,137
 418 811 418 811 418 895 c 3,138,139
 418 958 418 958 398 1021 c 1,128,129
EndSplineSet
Validated: 1
EndChar

StartChar: uniE051
Encoding: 57425 57425 110
Width: 628
Flags: W
HStem: -906 11<140.001 165.605 261.216 283.999 343.919 389.857> -760 14<341.813 391.546> -711 55<322.125 425.065> -620 42<183.488 327.392> -521 194<141.438 226.737> -256 42<228.08 407.106>
VStem: 0 70<-22.2583 147.63> 61 203<-486.362 -367.068> 167 59<-32.2285 95.5348> 184 58<-880.531 -716.001> 191 47<657.574 920.5> 291 45<-890.534 -838.157> 306 14<-768 -713.063> 408 57<-877.797 -768.266> 416 70<771.781 948.172> 416 41<-471.881 -248> 559 69<-102.605 48.1659>
DStem2: 116 393 215 349 0.64705 0.762448<-154.274 126.171 162.741 207.783 242.64 425.021> 125 -781 139 -787 0.426842 0.904326<-3.9597 80.0827> 273 578 242 540 0.269014 -0.963136<-179.144 0 152.557 329.359> 390 147 347 147 0.142605 -0.98978<0 202.675>
LayerCount: 2
Fore
SplineSet
365 256 m 1,0,1
 371 257 371 257 378 257 c 3,2,3
 487 257 487 257 558 180 c 0,4,5
 628 104 628 104 628 2 c 3,6,7
 628 -124 628 -124 523 -203 c 0,8,9
 496 -224 496 -224 452 -238 c 1,10,11
 457 -301 457 -301 457 -341 c 0,12,13
 457 -349 457 -349 455 -397 c 0,14,15
 451 -488 451 -488 393 -555 c 0,16,17
 336 -620 336 -620 252 -620 c 3,18,19
 173 -620 173 -620 117 -564 c 0,20,21
 61 -507 61 -507 61 -428 c 3,22,23
 61 -384 61 -384 94 -356 c 24,24,25
 128 -327 128 -327 171 -327 c 3,26,27
 207 -327 207 -327 236 -357 c 24,28,29
 263 -385 263 -385 264 -428 c 0,30,31
 264 -466 264 -466 236.5 -493.5 c 128,-1,32
 209 -521 209 -521 171 -521 c 0,33,34
 155 -521 155 -521 141 -515 c 1,35,36
 184 -578 184 -578 255 -578 c 3,37,38
 322 -578 322 -578 365 -523 c 0,39,40
 410 -466 410 -466 414 -392 c 0,41,42
 416 -345 416 -345 416 -338 c 0,43,44
 416 -283 416 -283 412 -248 c 1,45,46
 363 -256 363 -256 325 -256 c 3,47,48
 189 -256 189 -256 94 -148 c 1,49,50
 0 -40 0 -40 0 109 c 3,51,52
 0 155 0 155 20 230 c 0,53,54
 30 266 30 266 78 340 c 24,55,56
 97 369 97 369 116 393 c 24,57,58
 140 423 140 423 199 492 c 24,59,-1
 242 540 l 1,60,61
 207 656 207 656 198 726 c 0,62,63
 191 782 191 782 191 878 c 0,64,65
 191 963 191 963 230 1037 c 1,66,67
 268 1114 268 1114 337 1163 c 0,68,69
 342 1166 342 1166 347 1166 c 0,70,71
 354 1166 354 1166 356 1163 c 0,72,73
 409 1100 409 1100 447 998 c 0,74,75
 486 896 486 896 486 813 c 3,76,77
 486 719 486 719 441 638 c 1,78,79
 390 551 390 551 310 458 c 1,80,81
 330 394 330 394 365 256 c 1,0,1
448 -198 m 1,82,83
 499 -179 499 -179 527 -135 c 1,84,85
 558 -92 558 -92 559 -38 c 0,86,87
 559 31 559 31 512 85 c 0,88,89
 464 141 464 141 390 147 c 1,90,91
 431 -58 431 -58 448 -198 c 1,82,83
70 27 m 3,92,93
 70 -70 70 -70 148 -143 c 1,94,95
 228 -214 228 -214 328 -214 c 3,96,97
 369 -214 369 -214 408 -208 c 1,98,99
 392 -60 392 -60 347 147 c 1,100,101
 291 141 291 141 258 108 c 0,102,103
 226 75 226 75 226 31 c 3,104,105
 226 -43 226 -43 305 -89 c 1,106,107
 311 -95 311 -95 311 -103 c 128,-1,108
 311 -111 311 -111 305 -118 c 128,-1,109
 299 -125 299 -125 290 -125 c 0,110,111
 289 -125 289 -125 281 -123 c 1,112,113
 225 -93 225 -93 195 -45 c 1,114,115
 167 6 167 6 167 58 c 3,116,117
 167 125 167 125 209 180 c 1,118,119
 253 235 253 235 323 250 c 1,120,121
 296 359 296 359 278 421 c 1,122,123
 224 360 224 360 215 349 c 0,124,125
 133 241 133 241 112 198 c 0,126,127
 70 107 70 107 70 27 c 3,92,93
396 1021 m 1,128,129
 323 985 323 985 281 917 c 0,130,131
 238 848 238 848 238 768 c 0,132,133
 238 698 238 698 273 578 c 1,134,135
 343 663 343 663 379 735 c 0,136,137
 416 811 416 811 416 895 c 3,138,139
 416 958 416 958 396 1021 c 1,128,129
213 -662 m 3,140,141
 218 -662 218 -662 227 -659 c 2,142,-1
 235 -656 l 1,143,144
 241 -656 241 -656 242 -664 c 1,145,-1
 242 -848 l 2,146,147
 242 -869 242 -869 252 -881 c 0,148,149
 263 -895 263 -895 278 -895 c 0,150,151
 284 -895 284 -895 284 -900.5 c 131,-1,152
 284 -906 284 -906 278 -906 c 0,153,154
 263 -906 263 -906 245 -903 c 0,155,156
 223 -900 223 -900 213 -900 c 155,-1,157
 203 -900 203 -900 180 -903 c 128,-1,158
 157 -906 157 -906 146 -906 c 0,159,160
 140 -906 140 -906 140 -900.5 c 131,-1,161
 140 -895 140 -895 146 -895 c 0,162,163
 165 -895 165 -895 174 -881 c 24,164,165
 184 -866 184 -866 184 -848 c 2,166,-1
 184 -725 l 2,167,168
 184 -722 184 -722 181 -719 c 128,-1,169
 178 -716 178 -716 175 -716 c 131,-1,170
 172 -716 172 -716 170 -719 c 2,171,-1
 139 -787 l 2,172,173
 136 -792 136 -792 131 -792 c 3,174,175
 124 -792 124 -792 124 -785 c 3,176,177
 124 -782 124 -782 125 -781 c 2,178,-1
 184 -656 l 2,179,180
 184 -654 184 -654 186 -654 c 2,181,-1
 197 -658 l 1,182,183
 205 -662 205 -662 213 -662 c 3,140,141
313 -656 m 0,184,185
 316 -656 316 -656 322 -658 c 24,186,187
 334 -662 334 -662 383 -662 c 3,188,189
 403 -662 403 -662 424 -660 c 2,190,-1
 447 -657 l 2,191,192
 451 -656 451 -656 455 -656 c 0,193,194
 458 -656 458 -656 459.5 -657 c 128,-1,195
 461 -658 461 -658 461 -660 c 1,196,197
 461 -663 461 -663 460 -664 c 0,198,199
 413 -711 413 -711 328 -711 c 0,200,201
 326 -711 326 -711 322 -713 c 0,202,203
 320 -715 320 -715 320 -719 c 2,204,-1
 320 -768 l 1,205,206
 341 -747 341 -747 373 -746 c 0,207,208
 418 -746 418 -746 441 -766 c 0,209,210
 464 -787 464 -787 465 -826 c 0,211,212
 465 -860 465 -860 437 -884 c 0,213,214
 410 -906 410 -906 373 -906 c 3,215,216
 339 -906 339 -906 315 -892 c 0,217,218
 291 -877 291 -877 291 -850 c 3,219,220
 291 -836 291 -836 301 -826 c 24,221,222
 313 -816 313 -816 324 -816 c 3,223,224
 337 -816 337 -816 346.5 -826 c 128,-1,225
 356 -836 356 -836 356 -850 c 3,226,227
 356 -857 356 -857 347 -863 c 0,228,229
 336 -871 336 -871 336 -877 c 0,230,231
 336 -895 336 -895 373 -895 c 3,232,233
 408 -895 408 -895 408 -826 c 3,234,235
 408 -760 408 -760 373 -760 c 3,236,237
 360 -760 360 -760 345 -764 c 1,238,239
 332 -769 332 -769 328 -773 c 0,240,241
 325 -776 325 -776 319 -781 c 0,242,243
 314 -785 314 -785 312 -785 c 0,244,245
 306 -785 306 -785 306 -778 c 2,246,-1
 306 -664 l 2,247,248
 306 -656 306 -656 313 -656 c 0,184,185
EndSplineSet
Validated: 1
EndChar

StartChar: uniE052
Encoding: 57426 57426 111
Width: 538
Flags: W
HStem: 288 276<125.737 225.488>
VStem: 280 49<551 930 1069.01 1198.9> 454 42<428.195 498.825> 496 42<512.125 734.981>
LayerCount: 2
Fore
SplineSet
329 1173 m 1,0,1
 329 1127 329 1127 351 1069 c 0,2,3
 376 1002 376 1002 402 963 c 0,4,5
 423 931 423 931 464 865 c 0,6,7
 495 814 495 814 516.5 758 c 128,-1,8
 538 702 538 702 538 647 c 3,9,10
 538 545 538 545 496 440 c 1,11,12
 489 428 489 428 478 428 c 3,13,14
 468 428 468 428 460 436 c 0,15,16
 454 442 454 442 454 451 c 2,17,-1
 454 455 l 1,18,19
 496 552 496 552 496 647 c 3,20,21
 496 696 496 696 467 752 c 0,22,23
 441 804 441 804 407 844 c 128,-1,24
 373 884 373 884 329 930 c 1,25,-1
 329 459 l 2,26,27
 329 400 329 400 260 333 c 0,28,29
 214 288 214 288 109 288 c 3,30,31
 62 288 62 288 30 313 c 1,32,33
 0 339 0 339 0 379 c 3,34,35
 0 446 0 446 70 505 c 1,36,37
 139 564 139 564 220 564 c 3,38,39
 254 564 254 564 280 551 c 1,40,-1
 280 1173 l 2,41,42
 280 1199 280 1199 304.5 1199 c 131,-1,43
 329 1199 329 1199 329 1173 c 1,0,1
EndSplineSet
Validated: 1
EndChar

StartChar: uniE053
Encoding: 57427 57427 112
Width: 628
Flags: W
HStem: -620 42<183.488 327.392> -521 194<141.438 226.737> -256 42<228.08 407.106> 1223 11<320.47 371.099> 1461 12<331.786 382.865>
VStem: 0 70<-22.2583 147.63> 61 203<-486.362 -367.068> 167 59<-32.2285 95.5348> 191 47<657.574 920.5> 258 21<1262.54 1322.04> 266 50<1395.41 1451.82> 393 50<1245.9 1308.92> 412 22<1385.47 1443.19> 416 70<771.781 948.172> 416 41<-471.881 -248> 559 69<-102.605 48.1659>
DStem2: 116 393 215 349 0.64705 0.762448<-154.274 126.171 162.741 207.783 242.64 425.021> 273 578 242 540 0.269014 -0.963136<-179.144 0 152.557 329.359> 331 1399 310 1344 0.865982 -0.500074<3.42081 67.6219 81.9878 115.354> 390 147 347 147 0.142605 -0.98978<0 202.675>
LayerCount: 2
Fore
SplineSet
365 256 m 1,0,1
 371 257 371 257 378 257 c 3,2,3
 487 257 487 257 558 180 c 0,4,5
 628 104 628 104 628 2 c 3,6,7
 628 -124 628 -124 523 -203 c 0,8,9
 496 -224 496 -224 452 -238 c 1,10,11
 457 -301 457 -301 457 -341 c 0,12,13
 457 -349 457 -349 455 -397 c 0,14,15
 451 -488 451 -488 393 -555 c 0,16,17
 336 -620 336 -620 252 -620 c 3,18,19
 173 -620 173 -620 117 -564 c 0,20,21
 61 -507 61 -507 61 -428 c 3,22,23
 61 -384 61 -384 94 -356 c 24,24,25
 128 -327 128 -327 171 -327 c 3,26,27
 207 -327 207 -327 236 -357 c 24,28,29
 263 -385 263 -385 264 -428 c 0,30,31
 264 -466 264 -466 236.5 -493.5 c 128,-1,32
 209 -521 209 -521 171 -521 c 3,33,34
 155 -521 155 -521 141 -515 c 1,35,36
 184 -578 184 -578 255 -578 c 3,37,38
 322 -578 322 -578 365 -523 c 0,39,40
 410 -466 410 -466 414 -392 c 0,41,42
 416 -345 416 -345 416 -338 c 0,43,44
 416 -283 416 -283 412 -248 c 1,45,46
 363 -256 363 -256 325 -256 c 3,47,48
 189 -256 189 -256 94 -148 c 1,49,50
 0 -40 0 -40 0 109 c 3,51,52
 0 155 0 155 20 230 c 0,53,54
 30 266 30 266 78 340 c 24,55,56
 97 369 97 369 116 393 c 24,57,58
 140 423 140 423 199 492 c 24,59,-1
 242 540 l 1,60,61
 207 656 207 656 198 726 c 0,62,63
 191 782 191 782 191 878 c 3,64,65
 191 963 191 963 230 1037 c 1,66,67
 268 1114 268 1114 337 1163 c 0,68,69
 342 1166 342 1166 347 1166 c 3,70,71
 354 1166 354 1166 356 1163 c 0,72,73
 409 1100 409 1100 447 998 c 0,74,75
 486 896 486 896 486 813 c 3,76,77
 486 719 486 719 441 638 c 1,78,79
 390 551 390 551 310 458 c 1,80,81
 330 394 330 394 365 256 c 1,0,1
448 -198 m 1,82,83
 499 -179 499 -179 527 -135 c 1,84,85
 558 -92 558 -92 559 -38 c 0,86,87
 559 31 559 31 512 85 c 0,88,89
 464 141 464 141 390 147 c 1,90,91
 431 -58 431 -58 448 -198 c 1,82,83
70 27 m 3,92,93
 70 -70 70 -70 148 -143 c 1,94,95
 228 -214 228 -214 328 -214 c 3,96,97
 369 -214 369 -214 408 -208 c 1,98,99
 392 -60 392 -60 347 147 c 1,100,101
 291 141 291 141 258 108 c 0,102,103
 226 75 226 75 226 31 c 3,104,105
 226 -43 226 -43 305 -89 c 1,106,107
 311 -95 311 -95 311 -103 c 131,-1,108
 311 -111 311 -111 305 -118 c 128,-1,109
 299 -125 299 -125 290 -125 c 3,110,111
 289 -125 289 -125 281 -123 c 1,112,113
 225 -93 225 -93 195 -45 c 1,114,115
 167 6 167 6 167 58 c 3,116,117
 167 125 167 125 209 180 c 1,118,119
 253 235 253 235 323 250 c 1,120,121
 296 359 296 359 278 421 c 1,122,123
 224 360 224 360 215 349 c 0,124,125
 133 241 133 241 112 198 c 0,126,127
 70 107 70 107 70 27 c 3,92,93
396 1021 m 1,128,129
 323 985 323 985 281 917 c 0,130,131
 238 848 238 848 238 768 c 3,132,133
 238 698 238 698 273 578 c 1,134,135
 343 663 343 663 379 735 c 0,136,137
 416 811 416 811 416 895 c 3,138,139
 416 958 416 958 396 1021 c 1,128,129
387 1367 m 1,140,141
 412 1394 412 1394 412 1418 c 3,142,143
 412 1437 412 1437 394 1449 c 128,-1,144
 376 1461 376 1461 353 1461 c 3,145,146
 336 1461 336 1461 326 1450 c 0,147,148
 316 1440 316 1440 316 1426 c 3,149,150
 316 1408 316 1408 331 1399 c 2,151,-1
 387 1367 l 1,140,141
402 1358 m 1,152,153
 443 1334 443 1334 443 1295 c 3,154,155
 443 1265 443 1265 419 1244 c 128,-1,156
 395 1223 395 1223 350 1223 c 3,157,158
 313 1223 313 1223 285 1242 c 0,159,160
 258 1261 258 1261 258 1293 c 3,161,162
 258 1315 258 1315 277 1334 c 0,163,164
 287 1344 287 1344 296 1353 c 1,165,166
 266 1374 266 1374 266 1406 c 3,167,168
 266 1432 266 1432 289 1453 c 1,169,170
 313 1473 313 1473 353 1473 c 3,171,172
 386 1473 386 1473 410 1458 c 128,-1,173
 434 1443 434 1443 434 1418 c 3,174,175
 434 1391 434 1391 402 1358 c 1,152,153
310 1344 m 1,176,177
 279 1318 279 1318 279 1293 c 131,-1,178
 279 1268 279 1268 300.5 1251 c 128,-1,179
 322 1234 322 1234 350 1234 c 3,180,181
 368 1234 368 1234 381 1247 c 0,182,183
 393 1259 393 1259 393 1275 c 3,184,185
 393 1297 393 1297 375 1307 c 2,186,-1
 310 1344 l 1,176,177
EndSplineSet
Validated: 1
EndChar

StartChar: uniE054
Encoding: 57428 57428 113
Width: 538
Flags: W
HStem: 288 278<115.625 225.488>
VStem: 280 49<553 824 940.672 1036 1149.51 1274.9> 454 42<372.195 436.075> 489 43<732.454 867.209> 496 42<449.457 651.263>
LayerCount: 2
Fore
SplineSet
329 824 m 1,0,1
 329 824 329 824 329 461 c 2,2,3
 329 399 329 399 260 333 c 0,4,5
 214 288 214 288 109 288 c 3,6,7
 59 288 59 288 30 313 c 24,8,9
 0 339 0 339 0 379 c 3,10,11
 0 449 0 449 68 510 c 24,12,13
 130 566 130 566 200 566 c 3,14,15
 232 566 232 566 280 553 c 1,16,-1
 280 1249 l 2,17,18
 280 1275 280 1275 304.5 1275 c 131,-1,19
 329 1275 329 1275 329 1249 c 24,20,21
 329 1199 329 1199 351 1149.5 c 128,-1,22
 373 1100 373 1100 402 1057 c 2,23,-1
 460 971 l 1,24,25
 489 931 489 931 511 878 c 1,26,27
 532 829 532 829 532 779 c 3,28,29
 532 733 532 733 509 684 c 1,30,31
 538 624 538 624 538 567 c 3,32,33
 538 477 538 477 496 384 c 1,34,35
 489 372 489 372 478 372 c 3,36,37
 468 372 468 372 460 380 c 0,38,39
 454 386 454 386 454 395 c 2,40,-1
 454 399 l 1,41,42
 496 482 496 482 496 567 c 3,43,44
 496 608 496 608 482 638 c 0,45,46
 464 676 464 676 439 708 c 0,47,48
 407 750 407 750 388 769 c 0,49,50
 363 794 363 794 329 824 c 1,0,1
483 732 m 1,51,52
 489 753 489 753 489 779 c 3,53,54
 489 816 489 816 476 849 c 0,55,56
 464 880 464 880 435 920 c 1,57,58
 411 950 411 950 385 979 c 0,59,60
 365 1000 365 1000 329 1036 c 1,61,62
 329 996 329 996 346 951 c 1,63,64
 364 909 364 909 382 878 c 1,65,66
 403 845 403 845 434.5 802.5 c 128,-1,67
 466 760 466 760 483 732 c 1,51,52
EndSplineSet
Validated: 1
EndChar

StartChar: uniE05C
Encoding: 57436 57436 114
Width: 680
Flags: W
HStem: -500 28<377.23 480.117> -233 160<311.75 370.5> -70 28<410.49 507.008> 42 28<409.447 507.008> 73 161<311.75 370.5> 472 28<377.23 480.117>
VStem: 0 139<-500 500> 180 41<-500 -19 19 500> 263 103<-442.5 -342 342 443> 305 27<-232.997 -149.859 149.859 233.996> 555 125<-370.984 -162.373 160.059 370.984>
LayerCount: 2
Fore
SplineSet
318 0 m 131,-1,1
 318 -73 318 -73 363 -73 c 3,2,3
 378 -73 378 -73 406 -58 c 0,4,5
 433 -42 433 -42 451 -42 c 3,6,7
 544 -42 544 -42 612 -102 c 1,8,9
 679 -164 679 -164 680 -250 c 3,10,11
 680 -500 680 -500 415 -500 c 3,12,13
 352 -500 352 -500 307 -459 c 0,14,15
 263 -418 263 -418 263 -358 c 3,16,17
 263 -326 263 -326 285.5 -303.5 c 128,-1,18
 308 -281 308 -281 339 -281 c 131,-1,19
 370 -281 370 -281 392.5 -303.5 c 128,-1,20
 415 -326 415 -326 415 -358 c 3,21,22
 415 -378 415 -378 391 -396 c 128,-1,23
 367 -414 367 -414 366 -434 c 0,24,25
 366 -451 366 -451 381 -461 c 0,26,27
 395 -472 395 -472 415 -472 c 3,28,29
 496 -472 496 -472 525.5 -416 c 128,-1,30
 555 -360 555 -360 555 -250 c 3,31,32
 555 -165 555 -165 537 -121 c 1,33,34
 518 -70 518 -70 451 -70 c 3,35,36
 400 -70 400 -70 365 -114 c 1,37,38
 332 -159 332 -159 332 -219 c 0,39,40
 332 -233 332 -233 318.5 -233 c 131,-1,41
 305 -233 305 -233 305 -219 c 0,42,43
 305 -103 305 -103 221 -19 c 1,44,-1
 221 -490 l 2,45,46
 221 -500 221 -500 211 -500 c 2,47,-1
 190 -500 l 2,48,49
 179 -500 179 -500 180 -490 c 2,50,-1
 180 490 l 2,51,52
 180 500 180 500 190 500 c 2,53,-1
 211 500 l 2,54,55
 221 500 221 500 221 490 c 2,56,-1
 221 19 l 1,57,58
 305 103 305 103 305 219 c 0,59,60
 305 234 305 234 318.5 234 c 131,-1,61
 332 234 332 234 332 219 c 0,62,63
 332 159 332 159 365 114 c 1,64,65
 400 70 400 70 451 70 c 3,66,67
 518 70 518 70 537 121 c 1,68,69
 555 165 555 165 555 250 c 3,70,71
 555 360 555 360 525.5 416 c 128,-1,72
 496 472 496 472 415 472 c 3,73,74
 394 472 394 472 381 461 c 1,75,76
 366 452 366 452 366 434 c 0,77,78
 366 414 366 414 391 396 c 0,79,80
 415 377 415 377 415 358 c 0,81,82
 415 326 415 326 392.5 303.5 c 128,-1,83
 370 281 370 281 339 281 c 128,-1,84
 308 281 308 281 285.5 303.5 c 128,-1,85
 263 326 263 326 263 358 c 0,86,87
 263 418 263 418 307 459 c 0,88,89
 352 500 352 500 415 500 c 3,90,91
 680 500 680 500 680 250 c 3,92,93
 680 163 680 163 612 102 c 1,94,95
 544 42 544 42 451 42 c 3,96,97
 434 42 434 42 406 57.5 c 128,-1,98
 378 73 378 73 363 73 c 3,99,0
 318 73 318 73 318 0 c 131,-1,1
129 -500 m 2,100,-1
 10 -500 l 2,101,102
 0 -500 0 -500 0 -490 c 2,103,-1
 0 490 l 2,104,105
 0 500 0 500 10 500 c 2,106,-1
 129 500 l 2,107,108
 139 500 139 500 139 490 c 2,109,-1
 139 -490 l 2,110,111
 139 -500 139 -500 129 -500 c 2,100,-1
EndSplineSet
Validated: 1
EndChar

StartChar: uniE062
Encoding: 57442 57442 115
Width: 671
Flags: W
HStem: -176 102<571.955 643.045> -87 206<78.9983 174.332> 74 102<571.955 643.045> 237 26<171.428 291.281>
VStem: 0 212<-43.9688 79.0977> 403 122<-110.347 120.219> 557 101<-160.53 -89.4702 89.4702 160.53>
LayerCount: 2
Fore
SplineSet
557 125 m 128,-1,1
 557 146 557 146 571.5 161 c 128,-1,2
 586 176 586 176 607.5 176 c 128,-1,3
 629 176 629 176 643.5 161 c 128,-1,4
 658 146 658 146 658 125 c 128,-1,5
 658 104 658 104 643.5 89 c 128,-1,6
 629 74 629 74 607.5 74 c 128,-1,7
 586 74 586 74 571.5 89 c 128,-1,0
 557 104 557 104 557 125 c 128,-1,1
557 -125 m 128,-1,9
 557 -104 557 -104 571.5 -89 c 128,-1,10
 586 -74 586 -74 607.5 -74 c 128,-1,11
 629 -74 629 -74 643.5 -89 c 128,-1,12
 658 -104 658 -104 658 -125 c 128,-1,13
 658 -146 658 -146 643.5 -161 c 128,-1,14
 629 -176 629 -176 607.5 -176 c 128,-1,15
 586 -176 586 -176 571.5 -161 c 128,-1,8
 557 -146 557 -146 557 -125 c 128,-1,9
232 263 m 3,16,17
 362 263 362 263 445 197 c 1,18,19
 525 129 525 129 525 12 c 3,20,21
 525 -67 525 -67 494 -133 c 1,22,23
 465 -201 465 -201 417 -254 c 0,24,25
 368 -308 368 -308 299 -355 c 0,26,27
 232 -402 232 -402 160 -439 c 1,28,29
 14 -512 14 -512 0 -513 c 7,30,31
 -13 -513 -13 -513 -13 -500 c 7,32,33
 -13 -495 -13 -495 -9 -491 c 1,34,35
 42 -462 42 -462 113 -416 c 0,36,37
 160 -386 160 -386 223 -332 c 0,38,39
 284 -281 284 -281 316 -236 c 1,40,41
 350 -192 350 -192 379 -127 c 1,42,43
 403 -62 403 -62 403 2 c 3,44,45
 403 97 403 97 356.5 167 c 128,-1,46
 310 237 310 237 232 237 c 3,47,48
 177 237 177 237 139 202 c 1,49,50
 97 166 97 166 78 111 c 1,51,52
 97 119 97 119 112 119 c 3,53,54
 153 119 153 119 183 90 c 1,55,56
 212 59 212 59 212 19 c 3,57,58
 212 -23 212 -23 184 -57 c 1,59,60
 154 -87 154 -87 112 -87 c 3,61,62
 68 -87 68 -87 33 -57 c 1,63,64
 0 -24 0 -24 0 19 c 3,65,66
 0 120 0 120 68 190 c 1,67,68
 135 263 135 263 232 263 c 3,16,17
EndSplineSet
Validated: 1
EndChar

StartChar: uniE063
Encoding: 57443 57443 116
Width: 671
Flags: W
HStem: -1071 11<94.0015 118.047 214.216 236.999 297.288 342.509> -926 16<291.29 345.575> -876 48<273.015 275 275.006 378.065> -176 102<571.955 643.045> -87 206<78.9983 174.332> 74 102<571.955 643.045> 237 26<171.428 291.281>
VStem: 0 212<-43.9688 79.0977> 137 58<-1045.53 -881.001> 244 45<-1054.77 -1003.16> 259 14<-932 -876.089 -823.112 -822> 361 57<-1043.72 -932.339> 403 122<-110.347 120.219> 557 101<-160.53 -89.4702 89.4702 160.53>
DStem2: 78 -946 92 -952 0.426842 0.904326<-3.08342 80.0694>
LayerCount: 2
Fore
SplineSet
267 -821 m 3,0,1
 268 -821 268 -821 270.5 -821.5 c 128,-1,2
 273 -822 273 -822 275 -822 c 1,3,4
 275 -823 275 -823 298 -825 c 1,5,6
 319 -828 319 -828 336 -828 c 3,7,8
 357 -828 357 -828 377 -825 c 2,9,-1
 400 -822 l 2,10,11
 404 -821 404 -821 408 -821 c 3,12,13
 411 -821 411 -821 413 -822 c 128,-1,14
 415 -823 415 -823 414 -826 c 0,15,16
 414 -828 414 -828 413 -829 c 0,17,18
 366 -876 366 -876 281 -876 c 3,19,20
 278 -876 278 -876 275 -879 c 0,21,22
 273 -880 273 -880 273 -885 c 2,23,-1
 273 -932 l 1,24,25
 293 -910 293 -910 326 -910 c 3,26,27
 369 -910 369 -910 395 -931 c 1,28,29
 418 -952 418 -952 418 -991 c 3,30,31
 418 -1025 418 -1025 391 -1049 c 0,32,33
 364 -1071 364 -1071 326 -1071 c 3,34,35
 292 -1071 292 -1071 269 -1057 c 0,36,37
 245 -1042 245 -1042 244 -1015 c 3,38,39
 244 -1001 244 -1001 254 -991 c 0,40,41
 264 -982 264 -982 277 -982 c 259,42,43
 291 -982 291 -982 300 -992 c 1,44,45
 310 -1001 310 -1001 310 -1015 c 3,46,47
 310 -1022 310 -1022 300 -1028 c 0,48,49
 289 -1036 289 -1036 289 -1041 c 0,50,51
 289 -1060 289 -1060 326 -1060 c 3,52,53
 361 -1060 361 -1060 361 -991 c 3,54,55
 361 -926 361 -926 326 -926 c 3,56,57
 308 -926 308 -926 298 -930 c 1,58,59
 286 -934 286 -934 281 -938 c 0,60,61
 278 -942 278 -942 272 -947 c 1,62,63
 272 -947 272 -947 266 -951 c 0,64,65
 259 -951 259 -951 259 -943 c 2,66,-1
 259 -829 l 2,67,68
 259 -821 259 -821 267 -821 c 3,0,1
166 -828 m 3,69,70
 168 -828 168 -828 180 -824 c 1,71,-1
 188 -820 l 1,72,73
 193 -820 193 -820 195 -829 c 1,74,-1
 195 -1013 l 2,75,76
 195 -1034 195 -1034 205 -1046 c 0,77,78
 216 -1060 216 -1060 231 -1060 c 3,79,80
 237 -1060 237 -1060 237 -1065.5 c 131,-1,81
 237 -1071 237 -1071 231 -1071 c 3,82,83
 216 -1071 216 -1071 198 -1068 c 0,84,85
 190 -1067 190 -1067 179.5 -1065.5 c 128,-1,86
 169 -1064 169 -1064 166 -1064 c 3,87,88
 162 -1064 162 -1064 133 -1068 c 0,89,90
 111 -1071 111 -1071 100 -1071 c 3,91,92
 94 -1071 94 -1071 94 -1065.5 c 131,-1,93
 94 -1060 94 -1060 100 -1060 c 3,94,95
 116 -1060 116 -1060 127 -1046 c 1,96,97
 137 -1031 137 -1031 137 -1013 c 2,98,-1
 137 -891 l 2,99,100
 137 -887 137 -887 134 -884 c 128,-1,101
 131 -881 131 -881 128 -881 c 0,102,103
 124 -881 124 -881 123 -885 c 2,104,-1
 92 -952 l 2,105,106
 89 -957 89 -957 84 -957 c 0,107,108
 82 -957 82 -957 80 -955 c 0,109,110
 77 -953 77 -953 77 -949 c 0,111,112
 77 -947 77 -947 78 -946 c 2,113,-1
 137 -821 l 2,114,115
 137 -820 137 -820 139 -820 c 0,116,117
 143 -820 143 -820 150 -824 c 1,118,119
 162 -828 162 -828 166 -828 c 3,69,70
557 125 m 128,-1,121
 557 146 557 146 571.5 161 c 128,-1,122
 586 176 586 176 607.5 176 c 128,-1,123
 629 176 629 176 643.5 161 c 128,-1,124
 658 146 658 146 658 125 c 128,-1,125
 658 104 658 104 643.5 89 c 128,-1,126
 629 74 629 74 607.5 74 c 128,-1,127
 586 74 586 74 571.5 89 c 128,-1,120
 557 104 557 104 557 125 c 128,-1,121
557 -125 m 128,-1,129
 557 -104 557 -104 571.5 -89 c 128,-1,130
 586 -74 586 -74 607.5 -74 c 128,-1,131
 629 -74 629 -74 643.5 -89 c 128,-1,132
 658 -104 658 -104 658 -125 c 128,-1,133
 658 -146 658 -146 643.5 -161 c 128,-1,134
 629 -176 629 -176 607.5 -176 c 128,-1,135
 586 -176 586 -176 571.5 -161 c 128,-1,128
 557 -146 557 -146 557 -125 c 128,-1,129
232 263 m 3,136,137
 362 263 362 263 445 197 c 1,138,139
 525 129 525 129 525 12 c 3,140,141
 525 -67 525 -67 494 -133 c 1,142,143
 465 -201 465 -201 417 -254 c 0,144,145
 368 -308 368 -308 299 -355 c 0,146,147
 232 -402 232 -402 160 -439 c 1,148,149
 14 -512 14 -512 0 -513 c 3,150,151
 -13 -513 -13 -513 -13 -500 c 3,152,153
 -13 -495 -13 -495 -9 -491 c 1,154,155
 42 -462 42 -462 113 -416 c 0,156,157
 160 -386 160 -386 223 -332 c 0,158,159
 284 -281 284 -281 316 -236 c 1,160,161
 350 -192 350 -192 379 -127 c 1,162,163
 403 -62 403 -62 403 2 c 3,164,165
 403 97 403 97 356.5 167 c 128,-1,166
 310 237 310 237 232 237 c 3,167,168
 177 237 177 237 139 202 c 1,169,170
 97 166 97 166 78 111 c 1,171,172
 97 119 97 119 112 119 c 3,173,174
 153 119 153 119 183 90 c 1,175,176
 212 59 212 59 212 19 c 3,177,178
 212 -23 212 -23 184 -57 c 1,179,180
 154 -87 154 -87 112 -87 c 3,181,182
 68 -87 68 -87 33 -57 c 1,183,184
 0 -24 0 -24 0 19 c 3,185,186
 0 120 0 120 68 190 c 1,187,188
 135 263 135 263 232 263 c 3,136,137
EndSplineSet
Validated: 1
EndChar

StartChar: uniE064
Encoding: 57444 57444 117
Width: 671
Flags: W
HStem: -1071 11<199.47 250.099> -833 12<210.786 261.865> -176 102<571.955 643.045> -87 206<78.9983 174.332> 74 102<571.955 643.045> 237 26<171.428 291.281>
VStem: 0 212<-43.9688 79.0977> 137 21<-1031.46 -971.964> 145 50<-898.588 -842.176> 272 50<-1048.1 -985.084> 291 22<-908.533 -850.812> 403 122<-110.347 120.219> 557 101<-160.53 -89.4702 89.4702 160.53>
DStem2: 210 -895 189 -950 0.865982 -0.500074<3.42081 67.6219 81.9878 115.354>
LayerCount: 2
Fore
SplineSet
266 -927 m 1,0,1
 291 -900 291 -900 291 -876 c 3,2,3
 291 -857 291 -857 273 -845 c 128,-1,4
 255 -833 255 -833 232 -833 c 3,5,6
 215 -833 215 -833 205 -844 c 0,7,8
 195 -854 195 -854 195 -868 c 3,9,10
 195 -886 195 -886 210 -895 c 2,11,-1
 266 -927 l 1,0,1
281 -936 m 1,12,13
 322 -960 322 -960 322 -999 c 3,14,15
 322 -1029 322 -1029 298 -1050 c 128,-1,16
 274 -1071 274 -1071 229 -1071 c 3,17,18
 192 -1071 192 -1071 164 -1052 c 0,19,20
 137 -1033 137 -1033 137 -1001 c 3,21,22
 137 -979 137 -979 156 -960 c 0,23,24
 166 -950 166 -950 175 -941 c 1,25,26
 145 -920 145 -920 145 -888 c 3,27,28
 145 -862 145 -862 168 -841 c 1,29,30
 192 -821 192 -821 232 -821 c 3,31,32
 265 -821 265 -821 289 -836 c 128,-1,33
 313 -851 313 -851 313 -876 c 3,34,35
 313 -903 313 -903 281 -936 c 1,12,13
189 -950 m 1,36,37
 158 -976 158 -976 158 -1001 c 131,-1,38
 158 -1026 158 -1026 179.5 -1043 c 128,-1,39
 201 -1060 201 -1060 229 -1060 c 3,40,41
 247 -1060 247 -1060 260 -1047 c 0,42,43
 272 -1035 272 -1035 272 -1019 c 3,44,45
 272 -997 272 -997 254 -987 c 2,46,-1
 189 -950 l 1,36,37
557 125 m 128,-1,48
 557 146 557 146 571.5 161 c 128,-1,49
 586 176 586 176 607.5 176 c 128,-1,50
 629 176 629 176 643.5 161 c 128,-1,51
 658 146 658 146 658 125 c 128,-1,52
 658 104 658 104 643.5 89 c 128,-1,53
 629 74 629 74 607.5 74 c 128,-1,54
 586 74 586 74 571.5 89 c 128,-1,47
 557 104 557 104 557 125 c 128,-1,48
557 -125 m 128,-1,56
 557 -104 557 -104 571.5 -89 c 128,-1,57
 586 -74 586 -74 607.5 -74 c 128,-1,58
 629 -74 629 -74 643.5 -89 c 128,-1,59
 658 -104 658 -104 658 -125 c 128,-1,60
 658 -146 658 -146 643.5 -161 c 128,-1,61
 629 -176 629 -176 607.5 -176 c 128,-1,62
 586 -176 586 -176 571.5 -161 c 128,-1,55
 557 -146 557 -146 557 -125 c 128,-1,56
232 263 m 3,63,64
 362 263 362 263 445 197 c 1,65,66
 525 129 525 129 525 12 c 3,67,68
 525 -67 525 -67 494 -133 c 1,69,70
 465 -201 465 -201 417 -254 c 0,71,72
 368 -308 368 -308 299 -355 c 0,73,74
 232 -402 232 -402 160 -439 c 1,75,76
 14 -512 14 -512 0 -513 c 3,77,78
 -13 -513 -13 -513 -13 -500 c 3,79,80
 -13 -495 -13 -495 -9 -491 c 1,81,82
 42 -462 42 -462 113 -416 c 0,83,84
 160 -386 160 -386 223 -332 c 0,85,86
 284 -281 284 -281 316 -236 c 1,87,88
 350 -192 350 -192 379 -127 c 1,89,90
 403 -62 403 -62 403 2 c 3,91,92
 403 97 403 97 356.5 167 c 128,-1,93
 310 237 310 237 232 237 c 3,94,95
 177 237 177 237 139 202 c 1,96,97
 97 166 97 166 78 111 c 1,98,99
 97 119 97 119 112 119 c 0,100,101
 153 119 153 119 183 90 c 1,102,103
 212 59 212 59 212 19 c 3,104,105
 212 -23 212 -23 184 -57 c 1,106,107
 154 -87 154 -87 112 -87 c 0,108,109
 68 -87 68 -87 33 -57 c 1,110,111
 0 -24 0 -24 0 19 c 3,112,113
 0 120 0 120 68 190 c 1,114,115
 135 263 135 263 232 263 c 3,63,64
EndSplineSet
Validated: 1
EndChar

StartChar: uniE065
Encoding: 57445 57445 118
Width: 671
Flags: W
HStem: -176 102<571.955 643.045> -87 206<78.9983 174.332> 74 102<571.955 643.045> 237 26<171.428 291.281> 315 11<199.47 250.099> 553 12<210.786 261.865>
VStem: 0 212<-43.9688 79.0977> 137 21<354.538 414.036> 145 50<487.412 543.824> 272 50<337.899 400.916> 291 22<477.467 535.188> 403 122<-110.347 120.219> 557 101<-160.53 -89.4702 89.4702 160.53>
DStem2: 210 491 189 436 0.865982 -0.500074<3.42081 67.6219 81.9878 115.354>
LayerCount: 2
Fore
SplineSet
266 459 m 1,0,1
 291 486 291 486 291 510 c 3,2,3
 291 529 291 529 273 541 c 128,-1,4
 255 553 255 553 232 553 c 3,5,6
 215 553 215 553 205 542 c 0,7,8
 195 532 195 532 195 518 c 3,9,10
 195 500 195 500 210 491 c 2,11,-1
 266 459 l 1,0,1
281 450 m 1,12,13
 322 426 322 426 322 387 c 3,14,15
 322 357 322 357 298 336 c 128,-1,16
 274 315 274 315 229 315 c 3,17,18
 192 315 192 315 164 334 c 0,19,20
 137 353 137 353 137 385 c 3,21,22
 137 407 137 407 156 426 c 0,23,24
 166 436 166 436 175 445 c 1,25,26
 145 466 145 466 145 498 c 3,27,28
 145 524 145 524 168 545 c 1,29,30
 192 565 192 565 232 565 c 3,31,32
 265 565 265 565 289 550 c 128,-1,33
 313 535 313 535 313 510 c 3,34,35
 313 483 313 483 281 450 c 1,12,13
189 436 m 1,36,37
 158 410 158 410 158 385 c 131,-1,38
 158 360 158 360 179.5 343 c 128,-1,39
 201 326 201 326 229 326 c 3,40,41
 247 326 247 326 260 339 c 0,42,43
 272 351 272 351 272 367 c 3,44,45
 272 389 272 389 254 399 c 2,46,-1
 189 436 l 1,36,37
557 125 m 128,-1,48
 557 146 557 146 571.5 161 c 128,-1,49
 586 176 586 176 607.5 176 c 128,-1,50
 629 176 629 176 643.5 161 c 128,-1,51
 658 146 658 146 658 125 c 128,-1,52
 658 104 658 104 643.5 89 c 128,-1,53
 629 74 629 74 607.5 74 c 128,-1,54
 586 74 586 74 571.5 89 c 128,-1,47
 557 104 557 104 557 125 c 128,-1,48
557 -125 m 128,-1,56
 557 -104 557 -104 571.5 -89 c 128,-1,57
 586 -74 586 -74 607.5 -74 c 128,-1,58
 629 -74 629 -74 643.5 -89 c 128,-1,59
 658 -104 658 -104 658 -125 c 128,-1,60
 658 -146 658 -146 643.5 -161 c 128,-1,61
 629 -176 629 -176 607.5 -176 c 128,-1,62
 586 -176 586 -176 571.5 -161 c 128,-1,55
 557 -146 557 -146 557 -125 c 128,-1,56
232 263 m 3,63,64
 362 263 362 263 445 197 c 1,65,66
 525 129 525 129 525 12 c 3,67,68
 525 -67 525 -67 494 -133 c 1,69,70
 465 -201 465 -201 417 -254 c 0,71,72
 368 -308 368 -308 299 -355 c 0,73,74
 232 -402 232 -402 160 -439 c 1,75,76
 14 -512 14 -512 0 -513 c 3,77,78
 -13 -513 -13 -513 -13 -500 c 3,79,80
 -13 -495 -13 -495 -9 -491 c 1,81,82
 42 -462 42 -462 113 -416 c 0,83,84
 160 -386 160 -386 223 -332 c 0,85,86
 284 -281 284 -281 316 -236 c 1,87,88
 350 -192 350 -192 379 -127 c 1,89,90
 403 -62 403 -62 403 2 c 3,91,92
 403 97 403 97 356.5 167 c 128,-1,93
 310 237 310 237 232 237 c 3,94,95
 177 237 177 237 139 202 c 1,96,97
 97 166 97 166 78 111 c 1,98,99
 97 119 97 119 112 119 c 0,100,101
 153 119 153 119 183 90 c 1,102,103
 212 59 212 59 212 19 c 3,104,105
 212 -23 212 -23 184 -57 c 1,106,107
 154 -87 154 -87 112 -87 c 3,108,109
 68 -87 68 -87 33 -57 c 1,110,111
 0 -24 0 -24 0 19 c 3,112,113
 0 120 0 120 68 190 c 1,114,115
 135 263 135 263 232 263 c 3,63,64
EndSplineSet
Validated: 1
EndChar

StartChar: uniE066
Encoding: 57446 57446 119
Width: 671
Flags: W
HStem: -176 102<571.955 643.045> -87 206<78.9983 174.332> 74 102<571.955 643.045> 237 26<171.428 291.281> 315 12<94.0015 118.448 213.423 236.999 296.569 343.064> 330 74<254.313 292.102> 461 16<291.685 345.933> 511 54<273.015 275 275.006 378.065>
VStem: 0 212<-43.9688 79.0977> 137 58<341.469 505.999> 244 45<332.234 383.843> 259 14<455 510.911 563.094 564> 361 57<343.279 454.661> 403 122<-110.347 120.219> 557 101<-160.53 -89.4702 89.4702 160.53>
DStem2: 78 440 92 435 0.426842 0.904326<-2.17931 80.9737>
LayerCount: 2
Fore
SplineSet
557 125 m 128,-1,1
 557 146 557 146 571.5 161 c 128,-1,2
 586 176 586 176 607.5 176 c 128,-1,3
 629 176 629 176 643.5 161 c 128,-1,4
 658 146 658 146 658 125 c 128,-1,5
 658 104 658 104 643.5 89 c 128,-1,6
 629 74 629 74 607.5 74 c 128,-1,7
 586 74 586 74 571.5 89 c 128,-1,0
 557 104 557 104 557 125 c 128,-1,1
557 -125 m 128,-1,9
 557 -104 557 -104 571.5 -89 c 128,-1,10
 586 -74 586 -74 607.5 -74 c 128,-1,11
 629 -74 629 -74 643.5 -89 c 128,-1,12
 658 -104 658 -104 658 -125 c 128,-1,13
 658 -146 658 -146 643.5 -161 c 128,-1,14
 629 -176 629 -176 607.5 -176 c 128,-1,15
 586 -176 586 -176 571.5 -161 c 128,-1,8
 557 -146 557 -146 557 -125 c 128,-1,9
232 263 m 3,16,17
 362 263 362 263 445 197 c 1,18,19
 525 129 525 129 525 12 c 3,20,21
 525 -67 525 -67 494 -133 c 1,22,23
 465 -201 465 -201 417 -254 c 0,24,25
 368 -308 368 -308 299 -355 c 0,26,27
 232 -402 232 -402 160 -439 c 1,28,29
 14 -512 14 -512 0 -513 c 0,30,31
 -13 -513 -13 -513 -13 -500 c 3,32,33
 -13 -495 -13 -495 -9 -491 c 1,34,35
 42 -462 42 -462 113 -416 c 0,36,37
 160 -386 160 -386 223 -332 c 0,38,39
 284 -281 284 -281 316 -236 c 1,40,41
 350 -192 350 -192 379 -127 c 1,42,43
 403 -62 403 -62 403 2 c 3,44,45
 403 97 403 97 356.5 167 c 128,-1,46
 310 237 310 237 232 237 c 3,47,48
 177 237 177 237 139 202 c 1,49,50
 97 166 97 166 78 111 c 1,51,52
 97 119 97 119 112 119 c 0,53,54
 153 119 153 119 183 90 c 1,55,56
 212 59 212 59 212 19 c 3,57,58
 212 -23 212 -23 184 -57 c 1,59,60
 154 -87 154 -87 112 -87 c 0,61,62
 68 -87 68 -87 33 -57 c 1,63,64
 0 -24 0 -24 0 19 c 3,65,66
 0 120 0 120 68 190 c 1,67,68
 135 263 135 263 232 263 c 3,16,17
166 559 m 3,69,70
 168 559 168 559 180 562 c 1,71,-1
 188 566 l 1,72,73
 193 566 193 566 195 558 c 1,74,-1
 195 374 l 2,75,76
 195 353 195 353 205 341 c 0,77,78
 216 327 216 327 231 327 c 3,79,80
 237 327 237 327 237 321 c 131,-1,81
 237 315 237 315 231 315 c 3,82,83
 216 315 216 315 198 318 c 0,84,85
 169 322 169 322 166 322 c 3,86,87
 162 322 162 322 133 318 c 0,88,89
 111 315 111 315 100 315 c 3,90,91
 94 315 94 315 94 321 c 131,-1,92
 94 327 94 327 100 327 c 3,93,94
 116 327 116 327 127 341 c 1,95,96
 137 356 137 356 137 374 c 2,97,-1
 137 496 l 2,98,99
 137 500 137 500 134 503 c 128,-1,100
 131 506 131 506 128 506 c 3,101,102
 124 506 124 506 123 502 c 2,103,-1
 92 435 l 2,104,105
 89 430 89 430 84 430 c 3,106,107
 82 430 82 430 80 432 c 0,108,109
 77 434 77 434 77 438 c 3,110,111
 77 440 77 440 78 440 c 2,112,-1
 137 565 l 2,113,114
 137 566 137 566 139 566 c 3,115,116
 143 566 143 566 150 562 c 1,117,118
 162 559 162 559 166 559 c 3,69,70
267 565 m 0,119,120
 268 565 268 565 270.5 564.5 c 128,-1,121
 273 564 273 564 275 564 c 1,122,123
 275 563 275 563 298 562 c 1,124,125
 319 559 319 559 336 559 c 1,126,127
 375 562 375 562 377 562 c 2,128,-1
 400 564 l 2,129,130
 404 565 404 565 408 565 c 0,131,132
 411 565 411 565 413 564 c 128,-1,133
 415 563 415 563 414 561 c 0,134,135
 414 559 414 559 413 558 c 0,136,137
 366 511 366 511 281 511 c 0,138,139
 278 511 278 511 275 508 c 0,140,141
 273 507 273 507 273 502 c 2,142,-1
 273 455 l 1,143,144
 294 477 294 477 326 477 c 3,145,146
 371 477 371 477 395 456 c 1,147,148
 418 435 418 435 418 396 c 3,149,150
 418 362 418 362 391 338 c 0,151,152
 364 316 364 316 326 315 c 0,153,154
 292 315 292 315 269 330 c 0,155,156
 245 345 245 345 244 372 c 0,157,158
 244 386 244 386 254 396 c 0,159,160
 264 405 264 405 277 404 c 256,161,162
 291 404 291 404 300 395 c 1,163,164
 310 386 310 386 310 372 c 0,165,166
 310 365 310 365 300 358 c 0,167,168
 289 350 289 350 289 346 c 0,169,170
 289 327 289 327 326 327 c 3,171,172
 361 327 361 327 361 396 c 3,173,174
 361 461 361 461 326 461 c 3,175,176
 308 461 308 461 298 457 c 1,177,178
 286 454 286 454 281 449 c 0,179,180
 278 445 278 445 272 439 c 1,181,182
 266 435 266 435 266 436 c 0,183,184
 259 436 259 436 259 443 c 2,185,-1
 259 558 l 2,186,187
 259 565 259 565 267 565 c 0,119,120
EndSplineSet
Validated: 1
EndChar

StartChar: uniE06D
Encoding: 57453 57453 120
Width: 35
Flags: W
HStem: 0 21G<15.25 21.75> 488 74<-182.781 0>
VStem: 0 37<0.00146484 488>
LayerCount: 2
Fore
SplineSet
37 19 m 2,0,1
 37 12 37 12 31 6 c 128,-1,2
 25 0 25 0 18.5 0 c 128,-1,3
 12 0 12 0 6 6 c 128,-1,4
 0 12 0 12 0 19 c 2,5,-1
 0 488 l 1,6,-1
 -170 488 l 2,7,8
 -177 488 -177 488 -183 494 c 1,9,10
 -189 498 -189 498 -188 507 c 2,11,-1
 -188 543 l 2,12,13
 -188 551 -188 551 -183 557 c 1,14,15
 -176 562 -176 562 -170 562 c 2,16,-1
 19 562 l 2,17,18
 25 562 25 562 31 557 c 1,19,20
 37 551 37 551 37 543 c 2,21,-1
 37 19 l 2,0,1
EndSplineSet
Validated: 1
EndChar

StartChar: uniE910
Encoding: 59664 59664 121
Width: 424
Flags: W
HStem: -263 25<182.395 317.605> -78 156<197.72 302.28> 237 25<182.73 316.955>
VStem: 0 98<-126.604 119.942> 172 156<-52.2804 52.2804> 402 98<-126.604 119.942>
CounterMasks: 1 1c
LayerCount: 2
Fore
SplineSet
172 0 m 128,-1,1
 172 31 172 31 195.5 54.5 c 128,-1,2
 219 78 219 78 250 78 c 128,-1,3
 281 78 281 78 304.5 54.5 c 128,-1,4
 328 31 328 31 328 0 c 128,-1,5
 328 -31 328 -31 304.5 -54.5 c 128,-1,6
 281 -78 281 -78 250 -78 c 128,-1,7
 219 -78 219 -78 195.5 -54.5 c 128,-1,0
 172 -31 172 -31 172 0 c 128,-1,1
250 -238 m 128,-1,9
 310 -238 310 -238 355 -205 c 0,10,11
 402 -172 402 -172 402 -51 c 2,12,-1
 402 51 l 2,13,14
 402 170 402 170 355 204 c 0,15,16
 309 237 309 237 249.5 237 c 128,-1,17
 190 237 190 237 145 204 c 0,18,19
 98 170 98 170 98 51 c 2,20,-1
 98 -51 l 2,21,22
 98 -172 98 -172 145 -205 c 0,23,8
 190 -238 190 -238 250 -238 c 128,-1,9
250 262 m 128,-1,25
 371 262 371 262 436 189 c 0,26,27
 500 118 500 118 500 0 c 0,28,29
 500 -73 500 -73 479 -125 c 0,30,31
 457 -179 457 -179 419 -207 c 0,32,33
 382 -236 382 -236 340 -250 c 0,34,35
 299 -263 299 -263 250 -263 c 128,-1,36
 201 -263 201 -263 160 -250 c 0,37,38
 118 -236 118 -236 81 -207 c 0,39,40
 44 -179 44 -179 21 -125 c 0,41,42
 0 -73 0 -73 0 0 c 0,43,44
 0 118 0 118 64 189 c 0,45,24
 129 262 129 262 250 262 c 128,-1,25
EndSplineSet
Validated: 1
EndChar

StartChar: uniE911
Encoding: 59665 59665 122
Width: 424
Flags: W
HStem: -263 25<182.395 317.605> 237 25<182.73 316.955>
VStem: 0 98<-126.604 119.942> 402 98<-126.604 119.942>
LayerCount: 2
Fore
SplineSet
250 -238 m 128,-1,1
 310 -238 310 -238 355 -205 c 0,2,3
 402 -172 402 -172 402 -51 c 2,4,-1
 402 51 l 2,5,6
 402 170 402 170 355 204 c 0,7,8
 309 237 309 237 249.5 237 c 128,-1,9
 190 237 190 237 145 204 c 0,10,11
 98 170 98 170 98 51 c 2,12,-1
 98 -51 l 2,13,14
 98 -172 98 -172 145 -205 c 0,15,0
 190 -238 190 -238 250 -238 c 128,-1,1
250 262 m 128,-1,17
 371 262 371 262 436 189 c 0,18,19
 500 118 500 118 500 0 c 0,20,21
 500 -73 500 -73 479 -125 c 0,22,23
 457 -179 457 -179 419 -207 c 0,24,25
 382 -236 382 -236 340 -250 c 0,26,27
 299 -263 299 -263 250 -263 c 128,-1,28
 201 -263 201 -263 160 -250 c 0,29,30
 118 -236 118 -236 81 -207 c 0,31,32
 44 -179 44 -179 21 -125 c 0,33,34
 0 -73 0 -73 0 0 c 0,35,36
 0 118 0 118 64 189 c 0,37,16
 129 262 129 262 250 262 c 128,-1,17
EndSplineSet
Validated: 1
EndChar

StartChar: uniE912
Encoding: 59666 59666 123
Width: 424
Flags: W
HStem: 236 26<177.082 231 269 322.918>
VStem: 0 98<-126.604 119.753> 231 38<-428 -260.5 -237 236 260.69 428> 402 98<-126.604 120.729>
CounterMasks: 1 70
LayerCount: 2
Fore
SplineSet
269 -418 m 2,0,1
 269 -428 269 -428 258 -428 c 2,2,-1
 241 -428 l 2,3,4
 231 -428 231 -428 231 -418 c 2,5,-1
 231 -262 l 1,6,7
 193 -260 193 -260 160 -250 c 0,8,9
 117 -236 117 -236 81 -207 c 1,10,11
 44 -179 44 -179 21 -125 c 0,12,13
 0 -73 0 -73 0 0 c 0,14,15
 0 116 0 116 64 189 c 0,16,17
 123 255 123 255 231 262 c 1,18,-1
 231 418 l 2,19,20
 231 428 231 428 241 428 c 2,21,-1
 258 428 l 2,22,23
 269 428 269 428 269 418 c 2,24,-1
 269 262 l 1,25,26
 377 256 377 256 436 189 c 1,27,28
 500 118 500 118 500 0 c 0,29,30
 500 -73 500 -73 479 -125 c 0,31,32
 457 -179 457 -179 419 -207 c 1,33,34
 379 -240 379 -240 340 -250 c 1,35,36
 307 -260 307 -260 269 -262 c 1,37,-1
 269 -418 l 2,0,1
269 236 m 1,38,-1
 269 -237 l 1,39,40
 316 -233 316 -233 355 -205 c 0,41,42
 402 -172 402 -172 402 -51 c 2,43,-1
 402 51 l 2,44,45
 402 172 402 172 355 205 c 0,46,47
 319 232 319 232 269 236 c 1,38,-1
231 -237 m 1,48,-1
 231 236 l 1,49,50
 181 232 181 232 145 205 c 0,51,52
 98 172 98 172 98 51 c 2,53,-1
 98 -51 l 2,54,55
 98 -172 98 -172 145 -205 c 0,56,57
 184 -233 184 -233 231 -237 c 1,48,-1
EndSplineSet
Validated: 1
EndChar

StartChar: uniE913
Encoding: 59667 59667 124
Width: 424
Flags: W
HStem: 236 26<177.082 231 269 322.918>
VStem: 0 98<-126.604 119.753> 172 156<-53.4927 53.4932> 231 38<-428 -260.5 -237 -68.0759 68.3975 236 260.69 428> 402 98<-126.604 120.729>
LayerCount: 2
Fore
SplineSet
269 -418 m 2,0,1
 269 -428 269 -428 258 -428 c 2,2,-1
 241 -428 l 2,3,4
 231 -428 231 -428 231 -418 c 2,5,-1
 231 -262 l 1,6,7
 193 -260 193 -260 160 -250 c 0,8,9
 117 -236 117 -236 81 -207 c 0,10,11
 43 -177 43 -177 21 -125 c 1,12,13
 0 -68 0 -68 0 0 c 0,14,15
 0 116 0 116 64 189 c 0,16,17
 123 255 123 255 231 262 c 1,18,-1
 231 418 l 2,19,20
 231 428 231 428 241 428 c 2,21,-1
 258 428 l 2,22,23
 269 428 269 428 269 418 c 2,24,-1
 269 262 l 1,25,26
 377 256 377 256 436 189 c 1,27,28
 500 118 500 118 500 0 c 0,29,30
 500 -68 500 -68 479 -125 c 1,31,32
 456 -179 456 -179 419 -207 c 1,33,34
 379 -240 379 -240 340 -250 c 1,35,36
 307 -260 307 -260 269 -262 c 1,37,-1
 269 -418 l 2,0,1
172 0 m 128,-1,39
 172 31 172 31 195 55 c 0,40,41
 211 71 211 71 231 76 c 1,42,-1
 231 236 l 1,43,44
 181 232 181 232 145 205 c 0,45,46
 98 172 98 172 98 51 c 2,47,-1
 98 -51 l 2,48,49
 98 -172 98 -172 145 -205 c 0,50,51
 185 -233 185 -233 231 -237 c 1,52,-1
 231 -76 l 1,53,54
 210 -70 210 -70 195 -55 c 0,55,38
 172 -31 172 -31 172 0 c 128,-1,39
269 -76 m 1,56,-1
 269 -237 l 1,57,58
 316 -233 316 -233 355 -205 c 0,59,60
 402 -172 402 -172 402 -51 c 2,61,-1
 402 51 l 2,62,63
 402 172 402 172 355 205 c 0,64,65
 318 232 318 232 269 236 c 1,66,-1
 269 76 l 1,67,68
 290 70 290 70 305 55 c 0,69,70
 328 32 328 32 328 0.5 c 128,-1,71
 328 -31 328 -31 305 -55 c 0,72,73
 290 -70 290 -70 269 -76 c 1,56,-1
EndSplineSet
Validated: 1
EndChar

StartChar: uniE914
Encoding: 59668 59668 125
Width: 424
Flags: W
HStem: -263 25<182.633 306.844> -78 156<197.72 302.28> 237 25<182.056 307.234>
VStem: 0 98<-126.604 120.729> 172 156<-52.2804 52.2804> 408 25<-125.477 -77.0117 76.0117 121.552>
LayerCount: 2
Fore
SplineSet
172 0 m 128,-1,1
 172 31 172 31 195.5 54.5 c 128,-1,2
 219 78 219 78 250 78 c 128,-1,3
 281 78 281 78 304.5 54.5 c 128,-1,4
 328 31 328 31 328 0 c 128,-1,5
 328 -31 328 -31 304.5 -54.5 c 128,-1,6
 281 -78 281 -78 250 -78 c 128,-1,7
 219 -78 219 -78 195.5 -54.5 c 128,-1,0
 172 -31 172 -31 172 0 c 128,-1,1
250 262 m 0,8,9
 289 262 289 262 320 246 c 0,10,11
 354 229 354 229 373 207 c 0,12,13
 394 181 394 181 406 158.5 c 128,-1,14
 418 136 418 136 427 113 c 0,15,16
 433 95 433 95 433 88 c 0,17,18
 433 76 433 76 420 76 c 0,19,20
 411 76 411 76 408 86 c 0,21,22
 389 153 389 153 351 193 c 0,23,24
 308 237 308 237 250 237 c 0,25,26
 164 237 164 237 131 182 c 128,-1,27
 98 127 98 127 98 51 c 2,28,-1
 98 -51 l 2,29,30
 98 -172 98 -172 145 -205 c 0,31,32
 191 -238 191 -238 250 -238 c 0,33,34
 307 -238 307 -238 350 -195 c 256,35,36
 393 -152 393 -152 408 -87 c 0,37,38
 411 -77 411 -77 420 -77 c 0,39,40
 433 -77 433 -77 433 -89 c 0,41,42
 433 -98 433 -98 427 -115 c 1,43,44
 419 -135 419 -135 406 -158 c 0,45,46
 395 -179 395 -179 373 -208 c 1,47,48
 352 -231 352 -231 320 -247 c 0,49,50
 289 -263 289 -263 250 -263 c 0,51,52
 201 -263 201 -263 160 -250 c 0,53,54
 122 -238 122 -238 81 -207 c 0,55,56
 44 -179 44 -179 21 -125 c 0,57,58
 0 -73 0 -73 0 0 c 0,59,60
 0 118 0 118 64 189 c 0,61,62
 129 262 129 262 250 262 c 0,8,9
EndSplineSet
Validated: 1
EndChar

StartChar: uniE916
Encoding: 59670 59670 127
Width: 424
Flags: W
HStem: -263 25<118.362 234.42> 27 152<55.0955 118.009> 237 25<114.349 235.26>
VStem: -8 25<-123.655 -77.0117> -1 142<49.9885 156.229> 288 137<-124.697 117.879>
LayerCount: 2
Fore
SplineSet
65 27 m 7,0,1
 36 27 36 27 18 48 c 5,2,3
 -2 68 -2 68 -2 99 c 7,4,5
 -2 152 -2 152 47 207 c 5,6,7
 94 262 94 262 174 262 c 4,8,9
 296 261 296 261 360 189 c 156,-1,10
 424 117 424 117 424 0 c 7,11,12
 424 -143 424 -143 343 -207 c 4,13,14
 272 -263 272 -263 174 -263 c 7,15,16
 135 -263 135 -263 104 -247 c 4,17,18
 71 -230 71 -230 51 -208 c 4,19,20
 27 -181 27 -181 17 -162 c 28,21,22
 3 -136 3 -136 -3 -116 c 132,-1,23
 -9 -96 -9 -96 -9 -89 c 7,24,25
 -9 -77 -9 -77 4 -77 c 7,26,27
 13 -77 13 -77 16 -87 c 4,28,29
 37 -158 37 -158 74 -195 c 28,30,31
 117 -238 117 -238 174 -238 c 7,32,33
 206 -238 206 -238 227 -228.5 c 132,-1,34
 248 -219 248 -219 260 -205 c 4,35,36
 272 -190 272 -190 278 -165 c 4,37,38
 287 -129 287 -129 287 -51 c 6,39,-1
 287 51 l 6,40,41
 287 132 287 132 278 164 c 4,42,43
 270 191 270 191 260 205 c 28,44,45
 251 218 251 218 227 229 c 4,46,47
 210 237 210 237 174 237 c 4,48,49
 99 236 99 236 54 178 c 5,50,51
 57 179 57 179 68 179 c 4,52,53
 99 178 99 178 119 155 c 4,54,55
 140 132 140 132 140 102 c 4,56,57
 139 66 139 66 115 47 c 4,58,59
 90 27 90 27 65 27 c 7,0,1
EndSplineSet
Validated: 1
EndChar

StartChar: uniE917
Encoding: 59671 59671 128
Width: 424
Flags: W
HStem: -262 25<269 311.377> 236 26<180.062 231 269 309.928>
VStem: 0 98<-126.604 120.729> 172 156<-53.4927 53.4932> 231 38<-428 -260.559 -237 -68.3975 68.3975 236 260.546 428> 408 25<-125.477 -77.0117 76.0117 121.552>
LayerCount: 2
Fore
SplineSet
269 -418 m 2,0,1
 269 -428 269 -428 258 -428 c 2,2,-1
 241 -428 l 2,3,4
 231 -428 231 -428 231 -418 c 2,5,-1
 231 -262 l 1,6,7
 193 -260 193 -260 160 -250 c 0,8,9
 119 -237 119 -237 81 -207 c 128,-1,10
 43 -177 43 -177 21 -125 c 1,11,12
 0 -68 0 -68 0 0 c 0,13,14
 0 118 0 118 64 189 c 1,15,16
 123 255 123 255 231 262 c 1,17,-1
 231 418 l 2,18,19
 231 428 231 428 241 428 c 2,20,-1
 258 428 l 2,21,22
 269 428 269 428 269 418 c 2,23,-1
 269 261 l 1,24,25
 295 258 295 258 320 246 c 0,26,27
 353 229 353 229 373 207 c 0,28,29
 394 181 394 181 406 158 c 0,30,31
 421 131 421 131 427 113.5 c 128,-1,32
 433 96 433 96 433 88 c 0,33,34
 433 76 433 76 420 76 c 0,35,36
 411 76 411 76 408 86 c 0,37,38
 389 153 389 153 351 193 c 0,39,40
 315 230 315 230 269 236 c 1,41,-1
 269 76 l 1,42,43
 290 70 290 70 305 55 c 0,44,45
 328 32 328 32 328 0.5 c 128,-1,46
 328 -31 328 -31 305 -55 c 0,47,48
 289 -71 289 -71 269 -76 c 1,49,-1
 269 -237 l 1,50,51
 314 -233 314 -233 350 -195 c 1,52,53
 393 -152 393 -152 408 -87 c 0,54,55
 411 -77 411 -77 420 -77 c 0,56,57
 433 -77 433 -77 433 -89 c 0,58,59
 433 -96 433 -96 427 -115 c 128,-1,60
 421 -134 421 -134 406 -158 c 1,61,62
 394 -181 394 -181 373 -208 c 0,63,64
 353 -230 353 -230 320 -247 c 0,65,66
 295 -259 295 -259 269 -262 c 1,67,-1
 269 -418 l 2,0,1
172 0 m 128,-1,69
 172 31 172 31 195 55 c 0,70,71
 211 71 211 71 231 76 c 1,72,-1
 231 236 l 1,73,74
 160 230 160 230 131 182 c 0,75,76
 98 127 98 127 98 51 c 2,77,-1
 98 -51 l 2,78,79
 98 -172 98 -172 145 -205 c 0,80,81
 185 -233 185 -233 231 -237 c 1,82,-1
 231 -76 l 1,83,84
 210 -70 210 -70 195 -55 c 0,85,68
 172 -31 172 -31 172 0 c 128,-1,69
EndSplineSet
Validated: 1
EndChar

StartChar: uniE919
Encoding: 59673 59673 130
Width: 424
Flags: W
HStem: -263 25<118.362 188> 27 152<55.0955 118.009> 237 25<116.411 188>
VStem: -8 25<-123.655 -77.0117> -1 142<49.9885 156.229> 188 37<-350 -262 -230 230 262 350> 288 137<-119.191 119.643>
LayerCount: 2
Fore
SplineSet
65 27 m 0,0,1
 37 27 37 27 19 48 c 0,2,3
 -1 69 -1 69 -1 99 c 0,4,5
 -1 153 -1 153 48 207.5 c 128,-1,6
 97 262 97 262 175 262 c 2,7,-1
 188 262 l 1,8,-1
 188 340 l 1,9,10
 189 350 189 350 198 350 c 2,11,-1
 215 350 l 2,12,13
 225 350 225 350 225 340 c 2,14,-1
 225 259 l 1,15,16
 328 242 328 242 376 172 c 0,17,18
 425 101 425 101 425 0 c 0,19,20
 425 -100 425 -100 376 -172 c 0,21,22
 328 -242 328 -242 225 -259 c 1,23,-1
 225 -340 l 2,24,25
 225 -350 225 -350 215 -350 c 2,26,-1
 198 -350 l 2,27,28
 188 -350 188 -350 188 -340 c 2,29,-1
 188 -262 l 1,30,31
 185 -263 185 -263 175 -263 c 0,32,33
 136 -263 136 -263 104 -247 c 0,34,35
 70 -230 70 -230 52 -208 c 1,36,37
 30 -179 30 -179 19 -158 c 0,38,39
 6 -135 6 -135 -2 -115 c 1,40,41
 -8 -97 -8 -97 -8 -89 c 0,42,43
 -8 -77 -8 -77 5 -77 c 0,44,45
 14 -77 14 -77 17 -87 c 0,46,47
 34 -152 34 -152 75 -195 c 0,48,49
 118 -238 118 -238 175 -238 c 0,50,51
 184 -238 184 -238 188 -237 c 1,52,-1
 188 237 l 1,53,-1
 175 237 l 1,54,55
 100 235 100 235 55 178 c 1,56,57
 58 179 58 179 68 179 c 0,58,59
 99 179 99 179 120 155.5 c 128,-1,60
 141 132 141 132 141 102 c 0,61,62
 141 66 141 66 116 47 c 0,63,64
 90 27 90 27 65 27 c 0,0,1
225 -230 m 1,65,66
 265 -215 265 -215 276 -174 c 0,67,68
 288 -131 288 -131 288 -51 c 2,69,-1
 288 0 l 1,70,-1
 288 51 l 2,71,72
 288 131 288 131 276 174 c 0,73,74
 264 216 264 216 225 230 c 1,75,-1
 225 -230 l 1,65,66
EndSplineSet
Validated: 1
EndChar

StartChar: uniE91A
Encoding: 59674 59674 131
Width: 424
Flags: W
HStem: -263 25<118.362 242.334> -78 156<122.72 227.28> 237 25<118.335 245.059>
VStem: -8 25<-123.655 -77.0117 76.0117 121.552> 97 156<-52.2804 52.2804> 327 98<-123.789 117.879>
LayerCount: 2
Fore
SplineSet
287 51 m 2,0,1
 287 129 287 129 278 165 c 0,2,3
 272 190 272 190 260 205 c 0,4,5
 248 219 248 219 227 228.5 c 128,-1,6
 206 238 206 238 174 238 c 3,7,8
 117 238 117 238 74 195 c 24,9,10
 37 158 37 158 16 87 c 0,11,12
 13 77 13 77 4 77 c 3,13,14
 -9 77 -9 77 -9 89 c 3,15,16
 -9 96 -9 96 -3 116 c 128,-1,17
 3 136 3 136 17 162 c 24,18,19
 27 181 27 181 51 208 c 0,20,21
 71 230 71 230 104 247 c 0,22,23
 135 263 135 263 174 263 c 3,24,25
 272 263 272 263 343 207 c 0,26,27
 424 143 424 143 424 0 c 131,-1,28
 424 -143 424 -143 343 -207 c 0,29,30
 272 -263 272 -263 174 -263 c 3,31,32
 135 -263 135 -263 104 -247 c 0,33,34
 71 -230 71 -230 51 -208 c 0,35,36
 27 -181 27 -181 17 -162 c 24,37,38
 3 -136 3 -136 -3 -116 c 128,-1,39
 -9 -96 -9 -96 -9 -89 c 3,40,41
 -9 -77 -9 -77 4 -77 c 3,42,43
 13 -77 13 -77 16 -87 c 0,44,45
 37 -158 37 -158 74 -195 c 24,46,47
 117 -238 117 -238 174 -238 c 3,48,49
 206 -238 206 -238 227 -228.5 c 128,-1,50
 248 -219 248 -219 260 -205 c 0,51,52
 272 -190 272 -190 278 -165 c 0,53,54
 287 -129 287 -129 287 -51 c 2,55,-1
 287 51 l 2,0,1
253 0 m 128,-1,57
 253 -31 253 -31 229.5 -54.5 c 128,-1,58
 206 -78 206 -78 175 -78 c 128,-1,59
 144 -78 144 -78 120.5 -54.5 c 128,-1,60
 97 -31 97 -31 97 0 c 128,-1,61
 97 31 97 31 120.5 54.5 c 128,-1,62
 144 78 144 78 175 78 c 128,-1,63
 206 78 206 78 229.5 54.5 c 128,-1,56
 253 31 253 31 253 0 c 128,-1,57
EndSplineSet
Validated: 1
EndChar

StartChar: uniE650
Encoding: 58960 58960 132
Width: 1306
Flags: W
HStem: 0 35<666.5 703 666.5 718.5> 225 66<69 81> 254 33<463 484> 289 65<346.5 349.5 330 381.5> 420 18 482 18<243 250 243 243>
VStem: -1 44<329.5 344> 125 18<334.5 354> 164 40<299.5 382.5> 252 52<159 235> 371 45<381 387 341 409.5> 399 33<145.5 213> 509 35<223.5 231.5> 576 52<136 165.5 119 170.5> 732 68<107 146 107 146.5>
LayerCount: 2
Back
SplineSet
1201 53 m 128,-1,1
 1201 74 1201 74 1216.5 89.5 c 128,-1,2
 1232 105 1232 105 1253 105 c 128,-1,3
 1274 105 1274 105 1290 89.5 c 128,-1,4
 1306 74 1306 74 1306 53 c 128,-1,5
 1306 32 1306 32 1290 16 c 128,-1,6
 1274 0 1274 0 1253 0 c 128,-1,7
 1232 0 1232 0 1216.5 16 c 128,-1,0
 1201 32 1201 32 1201 53 c 128,-1,1
64.5 508.5 m 0,8,9
 64.5 483 64.5 483 80.25 459.75 c 128,-1,10
 96 436.5 96 436.5 123 436.5 c 0,11,12
 148.5 436.5 148.5 436.5 168 463.5 c 128,-1,13
 187.5 490.5 187.5 490.5 187.5 525 c 0,14,15
 187.5 534 187.5 534 201 534 c 128,-1,16
 214.5 534 214.5 534 214.5 525 c 0,17,18
 214.5 454.5 214.5 454.5 175.5 396 c 128,-1,19
 136.5 337.5 136.5 337.5 90 337.5 c 0,20,21
 48 337.5 48 337.5 23.25 374.25 c 128,-1,22
 -1.5 411 -1.5 411 -1.5 454.5 c 0,23,24
 -1.5 559.5 -1.5 559.5 102.75 654.75 c 128,-1,25
 207 750 207 750 375 750 c 0,26,27
 487.5 750 487.5 750 555.75 681 c 128,-1,28
 624 612 624 612 624 534 c 0,29,30
 624 496.5 624 496.5 603 465 c 128,-1,31
 582 433.5 582 433.5 546 433.5 c 0,32,33
 478.5 433.5 478.5 433.5 415.5 568.5 c 0,34,35
 414 573 414 573 419.25 578.25 c 128,-1,36
 424.5 583.5 424.5 583.5 430.5 583.5 c 128,-1,37
 436.5 583.5 436.5 583.5 439.5 579 c 0,38,39
 448.5 558 448.5 558 468.75 544.5 c 128,-1,40
 489 531 489 531 508.5 531 c 0,41,42
 531 531 531 531 543.75 546.75 c 128,-1,43
 556.5 562.5 556.5 562.5 556.5 585 c 0,44,45
 556.5 634.5 556.5 634.5 506.25 678.75 c 128,-1,46
 456 723 456 723 375 723 c 2,47,-1
 364.5 723 l 1,48,49
 349.5 694.5 349.5 694.5 327.75 636 c 128,-1,50
 306 577.5 306 577.5 306 561 c 0,51,52
 306 528 306 528 381 441 c 128,-1,53
 456 354 456 354 456 315 c 0,54,55
 456 304.5 456 304.5 451.5 293.25 c 128,-1,56
 447 282 447 282 437.25 267.75 c 128,-1,57
 427.5 253.5 427.5 253.5 419.25 243 c 128,-1,58
 411 232.5 411 232.5 394.5 212.25 c 128,-1,59
 378 192 378 192 369 180 c 1,60,61
 400.5 177 400.5 177 450 155.25 c 128,-1,62
 499.5 133.5 499.5 133.5 522 114 c 0,63,64
 529.5 111 529.5 111 537 111.75 c 128,-1,65
 544.5 112.5 544.5 112.5 557.25 120.75 c 128,-1,66
 570 129 570 129 577.5 135 c 128,-1,67
 585 141 585 141 595.5 150 c 128,-1,68
 606 159 606 159 607.5 160.5 c 0,69,70
 598.5 204 598.5 204 598.5 232.5 c 0,71,72
 598.5 307.5 598.5 307.5 636.75 369 c 128,-1,73
 675 430.5 675 430.5 742.5 430.5 c 0,74,75
 772.5 430.5 772.5 430.5 794.25 411.75 c 128,-1,76
 816 393 816 393 816 363 c 0,77,78
 816 297 816 297 697.5 198 c 2,79,-1
 681 184.5 l 1,80,81
 724.5 103.5 724.5 103.5 751.5 81 c 0,82,83
 762 70.5 762 70.5 778.5 81 c 0,84,85
 816 102 816 102 873 151.5 c 1,86,87
 864 183 864 183 864 214.5 c 0,88,89
 864 274.5 864 274.5 906.75 333 c 128,-1,90
 949.5 391.5 949.5 391.5 1009.5 420 c 1,91,92
 951 501 951 501 867.75 558 c 128,-1,93
 784.5 615 784.5 615 697.5 630 c 0,94,95
 691.5 630 691.5 630 690.75 637.5 c 128,-1,96
 690 645 690 645 693 651 c 128,-1,97
 696 657 696 657 702 657 c 0,98,99
 811.5 637.5 811.5 637.5 916.5 582 c 128,-1,100
 1021.5 526.5 1021.5 526.5 1100.25 437.25 c 128,-1,101
 1179 348 1179 348 1195.5 249 c 0,102,103
 1195.5 244.5 1195.5 244.5 1197 237.75 c 128,-1,104
 1198.5 231 1198.5 231 1199.25 225 c 128,-1,105
 1200 219 1200 219 1200 213 c 0,106,107
 1200 132 1200 132 1149.75 66 c 128,-1,108
 1099.5 0 1099.5 0 1030.5 0 c 0,109,110
 984 0 984 0 943.5 35.25 c 128,-1,111
 903 70.5 903 70.5 882 123 c 1,112,113
 790.5 39 790.5 39 754.5 15 c 0,114,115
 736.5 1.5 736.5 1.5 709.5 1.5 c 128,-1,116
 682.5 1.5 682.5 1.5 662.25 24 c 128,-1,117
 642 46.5 642 46.5 635.25 66.75 c 128,-1,118
 628.5 87 628.5 87 616.5 129 c 1,119,120
 601.5 117 601.5 117 564.75 87.75 c 128,-1,121
 528 58.5 528 58.5 498 35.25 c 128,-1,122
 468 12 468 12 457.5 6 c 0,123,124
 442.5 -1.5 442.5 -1.5 432 6 c 0,125,126
 421.5 15 421.5 15 396 80.25 c 128,-1,127
 370.5 145.5 370.5 145.5 346.5 153 c 1,128,129
 271.5 63 271.5 63 262.5 54 c 0,130,131
 246 37.5 246 37.5 215.25 18.75 c 128,-1,132
 184.5 0 184.5 0 166.5 0 c 0,133,134
 145.5 0 145.5 0 145.5 18 c 0,135,136
 145.5 43.5 145.5 43.5 190.5 88.5 c 0,137,138
 214.5 114 214.5 114 259.5 144.75 c 128,-1,139
 304.5 175.5 304.5 175.5 333 180 c 0,140,141
 337.5 186 337.5 186 350.25 199.5 c 128,-1,142
 363 213 363 213 366 218.25 c 128,-1,143
 369 223.5 369 223.5 373.5 233.25 c 128,-1,144
 378 243 378 243 378 253.5 c 0,145,146
 378 291 378 291 312 370.5 c 128,-1,147
 246 450 246 450 246 478.5 c 0,148,149
 246 504 246 504 280.5 596.25 c 128,-1,150
 315 688.5 315 688.5 336 721.5 c 1,151,152
 217.5 711 217.5 711 141 643.5 c 128,-1,153
 64.5 576 64.5 576 64.5 508.5 c 0,8,9
712.5 381 m 0,154,155
 681 381 681 381 664.5 357 c 128,-1,156
 648 333 648 333 648 298.5 c 0,157,158
 648 255 648 255 669 208.5 c 1,159,160
 763.5 288 763.5 288 763.5 333 c 0,161,162
 763.5 354 763.5 354 748.5 367.5 c 128,-1,163
 733.5 381 733.5 381 712.5 381 c 0,154,155
1024.5 397.5 m 1,164,165
 985.5 375 985.5 375 963.75 322.5 c 128,-1,166
 942 270 942 270 942 214.5 c 0,167,168
 942 153 942 153 965.25 102.75 c 128,-1,169
 988.5 52.5 988.5 52.5 1030.5 52.5 c 0,170,171
 1065 52.5 1065 52.5 1081.5 87 c 128,-1,172
 1098 121.5 1098 121.5 1098 174 c 0,173,174
 1098 286.5 1098 286.5 1024.5 397.5 c 1,164,165
EndSplineSet
Fore
SplineSet
1201 53 m 128,-1,1
 1201 74 1201 74 1216.5 89.5 c 128,-1,2
 1232 105 1232 105 1253 105 c 128,-1,3
 1274 105 1274 105 1290 89.5 c 128,-1,4
 1306 74 1306 74 1306 53 c 128,-1,5
 1306 32 1306 32 1290 16 c 128,-1,6
 1274 0 1274 0 1253 0 c 128,-1,7
 1232 0 1232 0 1216.5 16 c 128,-1,0
 1201 32 1201 32 1201 53 c 128,-1,1
64 508 m 0,8,9
 64 482 64 482 80 459 c 128,-1,10
 96 436 96 436 123 436 c 0,11,12
 149 436 149 436 168.5 463 c 128,-1,13
 188 490 188 490 188 525 c 0,14,15
 188 534 188 534 201 534 c 128,-1,16
 214 534 214 534 214 525 c 0,17,18
 214 455 214 455 175 396.5 c 128,-1,19
 136 338 136 338 90 338 c 0,20,21
 48 338 48 338 23 374 c 128,-1,22
 -2 410 -2 410 -2 454 c 0,23,24
 -2 559 -2 559 102.5 654.5 c 128,-1,25
 207 750 207 750 375 750 c 0,26,27
 487 750 487 750 555.5 681 c 128,-1,28
 624 612 624 612 624 534 c 0,29,30
 624 494 624 494 603 465 c 0,31,32
 579 434 579 434 546 434 c 0,33,34
 487 434 487 434 427 543 c 0,35,36
 415 565 415 565 415 571 c 3,37,38
 415 575 415 575 419 578 c 0,39,40
 427 584 427 584 431 584 c 3,41,42
 438 584 438 584 440 579 c 0,43,44
 452 555 452 555 469 544 c 0,45,46
 488 531 488 531 508 531 c 0,47,48
 530 531 530 531 543 546.5 c 128,-1,49
 556 562 556 562 556 585 c 0,50,51
 556 635 556 635 506 679 c 128,-1,52
 456 723 456 723 375 723 c 2,53,-1
 364 723 l 1,54,55
 349 695 349 695 327.5 636.5 c 128,-1,56
 306 578 306 578 306 561 c 0,57,58
 306 528 306 528 381 441 c 128,-1,59
 456 354 456 354 456 315 c 0,60,61
 456 305 456 305 451.5 293.5 c 128,-1,62
 447 282 447 282 437.5 268 c 128,-1,63
 428 254 428 254 419.5 243 c 128,-1,64
 411 232 411 232 394.5 212 c 128,-1,65
 378 192 378 192 369 180 c 1,66,67
 415 176 415 176 450 155 c 0,68,69
 488 133 488 133 522 114 c 0,70,71
 526 112 526 112 537 112 c 0,72,73
 545 112 545 112 557.5 120.5 c 128,-1,74
 570 129 570 129 578 135 c 0,75,76
 588 143 588 143 596 150 c 0,77,-1
 608 160 l 1,78,79
 598 214 598 214 598 232 c 0,80,81
 598 306 598 306 636 368 c 128,-1,82
 674 430 674 430 742 430 c 0,83,84
 772 430 772 430 794 411.5 c 128,-1,85
 816 393 816 393 816 363 c 0,86,87
 816 295 816 295 698 198 c 2,88,-1
 681 184 l 1,89,90
 720 113 720 113 752 81 c 0,91,92
 757 76 757 76 763.5 76 c 128,-1,93
 770 76 770 76 778 81 c 0,94,95
 816 102 816 102 873 152 c 1,96,97
 864 184 864 184 864 214 c 0,98,99
 864 274 864 274 907 333 c 128,-1,100
 950 392 950 392 1010 420 c 1,101,102
 949 504 949 504 868 558 c 0,103,104
 778 618 778 618 698 630 c 0,105,106
 691 631 691 631 691 640 c 0,107,108
 691 646 691 646 693 651 c 0,109,110
 696 657 696 657 701 657 c 259,111,112
 710 657 710 657 742 649 c 0,113,114
 844 623 844 623 916 582 c 0,115,116
 1032 515 1032 515 1100 437 c 0,117,118
 1148 382 1148 382 1169 334 c 0,119,120
 1200 263 1200 263 1200 213 c 3,121,122
 1200 132 1200 132 1150 66 c 128,-1,123
 1100 0 1100 0 1031 0 c 3,124,125
 985 0 985 0 944 35 c 128,-1,126
 903 70 903 70 882 123 c 1,127,128
 809 53 809 53 754 15 c 0,129,130
 735 2 735 2 708.5 2 c 128,-1,131
 682 2 682 2 662 24 c 128,-1,132
 642 46 642 46 635 66.5 c 128,-1,133
 628 87 628 87 616 129 c 1,134,135
 601 117 601 117 564.5 87.5 c 128,-1,136
 528 58 528 58 498 35 c 128,-1,137
 468 12 468 12 458 6 c 0,138,139
 450 2 450 2 443.5 2 c 128,-1,140
 437 2 437 2 432 6 c 0,141,142
 422 15 422 15 396 80.5 c 128,-1,143
 370 146 370 146 346 153 c 1,144,145
 270 63 270 63 262 54 c 0,146,147
 246 38 246 38 215 19 c 128,-1,148
 184 0 184 0 166 0 c 0,149,150
 146 0 146 0 146 18 c 0,151,152
 146 42 146 42 190 88 c 0,153,154
 220 118 220 118 260 145 c 0,155,156
 309 178 309 178 333 180 c 1,157,158
 335 182 335 182 350 200 c 0,159,160
 363 213 363 213 366 218 c 0,161,162
 370 224 370 224 374 234 c 128,-1,163
 378 244 378 244 378 254 c 0,164,165
 378 292 378 292 312 371 c 128,-1,166
 246 450 246 450 246 478 c 0,167,168
 246 504 246 504 280.5 596 c 128,-1,169
 315 688 315 688 336 722 c 1,170,171
 218 712 218 712 141 644 c 128,-1,172
 64 576 64 576 64 508 c 0,8,9
712 381 m 0,173,174
 680 381 680 381 664 357 c 0,175,176
 648 332 648 332 648 298 c 0,177,178
 648 254 648 254 669 208 c 1,179,180
 764 288 764 288 764 333 c 0,181,182
 764 354 764 354 748.5 367.5 c 128,-1,183
 733 381 733 381 712 381 c 0,173,174
1024 398 m 1,184,185
 985 376 985 376 963.5 323 c 128,-1,186
 942 270 942 270 942 214 c 0,187,188
 942 152 942 152 965 102 c 128,-1,189
 988 52 988 52 1030 52 c 0,190,191
 1064 52 1064 52 1081 87 c 128,-1,192
 1098 122 1098 122 1098 174 c 0,193,194
 1098 287 1098 287 1024 398 c 1,184,185
EndSplineSet
Validated: 1
EndChar

StartChar: uniE651
Encoding: 58961 58961 133
Width: 624
VWidth: 1500
Flags: W
HStem: 0 21G<156 175.5> 3 177<369 439.5> 337.5 99<81.3131 143.9> 433.5 97.5<494.666 541.031> 723 27<357.677 453.258>
VStem: -1.5 66<427.971 547.869> 187.5 27<474.778 532.447> 246 60<464.25 561.798> 378 78<243.75 335.25> 556.5 67.5<511.5 618.735>
LayerCount: 2
Fore
SplineSet
64.5 508.5 m 0,0,1
 64.5 471 64.5 471 85.5 454.5 c 0,2,3
 108 436.5 108 436.5 123 436.5 c 0,4,5
 150 436.5 150 436.5 166.5 463.5 c 1,6,7
 187.5 490.5 187.5 490.5 187.5 525 c 0,8,9
 187.5 534 187.5 534 201 532.5 c 1,10,11
 214.5 535.5 214.5 535.5 214.5 525 c 0,12,13
 214.5 456 214.5 456 175.5 396 c 1,14,15
 136.5 337.5 136.5 337.5 90 337.5 c 0,16,17
 55.5 337.5 55.5 337.5 27 369.75 c 128,-1,18
 -1.5 402 -1.5 402 -1.5 454.5 c 0,19,20
 -1.5 559.5 -1.5 559.5 102.75 654.75 c 128,-1,21
 207 750 207 750 375 750 c 0,22,23
 487.5 750 487.5 750 556.5 681 c 1,24,25
 624 610.5 624 610.5 624 534 c 0,26,27
 624 489 624 489 597 460.5 c 0,28,29
 573 433.5 573 433.5 546 433.5 c 0,30,31
 480 433.5 480 433.5 415.5 568.5 c 0,32,33
 414 573 414 573 418.5 577.5 c 0,34,35
 424.5 583.5 424.5 583.5 430.5 583.5 c 256,36,37
 436.5 583.5 436.5 583.5 439.5 579 c 0,38,39
 447 558 447 558 468 544.5 c 1,40,41
 487.5 529.5 487.5 529.5 508.5 531 c 0,42,43
 526.5 531 526.5 531 541.5 544.5 c 0,44,45
 556.5 559.5 556.5 559.5 556.5 585 c 0,46,47
 556.5 633 556.5 633 507 679.5 c 1,48,49
 454.5 723 454.5 723 375 723 c 2,50,-1
 364.5 723 l 1,51,52
 351 699 351 699 328.5 636 c 0,53,54
 306 571.5 306 571.5 306 561 c 0,55,56
 306 528 306 528 381 441 c 0,57,58
 456 355.5 456 355.5 456 315 c 0,59,60
 456 291 456 291 369 180 c 1,61,62
 399 178.5 399 178.5 451.5 156 c 0,63,64
 501 132 501 132 522 114 c 0,65,66
 534 105 534 105 552 118.5 c 2,67,-1
 607.5 160.5 l 2,68,69
 613.5 163.5 613.5 163.5 619.5 157.5 c 0,70,71
 627 150 627 150 627 145.5 c 0,72,73
 627 136.5 627 136.5 546 70.5 c 0,74,75
 465 3 465 3 439.5 3 c 0,76,77
 424.5 3 424.5 3 399 73.5 c 0,78,79
 372 145.5 372 145.5 346.5 153 c 1,80,81
 253.5 39 253.5 39 205.5 12 c 0,82,83
 184.5 0 184.5 0 166.5 0 c 0,84,85
 145.5 0 145.5 0 145.5 18 c 1,86,87
 145.5 52.5 145.5 52.5 219 114 c 0,88,89
 291 172.5 291 172.5 333 180 c 1,90,91
 378 234 378 234 378 253.5 c 0,92,93
 378 291 378 291 312 370.5 c 128,-1,94
 246 450 246 450 246 478.5 c 0,95,96
 246 505.5 246 505.5 282 600 c 0,97,98
 319.5 696 319.5 696 336 721.5 c 1,99,100
 219 711 219 711 141 645 c 1,101,102
 64.5 574.5 64.5 574.5 64.5 508.5 c 0,0,1
EndSplineSet
Validated: 33
EndChar

StartChar: uniE652
Encoding: 58962 58962 134
Width: 297
VWidth: 1500
Flags: W
HStem: 381 49.5<72.8496 157.063>
VStem: -1.5 49.5<209.275 338.492> 165 51<301.258 372.077>
LayerCount: 2
Fore
SplineSet
109.5 1.5 m 0,0,1
 79.5 1.5 79.5 1.5 58.5 30 c 128,-1,2
 37.5 58.5 37.5 58.5 16.5 129 c 1,3,4
 10.5 124.5 10.5 124.5 3 130.5 c 1,5,6
 -3 139.5 -3 139.5 -3 144 c 0,7,8
 -3 147 -3 147 9 157.5 c 1,9,10
 -1.5 196.5 -1.5 196.5 -1.5 232.5 c 0,11,12
 -1.5 310.5 -1.5 310.5 37.5 369 c 1,13,14
 75 430.5 75 430.5 142.5 430.5 c 0,15,16
 177 430.5 177 430.5 196.5 409.5 c 0,17,18
 216 387 216 387 216 363 c 0,19,20
 216 297 216 297 97.5 198 c 1,21,-1
 82.5 184.5 l 1,22,23
 118.5 118.5 118.5 118.5 138 94.5 c 0,24,25
 160.5 69 160.5 69 178.5 81 c 0,26,27
 204 96 204 96 231 117 c 0,28,29
 265.5 144 265.5 144 283.5 160.5 c 0,30,31
 289.5 166.5 289.5 166.5 295.5 157.5 c 1,32,33
 303 153 303 153 303 145.5 c 0,34,35
 303 141 303 141 268.5 108 c 1,36,37
 234 73.5 234 73.5 184.5 37.5 c 1,38,39
 138 1.5 138 1.5 109.5 1.5 c 0,0,1
114 381 m 0,40,41
 88.5 381 88.5 381 70.5 360 c 1,42,43
 48 342 48 342 48 298.5 c 0,44,45
 48 256.5 48 256.5 69 208.5 c 1,46,47
 165 291 165 291 165 333 c 0,48,49
 165 355.5 165 355.5 150 366 c 1,50,51
 136.5 381 136.5 381 114 381 c 0,40,41
EndSplineSet
Validated: 33
EndChar

StartChar: uniE653
Encoding: 58963 58963 135
Width: 498
VWidth: 1500
Flags: W
HStem: 0 52.5<287.645 375.649> 630 27<-5.89233 50.6499>
VStem: 166.5 79.5<118.027 297.347> 400.5 102<112.694 298.706>
LayerCount: 2
Fore
SplineSet
3 657 m 0,0,1
 27 657 27 657 88.5 639 c 1,2,3
 148.5 615 148.5 615 217.5 580.5 c 1,4,5
 289.5 541.5 289.5 541.5 351 489 c 1,6,7
 412.5 442.5 412.5 442.5 460.5 364.5 c 1,8,9
 502.5 291 502.5 291 502.5 213 c 0,10,11
 502.5 130.5 502.5 130.5 451.5 66 c 1,12,13
 403.5 0 403.5 0 333 0 c 0,14,15
 267 0 267 0 217.5 67.5 c 0,16,17
 168 136.5 168 136.5 166.5 214.5 c 0,18,19
 166.5 273 166.5 273 210 333 c 0,20,21
 250.5 391.5 250.5 391.5 312 420 c 1,22,23
 253.5 501 253.5 501 169.5 558 c 0,24,25
 87 613.5 87 613.5 0 630 c 0,26,27
 -6 631.5 -6 631.5 -6 640.5 c 0,28,29
 -6 657 -6 657 3 657 c 0,0,1
328.5 397.5 m 1,30,31
 289.5 375 289.5 375 267 322.5 c 1,32,33
 246 268.5 246 268.5 246 214.5 c 0,34,35
 246 151.5 246 151.5 270 102 c 1,36,37
 292.5 52.5 292.5 52.5 333 52.5 c 0,38,39
 369 52.5 369 52.5 384 88.5 c 0,40,41
 400.5 123 400.5 123 400.5 174 c 0,42,43
 400.5 289.5 400.5 289.5 328.5 397.5 c 1,30,31
EndSplineSet
Validated: 1
EndChar

StartChar: uniE654
Encoding: 58964 58964 136
Width: 102
VWidth: 1500
Flags: W
HStem: 0 105<10.3975 94.6025>
VStem: 0 105<10.3975 94.6025>
LayerCount: 2
Fore
SplineSet
0 52.5 m 132,-1,1
 0 73.5 0 73.5 15.75 89.25 c 132,-1,2
 31.5 105 31.5 105 52.5 105 c 132,-1,3
 73.5 105 73.5 105 89.25 89.25 c 132,-1,4
 105 73.5 105 73.5 105 52.5 c 132,-1,5
 105 31.5 105 31.5 89.25 15.75 c 132,-1,6
 73.5 0 73.5 0 52.5 0 c 132,-1,7
 31.5 0 31.5 0 15.75 15.75 c 132,-1,0
 0 31.5 0 31.5 0 52.5 c 132,-1,1
EndSplineSet
Validated: 1
EndChar

StartChar: uniE655
Encoding: 58965 58965 137
Width: 584
VWidth: 1500
Flags: W
HStem: 0 21G<277 307> 64 139<88.0801 187.289 396.377 495.363> 220 145<18.6592 111.539 472.939 565.372> 276 32<132.58 197.237 385.941 450.619> 382 139<88.5156 186.373 423.467 495.741>
VStem: 63 138<89.3809 186.598 397.719 495.679> 219 145<18.6284 111.484 473.308 565.372> 276 32<133.771 198.507 386.281 452.219> 382 138<88.2852 187.373 396.748 496.988>
LayerCount: 2
Fore
SplineSet
249 292 m 128,-1,1
 249 276 249 276 261 262 c 1,2,3
 276 250 276 250 292 250 c 128,-1,4
 308 250 308 250 322 262 c 1,5,6
 334 277 334 277 334 292.5 c 128,-1,7
 334 308 334 308 322 323 c 1,8,9
 307 335 307 335 291.5 335 c 128,-1,10
 276 335 276 335 261 323 c 1,11,0
 249 308 249 308 249 292 c 128,-1,1
0 292.5 m 0,12,13
 0 322 0 322 18 344 c 1,14,15
 39 366 39 366 72 365 c 0,16,17
 90 365 90 365 118.5 336.5 c 0,18,19
 146 308 146 308 166 308 c 0,20,21
 202 308 202 308 204 350 c 0,22,23
 204 383 204 383 154 383 c 1,24,-1
 130 382 l 2,25,26
 106 382 106 382 86 396 c 1,27,28
 64 417 64 417 63.5 446.5 c 0,29,30
 64 476 64 476 86 497 c 0,31,32
 112 521 112 521 138 521 c 0,33,34
 146 521 146 521 159 518 c 0,35,36
 174 514 174 514 188 498 c 1,37,38
 202 480 202 480 201 454 c 2,39,-1
 201 436 l 2,40,41
 201 380 201 380 234 380 c 0,42,43
 274 380 274 380 276 418 c 0,44,45
 276 440 276 440 248 466 c 0,46,47
 218 496 218 496 219 512 c 0,48,49
 219 546 219 546 240 566 c 0,50,51
 262 584 262 584 291.5 584 c 0,52,53
 322 584 322 584 344 566 c 0,54,55
 366 546 366 546 364 512 c 0,56,57
 364 494 364 494 336 465.5 c 0,58,59
 308 438 308 438 308 418 c 0,60,61
 308 382 308 382 348 380 c 0,62,63
 380 380 380 380 382 436 c 2,64,-1
 382 454 l 2,65,66
 382 482 382 482 396 498 c 1,67,68
 410 513 410 513 423 518 c 0,69,70
 438 521 438 521 446 521 c 0,71,72
 474 521 474 521 498 497 c 0,73,74
 520 475 520 475 520 446.5 c 128,-1,75
 520 418 520 418 498 396 c 1,76,77
 476 382 476 382 453 382 c 2,78,-1
 429 383 l 1,79,80
 380 383 380 383 380 350 c 0,81,82
 380 310 380 310 416 308 c 0,83,84
 437 308 437 308 465 336 c 0,85,86
 496 366 496 366 512 365 c 0,87,88
 546 365 546 365 566 344 c 1,89,90
 584 322 584 322 584 292.5 c 0,91,92
 584 262 584 262 566 240 c 1,93,94
 546 218 546 218 512 220 c 0,95,96
 494 220 494 220 465 248 c 128,-1,97
 436 276 436 276 416 276 c 0,98,99
 380 276 380 276 380 236 c 0,100,101
 380 204 380 204 429 202 c 1,102,-1
 453 203 l 2,103,104
 477 203 477 203 498 188 c 1,105,106
 520 168 520 168 520 138 c 128,-1,107
 520 108 520 108 498 88 c 0,108,109
 472 64 472 64 446 64 c 0,110,111
 438 64 438 64 423 66 c 0,112,113
 408 70 408 70 396 86 c 1,114,115
 382 104 382 104 382 131 c 2,116,-1
 382 149 l 2,117,118
 382 204 382 204 348 204 c 0,119,120
 308 204 308 204 308 168 c 0,121,122
 308 147 308 147 336 119 c 0,123,124
 366 88 366 88 364 72 c 0,125,126
 364 38 364 38 344 18 c 1,127,128
 322 0 322 0 292 0 c 128,-1,129
 262 0 262 0 240 18 c 1,130,131
 218 38 218 38 219 72 c 0,132,133
 219 90 219 90 247.5 119 c 128,-1,134
 276 148 276 148 276 168 c 0,135,136
 276 204 276 204 234 204 c 0,137,138
 201 204 201 204 201 149 c 2,139,-1
 201 131 l 2,140,141
 202 103 202 103 188 86 c 1,142,143
 174 70 174 70 159 66 c 0,144,145
 144 64 144 64 138 64 c 0,146,147
 108 64 108 64 86 88 c 0,148,149
 64 110 64 110 63 138 c 0,150,151
 64 170 64 170 86 188 c 1,152,153
 108 203 108 203 130 203 c 2,154,-1
 154 202 l 1,155,156
 204 202 204 202 204 236 c 0,157,158
 204 276 204 276 166 276 c 0,159,160
 144 276 144 276 118 248 c 0,161,162
 88 218 88 218 72 220 c 0,163,164
 39 220 39 220 18 240 c 1,165,166
 0 262 0 262 0 292.5 c 0,12,13
EndSplineSet
Validated: 33
EndChar

StartChar: uniE658
Encoding: 58968 58968 138
Width: 312
VWidth: 1500
Flags: W
HStem: 253.5 91.5<53.257 261.697>
VStem: 0 315
LayerCount: 2
Fore
SplineSet
0 232.5 m 1,0,-1
 52.5 324 l 1,1,2
 76.5 343.5 76.5 343.5 129 345 c 0,3,4
 135 345 135 345 184.5 343.5 c 1,5,6
 222 339 222 339 238.5 339 c 0,7,8
 291 339 291 339 315 358.5 c 1,9,-1
 262.5 268.5 l 1,10,11
 237 247.5 237 247.5 186 247.5 c 0,12,13
 180 247.5 180 247.5 130.5 250.5 c 128,-1,14
 81 253.5 81 253.5 76.5 253.5 c 0,15,16
 25.5 253.5 25.5 253.5 0 232.5 c 1,0,-1
EndSplineSet
Validated: 1
EndChar

StartChar: uniE460
Encoding: 58464 58464 139
Width: 329
Flags: W
HStem: 288 276<125.737 225.276>
VStem: 280 48.999<550.992 1198.34>
LayerCount: 2
Fore
SplineSet
329 459 m 2,0,1
 329 400 329 400 260 333 c 0,2,3
 214 288 214 288 109 288 c 0,4,5
 62 288 62 288 30 313 c 1,6,7
 0 339 0 339 0 379 c 0,8,9
 0 446 0 446 70 505 c 1,10,11
 139 564 139 564 220 564 c 0,12,13
 254 564 254 564 280 551 c 1,14,-1
 280 1173 l 2,15,16
 280 1198 280 1198 304 1198 c 0,17,18
 329 1198 329 1198 329 1173 c 2,19,-1
 329 459 l 2,0,1
EndSplineSet
Validated: 1
EndChar

StartChar: uniE461
Encoding: 58465 58465 140
Width: 847
Flags: W
LayerCount: 2
Fore
SplineSet
441 0 m 128,-1,1
 441 -9 441 -9 434 -14 c 1,2,-1
 272 -78 l 1,3,-1
 272 -314 l 2,4,5
 272 -330 272 -330 258 -330 c 2,6,-1
 229 -330 l 2,7,8
 215 -330 215 -330 215 -314 c 2,9,-1
 215 -101 l 1,10,-1
 146 -128 l 1,11,-1
 146 -341 l 2,12,13
 146 -356 146 -356 131 -355 c 2,14,-1
 102 -355 l 2,15,16
 88 -355 88 -355 88 -341 c 2,17,-1
 88 -151 l 1,18,-1
 6 -185 l 2,19,20
 -2 -188 -2 -188 -5 -188 c 0,21,22
 -15 -188 -15 -188 -15 -171 c 2,23,-1
 -15 -143 l 2,24,25
 -15 -132 -15 -132 -6 -129 c 2,26,-1
 88 -91 l 1,27,-1
 88 91 l 1,28,-1
 -5 128 l 2,29,30
 -15 131 -15 131 -15 141 c 2,31,-1
 -15 171 l 2,32,33
 -15 188 -15 188 -5 188 c 0,34,35
 -1 188 -1 188 6 185 c 2,36,-1
 88 151 l 1,37,-1
 88 316 l 2,38,39
 88 330 88 330 102 330 c 2,40,-1
 131 330 l 2,41,42
 146 330 146 330 146 316 c 2,43,-1
 146 128 l 1,44,-1
 215 101 l 1,45,-1
 215 341 l 2,46,47
 215 356 215 356 229 355 c 2,48,-1
 258 355 l 2,49,50
 273 355 273 355 272 341 c 2,51,-1
 272 77 l 1,52,-1
 434 14 l 1,53,0
 441 9 441 9 441 0 c 128,-1,1
146 -67 m 1,54,-1
 215 -40 l 1,55,-1
 215 40 l 1,56,-1
 146 67 l 1,57,-1
 146 -67 l 1,54,-1
272 -17 m 1,58,-1
 314 0 l 1,59,-1
 272 17 l 1,60,-1
 272 -17 l 1,58,-1
EndSplineSet
Validated: 1
EndChar

StartChar: uniE1EA
Encoding: 57834 57834 141
Width: 625
Flags: W
LayerCount: 2
Fore
SplineSet
506 1 m 3,0,1
 506 -61 506 -61 467 -115 c 1,2,3
 429 -171 429 -171 368 -191 c 1,4,5
 371 -230 371 -230 371 -271 c 0,6,7
 371 -308 371 -308 370 -318 c 0,8,9
 366 -392 366 -392 318 -447 c 1,10,11
 269 -500 269 -500 201 -500 c 0,12,13
 138 -500 138 -500 92 -454 c 128,-1,14
 46 -408 46 -408 46 -344 c 0,15,16
 46 -311 46 -311 72 -287 c 1,17,18
 97 -263 97 -263 134 -263 c 0,19,20
 165 -263 165 -263 187 -287 c 1,21,22
 208 -309 208 -309 208 -344 c 0,23,24
 208 -375 208 -375 186 -396 c 1,25,26
 165 -417 165 -417 134 -418 c 0,27,28
 127 -418 127 -418 124 -417 c 1,29,30
 154 -458 154 -458 203 -458 c 0,31,32
 256 -458 256 -458 291 -415 c 0,33,34
 324 -372 324 -372 329 -312 c 0,35,36
 330 -302 330 -302 330 -269 c 256,37,38
 330 -235 330 -235 327 -201 c 1,39,40
 295 -207 295 -207 262 -207 c 0,41,42
 153 -207 153 -207 77.5 -120 c 128,-1,43
 2 -33 2 -33 2 88 c 3,44,45
 3 92 3 92 8 140 c 0,46,47
 14 196 14 196 62 277 c 0,48,49
 90 324 90 324 121 363 c 24,50,51
 188 445 188 445 188 446 c 0,52,53
 158 542 158 542 152 603 c 0,54,55
 147 649 147 649 147 728 c 0,56,57
 147 796 147 796 176.5 857.5 c 128,-1,58
 206 919 206 919 260 961 c 0,59,60
 264 964 264 964 269 964 c 0,61,62
 276 964 276 964 279 960 c 0,63,64
 322 908 322 908 353 824 c 0,65,66
 384 738 384 738 384 672 c 0,67,68
 384 597 384 597 350 528 c 0,69,70
 318 464 318 464 252 382 c 1,71,72
 275 306 275 306 298 207 c 1,73,-1
 305 208 l 24,74,75
 394 208 394 208 449 146 c 0,76,77
 506 83 506 83 506 1 c 3,0,1
364 -151 m 1,78,79
 398 -137 398 -137 422 -102 c 1,80,81
 443 -67 443 -67 443 -29 c 3,82,83
 443 22 443 22 409 64 c 0,84,85
 376 106 376 106 319 114 c 1,86,87
 348 -23 348 -23 364 -151 c 1,78,79
62 19 m 3,88,89
 62 -55 62 -55 123 -111 c 1,90,91
 187 -165 187 -165 265 -165 c 0,92,93
 300 -165 300 -165 323 -161 c 1,94,95
 310 -36 310 -36 276 115 c 1,96,97
 235 111 235 111 210 84 c 1,98,99
 186 60 186 60 186 25 c 3,100,101
 186 -32 186 -32 248 -67 c 1,102,103
 254 -73 254 -73 254 -82 c 0,104,105
 254 -90 254 -90 248 -98 c 1,106,107
 242 -104 242 -104 233 -104 c 0,108,109
 232 -104 232 -104 225 -102 c 1,110,111
 178 -77 178 -77 155 -38 c 128,-1,112
 132 1 132 1 132 45 c 3,113,114
 132 100 132 100 166 144 c 1,115,116
 198 189 198 189 257 202 c 1,117,118
 245 253 245 253 220 342 c 1,119,120
 189 304 189 304 160 266 c 0,121,122
 140 240 140 240 112 192 c 0,123,124
 89 152 89 152 74 105 c 24,125,126
 62 67 62 67 62 19 c 3,88,89
312 840 m 1,127,128
 256 808 256 808 224 752 c 0,129,130
 192 697 192 697 191 634 c 0,131,132
 191 583 191 583 220 486 c 1,133,134
 324 626 324 626 324 741 c 3,135,136
 324 796 324 796 312 840 c 1,127,128
EndSplineSet
Validated: 1
EndChar

StartChar: uniE1EB
Encoding: 57835 57835 142
Width: 549
Flags: W
LayerCount: 2
Fore
SplineSet
265 0 m 131,-1,1
 265 -57 265 -57 298 -57 c 0,2,3
 311 -57 311 -57 332 -43 c 1,4,5
 355 -30 355 -30 367 -30 c 3,6,7
 441 -30 441 -30 495 -80 c 1,8,9
 549 -128 549 -128 549 -200 c 3,10,11
 549 -400 549 -400 344 -400 c 3,12,13
 295 -400 295 -400 259 -367 c 128,-1,14
 223 -334 223 -334 223 -287 c 3,15,16
 223 -262 223 -262 240.5 -244.5 c 128,-1,17
 258 -227 258 -227 283 -227 c 0,18,19
 307 -227 307 -227 326 -244 c 0,20,21
 344 -262 344 -262 344 -287 c 3,22,23
 344 -301 344 -301 326 -317 c 1,24,25
 309 -333 309 -333 308 -348 c 0,26,27
 308 -360 308 -360 318 -367 c 0,28,29
 329 -376 329 -376 344 -376 c 3,30,31
 408 -376 408 -376 430 -332 c 0,32,33
 452 -287 452 -287 452 -200 c 3,34,35
 452 -128 452 -128 436 -90 c 1,36,37
 418 -54 418 -54 367 -54 c 3,38,39
 326 -54 326 -54 303 -88 c 1,40,41
 278 -122 278 -122 277 -170 c 0,42,43
 277 -182 277 -182 264.5 -182 c 128,-1,44
 252 -182 252 -182 252 -170 c 0,45,46
 252 -78 252 -78 186 -15 c 1,47,-1
 186 -390 l 2,48,49
 186 -400 186 -400 176 -400 c 2,50,-1
 159 -400 l 2,51,52
 149 -400 149 -400 149 -390 c 2,53,-1
 149 390 l 2,54,55
 149 400 149 400 159 400 c 2,56,-1
 176 400 l 2,57,58
 186 400 186 400 186 390 c 2,59,-1
 186 15 l 1,60,61
 252 78 252 78 252 170 c 0,62,63
 252 182 252 182 264.5 182 c 128,-1,64
 277 182 277 182 277 170 c 0,65,66
 277 122 277 122 302.5 88 c 128,-1,67
 328 54 328 54 367 54 c 3,68,69
 418 54 418 54 436 90 c 1,70,71
 452 128 452 128 452 200 c 3,72,73
 452 286 452 286 430 331 c 0,74,75
 408 375 408 375 344 375 c 3,76,77
 327 375 327 375 318 367 c 1,78,79
 308 359 308 359 308 348 c 0,80,81
 308 333 308 333 326 317 c 1,82,83
 344 300 344 300 344 287 c 3,84,85
 344 260 344 260 326 244 c 0,86,87
 307 227 307 227 283 227 c 3,88,89
 258 227 258 227 240.5 244.5 c 128,-1,90
 223 262 223 262 223 287 c 3,91,92
 223 334 223 334 259 367 c 128,-1,93
 295 400 295 400 344 400 c 3,94,95
 549 400 549 400 549 200 c 3,96,97
 549 128 549 128 495 80 c 1,98,99
 441 30 441 30 367 30 c 3,100,101
 355 30 355 30 332 43 c 1,102,103
 311 57 311 57 298 57 c 0,104,0
 265 57 265 57 265 0 c 131,-1,1
102 -400 m 2,105,-1
 10 -400 l 2,106,107
 0 -400 0 -400 0 -390 c 2,108,-1
 0 390 l 2,109,110
 0 400 0 400 10 400 c 2,111,-1
 102 400 l 2,112,113
 112 400 112 400 112 390 c 2,114,-1
 112 -390 l 2,115,116
 112 -400 112 -400 102 -400 c 2,105,-1
EndSplineSet
Validated: 1
EndChar

StartChar: uniE1EC
Encoding: 57836 57836 143
Width: 536
Flags: W
LayerCount: 2
Fore
SplineSet
446 99 m 128,-1,1
 446 116 446 116 458 128 c 128,-1,2
 470 140 470 140 487 140 c 128,-1,3
 504 140 504 140 516 128 c 128,-1,4
 528 116 528 116 528 99 c 128,-1,5
 528 82 528 82 516 70 c 128,-1,6
 504 58 504 58 487 58 c 128,-1,7
 470 58 470 58 458 70 c 128,-1,0
 446 82 446 82 446 99 c 128,-1,1
446 -99 m 128,-1,9
 446 -82 446 -82 458 -70 c 128,-1,10
 470 -58 470 -58 487 -58 c 128,-1,11
 504 -58 504 -58 516 -70 c 128,-1,12
 528 -82 528 -82 528 -99 c 128,-1,13
 528 -116 528 -116 516 -128 c 128,-1,14
 504 -140 504 -140 487 -140 c 128,-1,15
 470 -140 470 -140 458 -128 c 128,-1,8
 446 -116 446 -116 446 -99 c 128,-1,9
179 213 m 3,16,17
 287 213 287 213 354 160 c 0,18,19
 420 108 420 108 420 12 c 3,20,21
 420 -50 420 -50 395.5 -104.5 c 128,-1,22
 371 -159 371 -159 334 -202 c 0,23,24
 300 -242 300 -242 240 -284 c 0,25,26
 170 -332 170 -332 130 -352 c 0,27,28
 11 -413 11 -413 0 -413 c 3,29,30
 -13 -413 -13 -413 -13 -400 c 3,31,32
 -13 -394 -13 -394 -9 -391 c 0,33,34
 -1 -386 -1 -386 81 -328 c 0,35,36
 121 -300 121 -300 163 -262 c 0,37,38
 204 -225 204 -225 234 -184 c 0,39,40
 258 -150 258 -150 279 -98 c 0,41,42
 298 -51 298 -51 298 2 c 3,43,44
 298 80 298 80 268 132 c 0,45,46
 236 187 236 187 179 187 c 3,47,48
 143 187 143 187 115 162 c 0,49,50
 89 139 89 139 75 97 c 1,51,52
 89 99 89 99 90 99 c 0,53,54
 123 99 123 99 146.5 75.5 c 128,-1,55
 170 52 170 52 170 19 c 131,-1,56
 170 -14 170 -14 146 -41 c 0,57,58
 124 -66 124 -66 90 -66 c 3,59,60
 55 -66 55 -66 27 -41 c 0,61,62
 0 -17 0 -17 0 19 c 3,63,64
 0 98 0 98 52 155.5 c 128,-1,65
 104 213 104 213 179 213 c 3,16,17
EndSplineSet
Validated: 1
EndChar

StartChar: uniE1ED
Encoding: 57837 57837 144
Width: 700
Flags: W
LayerCount: 2
Fore
SplineSet
267 -425 m 0,0,1
 267 -452 267 -452 224 -452 c 0,2,3
 189 -452 189 -452 164 -432 c 0,4,5
 140 -411 140 -411 140 -377 c 0,6,7
 140 -318 140 -318 211 -283 c 1,8,9
 280 -247 280 -247 374 -247 c 0,10,11
 410 -247 410 -247 451 -252 c 0,12,13
 481 -256 481 -256 519 -268 c 0,14,15
 552 -279 552 -279 570.5 -300 c 128,-1,16
 589 -321 589 -321 589 -350 c 0,17,18
 589 -417 589 -417 520 -460 c 1,19,20
 622 -479 622 -479 622 -551 c 0,21,22
 622 -612 622 -612 567.5 -660.5 c 128,-1,23
 513 -709 513 -709 443 -709 c 0,24,25
 414 -709 414 -709 384 -695 c 0,26,27
 356 -682 356 -682 344 -670 c 0,28,29
 332 -656 332 -656 332 -649 c 0,30,31
 332 -639 332 -639 342 -633 c 1,32,33
 351 -624 351 -624 360 -624 c 0,34,35
 364 -624 364 -624 377 -636.5 c 128,-1,36
 390 -649 390 -649 414 -649 c 0,37,38
 447 -649 447 -649 479 -621 c 0,39,40
 509 -594 509 -594 509 -556 c 0,41,42
 509 -523 509 -523 480 -508 c 0,43,44
 453 -493 453 -493 408 -493 c 0,45,46
 400 -493 400 -493 400 -477 c 0,47,48
 400 -454 400 -454 418 -453 c 0,49,50
 445 -453 445 -453 467 -430 c 1,51,52
 487 -405 487 -405 487 -376 c 4,53,54
 487 -367 487 -367 482 -350 c 0,55,56
 479 -339 479 -339 459 -321 c 0,57,58
 440 -305 440 -305 407 -300 c 1,59,60
 398 -348 398 -348 385 -422 c 128,-1,61
 372 -496 372 -496 367 -520 c 0,62,63
 350 -604 350 -604 307 -661 c 0,64,65
 261 -722 261 -722 208 -722 c 0,66,67
 191 -722 191 -722 174 -714 c 0,68,69
 160 -708 160 -708 139 -689 c 0,70,71
 119 -673 119 -673 112 -669 c 0,72,73
 108 -666 108 -666 108 -660 c 0,74,75
 108 -650 108 -650 115 -643 c 0,76,77
 122 -634 122 -634 132 -634 c 0,78,79
 138 -634 138 -634 159.5 -652.5 c 128,-1,80
 181 -671 181 -671 204 -671 c 0,81,82
 249 -671 249 -671 271 -613 c 0,83,84
 292 -557 292 -557 293 -476 c 2,85,-1
 293 -468 l 2,86,87
 293 -413 293 -413 311 -305 c 1,88,89
 280 -315 280 -315 261 -334 c 0,90,91
 241 -354 241 -354 241 -375 c 0,92,93
 241 -392 241 -392 254 -403.5 c 128,-1,94
 267 -415 267 -415 267 -425 c 0,0,1
70 -119 m 0,95,96
 75 -119 75 -119 94 -129 c 0,97,98
 114 -139 114 -139 127 -139 c 0,99,100
 164 -139 164 -139 218 -85 c 0,101,102
 373 73 373 73 432 251 c 0,103,104
 444 288 444 288 489 288 c 0,105,106
 512 288 512 288 529 278 c 0,107,108
 546 267 546 267 546 257 c 2,109,-1
 528 -108 l 1,110,111
 528 -137 528 -137 549 -138 c 0,112,113
 560 -138 560 -138 580 -128 c 128,-1,114
 600 -118 600 -118 604 -118 c 0,115,116
 612 -118 612 -118 613 -135 c 1,117,118
 613 -151 613 -151 601 -154 c 0,119,120
 598 -155 598 -155 562 -173 c 0,121,122
 532 -188 532 -188 514 -188 c 0,123,124
 477 -188 477 -188 461 -130 c 0,125,126
 437 -45 437 -45 430 61 c 1,127,128
 391 11 391 11 343 -40 c 1,129,130
 361 -73 361 -73 407 -73 c 0,131,132
 414 -73 414 -73 418 -72 c 1,133,-1
 419 -72 l 2,134,135
 427 -72 427 -72 427 -87 c 0,136,137
 427 -106 427 -106 414 -109 c 0,138,139
 393 -116 393 -116 371 -116 c 0,140,141
 322 -116 322 -116 301 -83 c 1,142,-1
 262 -118 l 1,143,144
 180 -188 180 -188 128 -188 c 0,145,146
 114 -188 114 -188 100 -184 c 0,147,148
 88 -179 88 -179 72 -169 c 0,149,150
 66 -166 66 -166 59 -161.5 c 128,-1,151
 52 -157 52 -157 50 -156 c 0,152,153
 45 -154 45 -154 45 -147 c 0,154,155
 45 -139 45 -139 53 -129 c 0,156,157
 59 -119 59 -119 70 -119 c 0,95,96
288 540 m 0,158,159
 288 516 288 516 246 516 c 0,160,161
 209 516 209 516 182 540 c 0,162,163
 156 564 156 564 155 600 c 0,164,165
 155 634 155 634 177 658 c 0,166,167
 199 683 199 683 234 696 c 0,168,169
 266 708 266 708 307 715 c 1,170,171
 349 720 349 720 387 720 c 0,172,173
 409 720 409 720 471 699.5 c 128,-1,174
 533 679 533 679 558 679 c 0,175,176
 588 679 588 679 615 689 c 0,177,178
 630 694 630 694 658 712 c 0,179,180
 675 723 675 723 677 723 c 0,181,182
 686 723 686 723 692 717 c 0,183,184
 700 709 700 709 700 704 c 0,185,186
 700 697 700 697 682 682 c 0,187,188
 662 664 662 664 626 646.5 c 128,-1,189
 590 629 590 629 550 629 c 0,190,191
 532 629 532 629 506 635 c 1,192,193
 489 527 489 527 471 442 c 0,194,195
 455 368 455 368 408 312 c 0,196,197
 362 257 362 257 308 257 c 0,198,199
 286 257 286 257 268 266 c 0,200,201
 248 276 248 276 227 295 c 1,202,203
 209 310 209 310 193 321 c 0,204,205
 189 324 189 324 189 330 c 0,206,207
 189 337 189 337 197 348 c 1,208,209
 205 356 205 356 212 356 c 0,210,211
 218 356 218 356 245 332 c 128,-1,212
 272 308 272 308 294 308 c 0,213,214
 333 308 333 308 354 353 c 0,215,216
 375 397 375 397 379 458 c 0,217,218
 384 559 384 559 401 666 c 1,219,220
 380 671 380 671 369 671 c 0,221,222
 322 671 322 671 289 651 c 0,223,224
 256 632 256 632 256 601 c 0,225,226
 256 578 256 578 271 564 c 0,227,228
 288 551 288 551 288 540 c 0,158,159
EndSplineSet
Validated: 1
EndChar

StartChar: uniE1EE
Encoding: 57838 57838 145
Width: 560
Flags: W
LayerCount: 2
Fore
SplineSet
213 -340 m 0,0,1
 213 -361 213 -361 180 -361 c 0,2,3
 153 -361 153 -361 133 -345 c 0,4,5
 112 -328 112 -328 112 -302 c 0,6,7
 112 -254 112 -254 168 -227 c 0,8,9
 227 -199 227 -199 299 -198 c 0,10,11
 368 -198 368 -198 422 -217 c 1,12,13
 472 -238 472 -238 472 -280 c 0,14,15
 472 -333 472 -333 416 -368 c 1,16,17
 498 -385 498 -385 498 -441 c 0,18,19
 498 -488 498 -488 454 -528 c 0,20,21
 411 -567 411 -567 354 -567 c 0,22,23
 331 -567 331 -567 307 -557 c 0,24,25
 286 -547 286 -547 275 -535 c 1,26,27
 265 -526 265 -526 265 -518.5 c 128,-1,28
 265 -511 265 -511 273 -506 c 1,29,30
 280 -499 280 -499 288 -499 c 0,31,32
 292 -499 292 -499 302.5 -509 c 128,-1,33
 313 -519 313 -519 332 -519 c 0,34,35
 360 -519 360 -519 385 -497 c 1,36,37
 408 -475 408 -475 408 -445 c 0,38,39
 408 -419 408 -419 385 -406 c 0,40,41
 363 -394 363 -394 327 -394 c 0,42,43
 320 -394 320 -394 320 -382 c 0,44,45
 320 -362 320 -362 335 -362 c 0,46,47
 356 -362 356 -362 373 -344 c 1,48,49
 390 -323 390 -323 390 -300 c 0,50,51
 390 -252 390 -252 326 -240 c 1,52,-1
 294 -416 l 2,53,54
 281 -481 281 -481 246 -529 c 0,55,56
 210 -577 210 -577 167 -577 c 0,57,58
 152 -577 152 -577 140 -571 c 0,59,60
 128 -566 128 -566 110 -552 c 0,61,62
 90 -536 90 -536 90 -535 c 0,63,64
 86 -531 86 -531 86 -528 c 0,65,66
 86 -522 86 -522 92 -514 c 1,67,68
 99 -507 99 -507 105 -507 c 0,69,70
 108 -507 108 -507 129 -521 c 1,71,72
 146 -537 146 -537 164 -537 c 0,73,74
 202 -537 202 -537 218 -492 c 0,75,76
 235 -445 235 -445 235 -381 c 2,77,-1
 235 -374 l 2,78,79
 235 -334 235 -334 249 -244 c 1,80,81
 224 -253 224 -253 209 -268 c 0,82,83
 193 -284 193 -284 193 -300 c 0,84,85
 193 -314 193 -314 203 -322 c 0,86,87
 213 -332 213 -332 213 -340 c 0,0,1
56 -95 m 0,88,89
 59 -95 59 -95 75 -104 c 1,90,91
 93 -111 93 -111 102 -111 c 0,92,93
 145 -111 145 -111 227 -10 c 0,94,95
 308 90 308 90 345 201 c 0,96,97
 354 230 354 230 391 230 c 0,98,99
 410 230 410 230 422 223 c 1,100,101
 436 217 436 217 436 206 c 2,102,-1
 422 -86 l 1,103,104
 422 -111 422 -111 439 -111 c 0,105,106
 445 -111 445 -111 464 -104 c 1,107,108
 482 -95 482 -95 483 -95 c 0,109,110
 490 -95 490 -95 490 -108 c 0,111,112
 490 -120 490 -120 481 -123 c 0,113,114
 470 -128 470 -128 449 -139 c 0,115,116
 425 -151 425 -151 411 -151 c 0,117,118
 396 -151 396 -151 384 -139 c 1,119,120
 371 -123 371 -123 361 -78 c 1,121,122
 349 -33 349 -33 344 49 c 1,123,124
 314 9 314 9 275 -32 c 1,125,126
 290 -57 290 -57 335 -58 c 0,127,128
 341 -58 341 -58 341 -70 c 0,129,130
 341 -92 341 -92 296 -93 c 0,131,132
 258 -93 258 -93 241 -66 c 1,133,-1
 210 -94 l 2,134,135
 147 -149 147 -149 102 -150 c 0,136,137
 86 -150 86 -150 61 -137 c 0,138,139
 37 -124 37 -124 36 -118 c 0,140,141
 36 -111 36 -111 42 -104 c 0,142,143
 48 -95 48 -95 56 -95 c 0,88,89
230 432 m 0,144,145
 230 413 230 413 197 413 c 0,146,147
 168 413 168 413 146 433 c 0,148,149
 125 452 125 452 124 480 c 0,150,151
 124 507 124 507 141 527 c 0,152,153
 162 548 162 548 188 557 c 1,154,155
 208 565 208 565 246 572 c 1,156,157
 287 576 287 576 310 576 c 0,158,159
 327 576 327 576 376.5 559.5 c 128,-1,160
 426 543 426 543 446 543 c 0,161,162
 470 543 470 543 492 551 c 1,163,164
 513 560 513 560 525 568 c 0,165,166
 538 578 538 578 541 578 c 0,167,168
 547 578 547 578 554 573 c 0,169,170
 560 569 560 569 560 563 c 0,171,172
 560 559 560 559 545 545 c 1,173,174
 527 529 527 529 500 518 c 1,175,176
 471 503 471 503 440 503 c 0,177,178
 424 503 424 503 405 508 c 1,179,180
 391 412 391 412 377 353 c 1,181,182
 364 293 364 293 327 249 c 0,183,184
 291 205 291 205 247 205 c 0,185,186
 227 205 227 205 215 213 c 1,187,188
 198 221 198 221 182 235 c 0,189,190
 166 250 166 250 155 257 c 1,191,192
 151 261 151 261 151 264 c 0,193,194
 151 271 151 271 156 277 c 0,195,196
 161 285 161 285 169 285 c 0,197,198
 173 285 173 285 195.5 265.5 c 128,-1,199
 218 246 218 246 235 246 c 0,200,201
 258 246 258 246 271 262 c 0,202,203
 285 278 285 278 293 309 c 0,204,205
 300 337 300 337 303 372 c 1,206,207
 307 401 307 401 312 452 c 0,208,209
 315 480 315 480 321 533 c 1,210,211
 304 537 304 537 295 537 c 0,212,213
 260 537 260 537 231 521 c 1,214,215
 205 503 205 503 205 481 c 0,216,217
 205 464 205 464 217.5 452 c 128,-1,218
 230 440 230 440 230 432 c 0,144,145
EndSplineSet
Validated: 1
EndChar

StartChar: uniE1E7
Encoding: 57831 57831 146
Width: 113
Flags: W
HStem: -57 114<17.0173 95.9827>
VStem: 0 113<-39.4673 39.4673>
LayerCount: 2
Fore
SplineSet
0 0 m 128,-1,1
 0 23 0 23 16.5 40 c 128,-1,2
 33 57 33 57 56.5 57 c 128,-1,3
 80 57 80 57 96.5 40 c 128,-1,4
 113 23 113 23 113 0 c 128,-1,5
 113 -23 113 -23 96.5 -40 c 128,-1,6
 80 -57 80 -57 56.5 -57 c 128,-1,7
 33 -57 33 -57 16.5 -40 c 128,-1,0
 0 -23 0 -23 0 0 c 128,-1,1
EndSplineSet
Validated: 1
EndChar

StartChar: uniE1FC
Encoding: 57852 57852 147
Width: 100
Flags: W
HStem: 374 100<36 64>
VStem: 0 100<410 438>
LayerCount: 2
Fore
SplineSet
100 424 m 132,-1,1
 100 403 100 403 85.5 388.5 c 128,-1,2
 71 374 71 374 50 374 c 128,-1,3
 29 374 29 374 14.5 388.5 c 128,-1,4
 0 403 0 403 0 424 c 128,-1,5
 0 445 0 445 14.5 459.5 c 128,-1,6
 29 474 29 474 50 474 c 128,-1,7
 71 474 71 474 85.5 459.5 c 128,-1,0
 100 445 100 445 100 424 c 132,-1,1
EndSplineSet
Validated: 1
EndChar

StartChar: uniE260
Encoding: 57952 57952 148
Width: 198
Flags: W
LayerCount: 2
Fore
SplineSet
46 41 m 2,0,-1
 46 -36 l 2,1,2
 46 -77 46 -77 50 -102 c 1,3,4
 82 -75 82 -75 96 -61 c 0,5,6
 112 -45 112 -45 127.5 -17.5 c 128,-1,7
 143 10 143 10 143 37 c 256,8,9
 143 64 143 64 131 84 c 256,10,11
 119 104 119 104 100 104 c 0,12,13
 77 104 77 104 61 86 c 1,14,15
 46 66 46 66 46 41 c 2,0,-1
5 -138 m 2,16,-1
 -8 457 l 1,17,18
 6 465 6 465 19.5 465 c 128,-1,19
 33 465 33 465 47 457 c 1,20,-1
 39 112 l 1,21,22
 79 146 79 146 131 146 c 0,23,24
 169 146 169 146 194.5 115 c 128,-1,25
 220 84 220 84 220 44 c 0,26,27
 220 19 220 19 203 -10 c 0,28,29
 187 -36 187 -36 170 -51 c 0,30,31
 160 -59 160 -59 120 -90 c 0,32,33
 108 -99 108 -99 92 -110.5 c 128,-1,34
 76 -122 76 -122 72 -125 c 0,35,36
 65 -129 65 -129 60 -141 c 1,37,38
 53 -151 53 -151 44 -157 c 0,39,40
 37 -163 37 -163 27.5 -163 c 128,-1,41
 18 -163 18 -163 12 -156 c 0,42,43
 5 -150 5 -150 5 -138 c 2,16,-1
EndSplineSet
Validated: 1
EndChar

StartChar: uniE261
Encoding: 57953 57953 149
Width: 166
Flags: W
LayerCount: 2
Fore
SplineSet
-8 375 m 1,0,1
 5 382 5 382 17.5 382 c 128,-1,2
 30 382 30 382 43 375 c 1,3,-1
 40 192 l 1,4,-1
 146 212 l 1,5,-1
 150 212 l 2,6,7
 168 212 168 212 168 195 c 2,8,-1
 175 -375 l 1,9,10
 162 -382 162 -382 149.5 -382 c 128,-1,11
 137 -382 137 -382 124 -375 c 1,12,-1
 127 -192 l 1,13,-1
 21 -212 l 1,14,-1
 18 -212 l 2,15,16
 0 -212 0 -212 0 -195 c 2,17,-1
 -8 375 l 1,0,1
128 -95 m 1,18,-1
 131 112 l 1,19,-1
 39 95 l 1,20,-1
 36 -112 l 1,21,-1
 128 -95 l 1,18,-1
EndSplineSet
Validated: 1
EndChar

StartChar: uniE262
Encoding: 57954 57954 150
Width: 274
Flags: W
LayerCount: 2
Fore
SplineSet
216 -312 m 2,0,1
 216 -331 216 -331 197.5 -330.5 c 128,-1,2
 179 -330 179 -330 179 -312 c 2,3,-1
 179 -167 l 1,4,-1
 96 -198 l 1,5,-1
 96 -356 l 2,6,7
 96 -375 96 -375 77.5 -375 c 128,-1,8
 59 -375 59 -375 59 -356 c 2,9,-1
 59 -211 l 1,10,-1
 27 -223 l 2,11,12
 26 -224 26 -224 20 -224 c 0,13,14
 12 -224 12 -224 6 -218 c 128,-1,15
 0 -212 0 -212 0 -204 c 2,16,-1
 0 -144 l 2,17,18
 0 -129 0 -129 13 -125 c 2,19,-1
 59 -109 l 1,20,-1
 59 51 l 1,21,-1
 27 40 l 2,22,23
 26 39 26 39 20 39 c 0,24,25
 12 39 12 39 6 45 c 128,-1,26
 0 51 0 51 0 59 c 2,27,-1
 0 119 l 2,28,29
 0 133 0 133 13 137 c 2,30,-1
 59 154 l 1,31,-1
 59 312 l 2,32,33
 59 331 59 331 77.5 330.5 c 128,-1,34
 96 330 96 330 96 312 c 2,35,-1
 96 167 l 1,36,-1
 179 198 l 1,37,-1
 179 356 l 2,38,39
 179 375 179 375 197.5 375 c 128,-1,40
 216 375 216 375 216 356 c 2,41,-1
 216 211 l 1,42,-1
 248 223 l 2,43,44
 249 224 249 224 255 224 c 0,45,46
 262 224 262 224 270 218 c 1,47,48
 276 212 276 212 275 204 c 2,49,-1
 275 144 l 2,50,51
 275 130 275 130 262 125 c 2,52,-1
 216 109 l 1,53,-1
 216 -51 l 1,54,-1
 248 -40 l 2,55,56
 249 -39 249 -39 255 -39 c 0,57,58
 262 -39 262 -39 270 -45 c 1,59,60
 276 -51 276 -51 275 -59 c 2,61,-1
 275 -119 l 2,62,63
 275 -132 275 -132 262 -137 c 2,64,-1
 216 -154 l 1,65,-1
 216 -312 l 2,0,1
179 95 m 1,66,-1
 96 65 l 1,67,-1
 96 -95 l 1,68,-1
 179 -65 l 1,69,-1
 179 95 l 1,66,-1
EndSplineSet
Validated: 1
EndChar

